%TF.GenerationSoftware,KiCad,Pcbnew,9.0.7*%
%TF.CreationDate,2026-05-14T17:59:09+01:00*%
%TF.ProjectId,Pointy R1 Flight controller,506f696e-7479-4205-9231-20466c696768,rev?*%
%TF.SameCoordinates,Original*%
%TF.FileFunction,Drillmap*%
%TF.FilePolarity,Positive*%
%FSLAX45Y45*%
G04 Gerber Fmt 4.5, Leading zero omitted, Abs format (unit mm)*
G04 Created by KiCad (PCBNEW 9.0.7) date 2026-05-14 17:59:09*
%MOMM*%
%LPD*%
G01*
G04 APERTURE LIST*
%ADD10C,0.050000*%
%ADD11C,0.200000*%
%ADD12C,0.320000*%
G04 APERTURE END LIST*
D10*
X11600000Y-6075000D02*
X17400000Y-6075000D01*
X17400000Y-16075000D01*
X11600000Y-16075000D01*
X11600000Y-6075000D01*
D11*
D12*
X15259000Y-9922000D02*
X15579000Y-10242000D01*
X15579000Y-9922000D02*
X15259000Y-10242000D01*
X16871000Y-9922000D02*
X17191000Y-10242000D01*
X17191000Y-9922000D02*
X16871000Y-10242000D01*
D11*
X11858277Y-16388984D02*
X11858277Y-16188984D01*
X11858277Y-16188984D02*
X11905896Y-16188984D01*
X11905896Y-16188984D02*
X11934467Y-16198508D01*
X11934467Y-16198508D02*
X11953515Y-16217555D01*
X11953515Y-16217555D02*
X11963039Y-16236603D01*
X11963039Y-16236603D02*
X11972562Y-16274698D01*
X11972562Y-16274698D02*
X11972562Y-16303269D01*
X11972562Y-16303269D02*
X11963039Y-16341365D01*
X11963039Y-16341365D02*
X11953515Y-16360412D01*
X11953515Y-16360412D02*
X11934467Y-16379460D01*
X11934467Y-16379460D02*
X11905896Y-16388984D01*
X11905896Y-16388984D02*
X11858277Y-16388984D01*
X12058277Y-16388984D02*
X12058277Y-16255650D01*
X12058277Y-16293746D02*
X12067801Y-16274698D01*
X12067801Y-16274698D02*
X12077324Y-16265174D01*
X12077324Y-16265174D02*
X12096372Y-16255650D01*
X12096372Y-16255650D02*
X12115420Y-16255650D01*
X12182086Y-16388984D02*
X12182086Y-16255650D01*
X12182086Y-16188984D02*
X12172562Y-16198508D01*
X12172562Y-16198508D02*
X12182086Y-16208031D01*
X12182086Y-16208031D02*
X12191610Y-16198508D01*
X12191610Y-16198508D02*
X12182086Y-16188984D01*
X12182086Y-16188984D02*
X12182086Y-16208031D01*
X12305896Y-16388984D02*
X12286848Y-16379460D01*
X12286848Y-16379460D02*
X12277324Y-16360412D01*
X12277324Y-16360412D02*
X12277324Y-16188984D01*
X12410658Y-16388984D02*
X12391610Y-16379460D01*
X12391610Y-16379460D02*
X12382086Y-16360412D01*
X12382086Y-16360412D02*
X12382086Y-16188984D01*
X12639229Y-16388984D02*
X12639229Y-16188984D01*
X12639229Y-16188984D02*
X12705896Y-16331841D01*
X12705896Y-16331841D02*
X12772562Y-16188984D01*
X12772562Y-16188984D02*
X12772562Y-16388984D01*
X12953515Y-16388984D02*
X12953515Y-16284222D01*
X12953515Y-16284222D02*
X12943991Y-16265174D01*
X12943991Y-16265174D02*
X12924943Y-16255650D01*
X12924943Y-16255650D02*
X12886848Y-16255650D01*
X12886848Y-16255650D02*
X12867801Y-16265174D01*
X12953515Y-16379460D02*
X12934467Y-16388984D01*
X12934467Y-16388984D02*
X12886848Y-16388984D01*
X12886848Y-16388984D02*
X12867801Y-16379460D01*
X12867801Y-16379460D02*
X12858277Y-16360412D01*
X12858277Y-16360412D02*
X12858277Y-16341365D01*
X12858277Y-16341365D02*
X12867801Y-16322317D01*
X12867801Y-16322317D02*
X12886848Y-16312793D01*
X12886848Y-16312793D02*
X12934467Y-16312793D01*
X12934467Y-16312793D02*
X12953515Y-16303269D01*
X13048753Y-16255650D02*
X13048753Y-16455650D01*
X13048753Y-16265174D02*
X13067801Y-16255650D01*
X13067801Y-16255650D02*
X13105896Y-16255650D01*
X13105896Y-16255650D02*
X13124943Y-16265174D01*
X13124943Y-16265174D02*
X13134467Y-16274698D01*
X13134467Y-16274698D02*
X13143991Y-16293746D01*
X13143991Y-16293746D02*
X13143991Y-16350888D01*
X13143991Y-16350888D02*
X13134467Y-16369936D01*
X13134467Y-16369936D02*
X13124943Y-16379460D01*
X13124943Y-16379460D02*
X13105896Y-16388984D01*
X13105896Y-16388984D02*
X13067801Y-16388984D01*
X13067801Y-16388984D02*
X13048753Y-16379460D01*
X13229705Y-16369936D02*
X13239229Y-16379460D01*
X13239229Y-16379460D02*
X13229705Y-16388984D01*
X13229705Y-16388984D02*
X13220182Y-16379460D01*
X13220182Y-16379460D02*
X13229705Y-16369936D01*
X13229705Y-16369936D02*
X13229705Y-16388984D01*
X13229705Y-16265174D02*
X13239229Y-16274698D01*
X13239229Y-16274698D02*
X13229705Y-16284222D01*
X13229705Y-16284222D02*
X13220182Y-16274698D01*
X13220182Y-16274698D02*
X13229705Y-16265174D01*
X13229705Y-16265174D02*
X13229705Y-16284222D01*
X11397500Y-16617500D02*
X11597500Y-16817500D01*
X11597500Y-16617500D02*
X11397500Y-16817500D01*
X11839229Y-16608984D02*
X11963039Y-16608984D01*
X11963039Y-16608984D02*
X11896372Y-16685174D01*
X11896372Y-16685174D02*
X11924943Y-16685174D01*
X11924943Y-16685174D02*
X11943991Y-16694698D01*
X11943991Y-16694698D02*
X11953515Y-16704222D01*
X11953515Y-16704222D02*
X11963039Y-16723269D01*
X11963039Y-16723269D02*
X11963039Y-16770888D01*
X11963039Y-16770888D02*
X11953515Y-16789936D01*
X11953515Y-16789936D02*
X11943991Y-16799460D01*
X11943991Y-16799460D02*
X11924943Y-16808984D01*
X11924943Y-16808984D02*
X11867801Y-16808984D01*
X11867801Y-16808984D02*
X11848753Y-16799460D01*
X11848753Y-16799460D02*
X11839229Y-16789936D01*
X12048753Y-16789936D02*
X12058277Y-16799460D01*
X12058277Y-16799460D02*
X12048753Y-16808984D01*
X12048753Y-16808984D02*
X12039229Y-16799460D01*
X12039229Y-16799460D02*
X12048753Y-16789936D01*
X12048753Y-16789936D02*
X12048753Y-16808984D01*
X12134467Y-16628031D02*
X12143991Y-16618508D01*
X12143991Y-16618508D02*
X12163039Y-16608984D01*
X12163039Y-16608984D02*
X12210658Y-16608984D01*
X12210658Y-16608984D02*
X12229705Y-16618508D01*
X12229705Y-16618508D02*
X12239229Y-16628031D01*
X12239229Y-16628031D02*
X12248753Y-16647079D01*
X12248753Y-16647079D02*
X12248753Y-16666127D01*
X12248753Y-16666127D02*
X12239229Y-16694698D01*
X12239229Y-16694698D02*
X12124943Y-16808984D01*
X12124943Y-16808984D02*
X12248753Y-16808984D01*
X12372562Y-16608984D02*
X12391610Y-16608984D01*
X12391610Y-16608984D02*
X12410658Y-16618508D01*
X12410658Y-16618508D02*
X12420182Y-16628031D01*
X12420182Y-16628031D02*
X12429705Y-16647079D01*
X12429705Y-16647079D02*
X12439229Y-16685174D01*
X12439229Y-16685174D02*
X12439229Y-16732793D01*
X12439229Y-16732793D02*
X12429705Y-16770888D01*
X12429705Y-16770888D02*
X12420182Y-16789936D01*
X12420182Y-16789936D02*
X12410658Y-16799460D01*
X12410658Y-16799460D02*
X12391610Y-16808984D01*
X12391610Y-16808984D02*
X12372562Y-16808984D01*
X12372562Y-16808984D02*
X12353515Y-16799460D01*
X12353515Y-16799460D02*
X12343991Y-16789936D01*
X12343991Y-16789936D02*
X12334467Y-16770888D01*
X12334467Y-16770888D02*
X12324943Y-16732793D01*
X12324943Y-16732793D02*
X12324943Y-16685174D01*
X12324943Y-16685174D02*
X12334467Y-16647079D01*
X12334467Y-16647079D02*
X12343991Y-16628031D01*
X12343991Y-16628031D02*
X12353515Y-16618508D01*
X12353515Y-16618508D02*
X12372562Y-16608984D01*
X12563039Y-16608984D02*
X12582086Y-16608984D01*
X12582086Y-16608984D02*
X12601134Y-16618508D01*
X12601134Y-16618508D02*
X12610658Y-16628031D01*
X12610658Y-16628031D02*
X12620182Y-16647079D01*
X12620182Y-16647079D02*
X12629705Y-16685174D01*
X12629705Y-16685174D02*
X12629705Y-16732793D01*
X12629705Y-16732793D02*
X12620182Y-16770888D01*
X12620182Y-16770888D02*
X12610658Y-16789936D01*
X12610658Y-16789936D02*
X12601134Y-16799460D01*
X12601134Y-16799460D02*
X12582086Y-16808984D01*
X12582086Y-16808984D02*
X12563039Y-16808984D01*
X12563039Y-16808984D02*
X12543991Y-16799460D01*
X12543991Y-16799460D02*
X12534467Y-16789936D01*
X12534467Y-16789936D02*
X12524943Y-16770888D01*
X12524943Y-16770888D02*
X12515420Y-16732793D01*
X12515420Y-16732793D02*
X12515420Y-16685174D01*
X12515420Y-16685174D02*
X12524943Y-16647079D01*
X12524943Y-16647079D02*
X12534467Y-16628031D01*
X12534467Y-16628031D02*
X12543991Y-16618508D01*
X12543991Y-16618508D02*
X12563039Y-16608984D01*
X12715420Y-16808984D02*
X12715420Y-16675650D01*
X12715420Y-16694698D02*
X12724943Y-16685174D01*
X12724943Y-16685174D02*
X12743991Y-16675650D01*
X12743991Y-16675650D02*
X12772563Y-16675650D01*
X12772563Y-16675650D02*
X12791610Y-16685174D01*
X12791610Y-16685174D02*
X12801134Y-16704222D01*
X12801134Y-16704222D02*
X12801134Y-16808984D01*
X12801134Y-16704222D02*
X12810658Y-16685174D01*
X12810658Y-16685174D02*
X12829705Y-16675650D01*
X12829705Y-16675650D02*
X12858277Y-16675650D01*
X12858277Y-16675650D02*
X12877324Y-16685174D01*
X12877324Y-16685174D02*
X12886848Y-16704222D01*
X12886848Y-16704222D02*
X12886848Y-16808984D01*
X12982086Y-16808984D02*
X12982086Y-16675650D01*
X12982086Y-16694698D02*
X12991610Y-16685174D01*
X12991610Y-16685174D02*
X13010658Y-16675650D01*
X13010658Y-16675650D02*
X13039229Y-16675650D01*
X13039229Y-16675650D02*
X13058277Y-16685174D01*
X13058277Y-16685174D02*
X13067801Y-16704222D01*
X13067801Y-16704222D02*
X13067801Y-16808984D01*
X13067801Y-16704222D02*
X13077324Y-16685174D01*
X13077324Y-16685174D02*
X13096372Y-16675650D01*
X13096372Y-16675650D02*
X13124943Y-16675650D01*
X13124943Y-16675650D02*
X13143991Y-16685174D01*
X13143991Y-16685174D02*
X13153515Y-16704222D01*
X13153515Y-16704222D02*
X13153515Y-16808984D01*
X13543991Y-16599460D02*
X13372563Y-16856603D01*
X13801134Y-16608984D02*
X13820182Y-16608984D01*
X13820182Y-16608984D02*
X13839229Y-16618508D01*
X13839229Y-16618508D02*
X13848753Y-16628031D01*
X13848753Y-16628031D02*
X13858277Y-16647079D01*
X13858277Y-16647079D02*
X13867801Y-16685174D01*
X13867801Y-16685174D02*
X13867801Y-16732793D01*
X13867801Y-16732793D02*
X13858277Y-16770888D01*
X13858277Y-16770888D02*
X13848753Y-16789936D01*
X13848753Y-16789936D02*
X13839229Y-16799460D01*
X13839229Y-16799460D02*
X13820182Y-16808984D01*
X13820182Y-16808984D02*
X13801134Y-16808984D01*
X13801134Y-16808984D02*
X13782086Y-16799460D01*
X13782086Y-16799460D02*
X13772563Y-16789936D01*
X13772563Y-16789936D02*
X13763039Y-16770888D01*
X13763039Y-16770888D02*
X13753515Y-16732793D01*
X13753515Y-16732793D02*
X13753515Y-16685174D01*
X13753515Y-16685174D02*
X13763039Y-16647079D01*
X13763039Y-16647079D02*
X13772563Y-16628031D01*
X13772563Y-16628031D02*
X13782086Y-16618508D01*
X13782086Y-16618508D02*
X13801134Y-16608984D01*
X13953515Y-16789936D02*
X13963039Y-16799460D01*
X13963039Y-16799460D02*
X13953515Y-16808984D01*
X13953515Y-16808984D02*
X13943991Y-16799460D01*
X13943991Y-16799460D02*
X13953515Y-16789936D01*
X13953515Y-16789936D02*
X13953515Y-16808984D01*
X14153515Y-16808984D02*
X14039229Y-16808984D01*
X14096372Y-16808984D02*
X14096372Y-16608984D01*
X14096372Y-16608984D02*
X14077325Y-16637555D01*
X14077325Y-16637555D02*
X14058277Y-16656603D01*
X14058277Y-16656603D02*
X14039229Y-16666127D01*
X14229706Y-16628031D02*
X14239229Y-16618508D01*
X14239229Y-16618508D02*
X14258277Y-16608984D01*
X14258277Y-16608984D02*
X14305896Y-16608984D01*
X14305896Y-16608984D02*
X14324944Y-16618508D01*
X14324944Y-16618508D02*
X14334467Y-16628031D01*
X14334467Y-16628031D02*
X14343991Y-16647079D01*
X14343991Y-16647079D02*
X14343991Y-16666127D01*
X14343991Y-16666127D02*
X14334467Y-16694698D01*
X14334467Y-16694698D02*
X14220182Y-16808984D01*
X14220182Y-16808984D02*
X14343991Y-16808984D01*
X14515420Y-16608984D02*
X14477325Y-16608984D01*
X14477325Y-16608984D02*
X14458277Y-16618508D01*
X14458277Y-16618508D02*
X14448753Y-16628031D01*
X14448753Y-16628031D02*
X14429706Y-16656603D01*
X14429706Y-16656603D02*
X14420182Y-16694698D01*
X14420182Y-16694698D02*
X14420182Y-16770888D01*
X14420182Y-16770888D02*
X14429706Y-16789936D01*
X14429706Y-16789936D02*
X14439229Y-16799460D01*
X14439229Y-16799460D02*
X14458277Y-16808984D01*
X14458277Y-16808984D02*
X14496372Y-16808984D01*
X14496372Y-16808984D02*
X14515420Y-16799460D01*
X14515420Y-16799460D02*
X14524944Y-16789936D01*
X14524944Y-16789936D02*
X14534467Y-16770888D01*
X14534467Y-16770888D02*
X14534467Y-16723269D01*
X14534467Y-16723269D02*
X14524944Y-16704222D01*
X14524944Y-16704222D02*
X14515420Y-16694698D01*
X14515420Y-16694698D02*
X14496372Y-16685174D01*
X14496372Y-16685174D02*
X14458277Y-16685174D01*
X14458277Y-16685174D02*
X14439229Y-16694698D01*
X14439229Y-16694698D02*
X14429706Y-16704222D01*
X14429706Y-16704222D02*
X14420182Y-16723269D01*
X14658277Y-16608984D02*
X14677325Y-16608984D01*
X14677325Y-16608984D02*
X14696372Y-16618508D01*
X14696372Y-16618508D02*
X14705896Y-16628031D01*
X14705896Y-16628031D02*
X14715420Y-16647079D01*
X14715420Y-16647079D02*
X14724944Y-16685174D01*
X14724944Y-16685174D02*
X14724944Y-16732793D01*
X14724944Y-16732793D02*
X14715420Y-16770888D01*
X14715420Y-16770888D02*
X14705896Y-16789936D01*
X14705896Y-16789936D02*
X14696372Y-16799460D01*
X14696372Y-16799460D02*
X14677325Y-16808984D01*
X14677325Y-16808984D02*
X14658277Y-16808984D01*
X14658277Y-16808984D02*
X14639229Y-16799460D01*
X14639229Y-16799460D02*
X14629706Y-16789936D01*
X14629706Y-16789936D02*
X14620182Y-16770888D01*
X14620182Y-16770888D02*
X14610658Y-16732793D01*
X14610658Y-16732793D02*
X14610658Y-16685174D01*
X14610658Y-16685174D02*
X14620182Y-16647079D01*
X14620182Y-16647079D02*
X14629706Y-16628031D01*
X14629706Y-16628031D02*
X14639229Y-16618508D01*
X14639229Y-16618508D02*
X14658277Y-16608984D01*
X14801134Y-16608984D02*
X14801134Y-16647079D01*
X14877325Y-16608984D02*
X14877325Y-16647079D01*
X15172563Y-16885174D02*
X15163039Y-16875650D01*
X15163039Y-16875650D02*
X15143991Y-16847079D01*
X15143991Y-16847079D02*
X15134468Y-16828031D01*
X15134468Y-16828031D02*
X15124944Y-16799460D01*
X15124944Y-16799460D02*
X15115420Y-16751841D01*
X15115420Y-16751841D02*
X15115420Y-16713746D01*
X15115420Y-16713746D02*
X15124944Y-16666127D01*
X15124944Y-16666127D02*
X15134468Y-16637555D01*
X15134468Y-16637555D02*
X15143991Y-16618508D01*
X15143991Y-16618508D02*
X15163039Y-16589936D01*
X15163039Y-16589936D02*
X15172563Y-16580412D01*
X15239229Y-16628031D02*
X15248753Y-16618508D01*
X15248753Y-16618508D02*
X15267801Y-16608984D01*
X15267801Y-16608984D02*
X15315420Y-16608984D01*
X15315420Y-16608984D02*
X15334468Y-16618508D01*
X15334468Y-16618508D02*
X15343991Y-16628031D01*
X15343991Y-16628031D02*
X15353515Y-16647079D01*
X15353515Y-16647079D02*
X15353515Y-16666127D01*
X15353515Y-16666127D02*
X15343991Y-16694698D01*
X15343991Y-16694698D02*
X15229706Y-16808984D01*
X15229706Y-16808984D02*
X15353515Y-16808984D01*
X15591610Y-16808984D02*
X15591610Y-16608984D01*
X15677325Y-16808984D02*
X15677325Y-16704222D01*
X15677325Y-16704222D02*
X15667801Y-16685174D01*
X15667801Y-16685174D02*
X15648753Y-16675650D01*
X15648753Y-16675650D02*
X15620182Y-16675650D01*
X15620182Y-16675650D02*
X15601134Y-16685174D01*
X15601134Y-16685174D02*
X15591610Y-16694698D01*
X15801134Y-16808984D02*
X15782087Y-16799460D01*
X15782087Y-16799460D02*
X15772563Y-16789936D01*
X15772563Y-16789936D02*
X15763039Y-16770888D01*
X15763039Y-16770888D02*
X15763039Y-16713746D01*
X15763039Y-16713746D02*
X15772563Y-16694698D01*
X15772563Y-16694698D02*
X15782087Y-16685174D01*
X15782087Y-16685174D02*
X15801134Y-16675650D01*
X15801134Y-16675650D02*
X15829706Y-16675650D01*
X15829706Y-16675650D02*
X15848753Y-16685174D01*
X15848753Y-16685174D02*
X15858277Y-16694698D01*
X15858277Y-16694698D02*
X15867801Y-16713746D01*
X15867801Y-16713746D02*
X15867801Y-16770888D01*
X15867801Y-16770888D02*
X15858277Y-16789936D01*
X15858277Y-16789936D02*
X15848753Y-16799460D01*
X15848753Y-16799460D02*
X15829706Y-16808984D01*
X15829706Y-16808984D02*
X15801134Y-16808984D01*
X15982087Y-16808984D02*
X15963039Y-16799460D01*
X15963039Y-16799460D02*
X15953515Y-16780412D01*
X15953515Y-16780412D02*
X15953515Y-16608984D01*
X16134468Y-16799460D02*
X16115420Y-16808984D01*
X16115420Y-16808984D02*
X16077325Y-16808984D01*
X16077325Y-16808984D02*
X16058277Y-16799460D01*
X16058277Y-16799460D02*
X16048753Y-16780412D01*
X16048753Y-16780412D02*
X16048753Y-16704222D01*
X16048753Y-16704222D02*
X16058277Y-16685174D01*
X16058277Y-16685174D02*
X16077325Y-16675650D01*
X16077325Y-16675650D02*
X16115420Y-16675650D01*
X16115420Y-16675650D02*
X16134468Y-16685174D01*
X16134468Y-16685174D02*
X16143991Y-16704222D01*
X16143991Y-16704222D02*
X16143991Y-16723269D01*
X16143991Y-16723269D02*
X16048753Y-16742317D01*
X16220182Y-16799460D02*
X16239230Y-16808984D01*
X16239230Y-16808984D02*
X16277325Y-16808984D01*
X16277325Y-16808984D02*
X16296372Y-16799460D01*
X16296372Y-16799460D02*
X16305896Y-16780412D01*
X16305896Y-16780412D02*
X16305896Y-16770888D01*
X16305896Y-16770888D02*
X16296372Y-16751841D01*
X16296372Y-16751841D02*
X16277325Y-16742317D01*
X16277325Y-16742317D02*
X16248753Y-16742317D01*
X16248753Y-16742317D02*
X16229706Y-16732793D01*
X16229706Y-16732793D02*
X16220182Y-16713746D01*
X16220182Y-16713746D02*
X16220182Y-16704222D01*
X16220182Y-16704222D02*
X16229706Y-16685174D01*
X16229706Y-16685174D02*
X16248753Y-16675650D01*
X16248753Y-16675650D02*
X16277325Y-16675650D01*
X16277325Y-16675650D02*
X16296372Y-16685174D01*
X16372563Y-16885174D02*
X16382087Y-16875650D01*
X16382087Y-16875650D02*
X16401134Y-16847079D01*
X16401134Y-16847079D02*
X16410658Y-16828031D01*
X16410658Y-16828031D02*
X16420182Y-16799460D01*
X16420182Y-16799460D02*
X16429706Y-16751841D01*
X16429706Y-16751841D02*
X16429706Y-16713746D01*
X16429706Y-16713746D02*
X16420182Y-16666127D01*
X16420182Y-16666127D02*
X16410658Y-16637555D01*
X16410658Y-16637555D02*
X16401134Y-16618508D01*
X16401134Y-16618508D02*
X16382087Y-16589936D01*
X16382087Y-16589936D02*
X16372563Y-16580412D01*
X16734468Y-16885174D02*
X16724944Y-16875650D01*
X16724944Y-16875650D02*
X16705896Y-16847079D01*
X16705896Y-16847079D02*
X16696372Y-16828031D01*
X16696372Y-16828031D02*
X16686849Y-16799460D01*
X16686849Y-16799460D02*
X16677325Y-16751841D01*
X16677325Y-16751841D02*
X16677325Y-16713746D01*
X16677325Y-16713746D02*
X16686849Y-16666127D01*
X16686849Y-16666127D02*
X16696372Y-16637555D01*
X16696372Y-16637555D02*
X16705896Y-16618508D01*
X16705896Y-16618508D02*
X16724944Y-16589936D01*
X16724944Y-16589936D02*
X16734468Y-16580412D01*
X16810658Y-16675650D02*
X16810658Y-16808984D01*
X16810658Y-16694698D02*
X16820182Y-16685174D01*
X16820182Y-16685174D02*
X16839230Y-16675650D01*
X16839230Y-16675650D02*
X16867801Y-16675650D01*
X16867801Y-16675650D02*
X16886849Y-16685174D01*
X16886849Y-16685174D02*
X16896373Y-16704222D01*
X16896373Y-16704222D02*
X16896373Y-16808984D01*
X17020182Y-16808984D02*
X17001134Y-16799460D01*
X17001134Y-16799460D02*
X16991611Y-16789936D01*
X16991611Y-16789936D02*
X16982087Y-16770888D01*
X16982087Y-16770888D02*
X16982087Y-16713746D01*
X16982087Y-16713746D02*
X16991611Y-16694698D01*
X16991611Y-16694698D02*
X17001134Y-16685174D01*
X17001134Y-16685174D02*
X17020182Y-16675650D01*
X17020182Y-16675650D02*
X17048754Y-16675650D01*
X17048754Y-16675650D02*
X17067801Y-16685174D01*
X17067801Y-16685174D02*
X17077325Y-16694698D01*
X17077325Y-16694698D02*
X17086849Y-16713746D01*
X17086849Y-16713746D02*
X17086849Y-16770888D01*
X17086849Y-16770888D02*
X17077325Y-16789936D01*
X17077325Y-16789936D02*
X17067801Y-16799460D01*
X17067801Y-16799460D02*
X17048754Y-16808984D01*
X17048754Y-16808984D02*
X17020182Y-16808984D01*
X17143992Y-16675650D02*
X17220182Y-16675650D01*
X17172563Y-16608984D02*
X17172563Y-16780412D01*
X17172563Y-16780412D02*
X17182087Y-16799460D01*
X17182087Y-16799460D02*
X17201134Y-16808984D01*
X17201134Y-16808984D02*
X17220182Y-16808984D01*
X17439230Y-16675650D02*
X17439230Y-16875650D01*
X17439230Y-16685174D02*
X17458277Y-16675650D01*
X17458277Y-16675650D02*
X17496373Y-16675650D01*
X17496373Y-16675650D02*
X17515420Y-16685174D01*
X17515420Y-16685174D02*
X17524944Y-16694698D01*
X17524944Y-16694698D02*
X17534468Y-16713746D01*
X17534468Y-16713746D02*
X17534468Y-16770888D01*
X17534468Y-16770888D02*
X17524944Y-16789936D01*
X17524944Y-16789936D02*
X17515420Y-16799460D01*
X17515420Y-16799460D02*
X17496373Y-16808984D01*
X17496373Y-16808984D02*
X17458277Y-16808984D01*
X17458277Y-16808984D02*
X17439230Y-16799460D01*
X17648754Y-16808984D02*
X17629706Y-16799460D01*
X17629706Y-16799460D02*
X17620182Y-16780412D01*
X17620182Y-16780412D02*
X17620182Y-16608984D01*
X17810658Y-16808984D02*
X17810658Y-16704222D01*
X17810658Y-16704222D02*
X17801135Y-16685174D01*
X17801135Y-16685174D02*
X17782087Y-16675650D01*
X17782087Y-16675650D02*
X17743992Y-16675650D01*
X17743992Y-16675650D02*
X17724944Y-16685174D01*
X17810658Y-16799460D02*
X17791611Y-16808984D01*
X17791611Y-16808984D02*
X17743992Y-16808984D01*
X17743992Y-16808984D02*
X17724944Y-16799460D01*
X17724944Y-16799460D02*
X17715420Y-16780412D01*
X17715420Y-16780412D02*
X17715420Y-16761365D01*
X17715420Y-16761365D02*
X17724944Y-16742317D01*
X17724944Y-16742317D02*
X17743992Y-16732793D01*
X17743992Y-16732793D02*
X17791611Y-16732793D01*
X17791611Y-16732793D02*
X17810658Y-16723269D01*
X17877325Y-16675650D02*
X17953515Y-16675650D01*
X17905896Y-16608984D02*
X17905896Y-16780412D01*
X17905896Y-16780412D02*
X17915420Y-16799460D01*
X17915420Y-16799460D02*
X17934468Y-16808984D01*
X17934468Y-16808984D02*
X17953515Y-16808984D01*
X18096373Y-16799460D02*
X18077325Y-16808984D01*
X18077325Y-16808984D02*
X18039230Y-16808984D01*
X18039230Y-16808984D02*
X18020182Y-16799460D01*
X18020182Y-16799460D02*
X18010658Y-16780412D01*
X18010658Y-16780412D02*
X18010658Y-16704222D01*
X18010658Y-16704222D02*
X18020182Y-16685174D01*
X18020182Y-16685174D02*
X18039230Y-16675650D01*
X18039230Y-16675650D02*
X18077325Y-16675650D01*
X18077325Y-16675650D02*
X18096373Y-16685174D01*
X18096373Y-16685174D02*
X18105896Y-16704222D01*
X18105896Y-16704222D02*
X18105896Y-16723269D01*
X18105896Y-16723269D02*
X18010658Y-16742317D01*
X18277325Y-16808984D02*
X18277325Y-16608984D01*
X18277325Y-16799460D02*
X18258277Y-16808984D01*
X18258277Y-16808984D02*
X18220182Y-16808984D01*
X18220182Y-16808984D02*
X18201135Y-16799460D01*
X18201135Y-16799460D02*
X18191611Y-16789936D01*
X18191611Y-16789936D02*
X18182087Y-16770888D01*
X18182087Y-16770888D02*
X18182087Y-16713746D01*
X18182087Y-16713746D02*
X18191611Y-16694698D01*
X18191611Y-16694698D02*
X18201135Y-16685174D01*
X18201135Y-16685174D02*
X18220182Y-16675650D01*
X18220182Y-16675650D02*
X18258277Y-16675650D01*
X18258277Y-16675650D02*
X18277325Y-16685174D01*
X18353516Y-16885174D02*
X18363039Y-16875650D01*
X18363039Y-16875650D02*
X18382087Y-16847079D01*
X18382087Y-16847079D02*
X18391611Y-16828031D01*
X18391611Y-16828031D02*
X18401135Y-16799460D01*
X18401135Y-16799460D02*
X18410658Y-16751841D01*
X18410658Y-16751841D02*
X18410658Y-16713746D01*
X18410658Y-16713746D02*
X18401135Y-16666127D01*
X18401135Y-16666127D02*
X18391611Y-16637555D01*
X18391611Y-16637555D02*
X18382087Y-16618508D01*
X18382087Y-16618508D02*
X18363039Y-16589936D01*
X18363039Y-16589936D02*
X18353516Y-16580412D01*
M02*
