G04 #@! TF.GenerationSoftware,KiCad,Pcbnew,9.0.7*
G04 #@! TF.CreationDate,2026-05-14T17:59:11+01:00*
G04 #@! TF.ProjectId,Pointy R1 Flight controller,506f696e-7479-4205-9231-20466c696768,rev?*
G04 #@! TF.SameCoordinates,Original*
G04 #@! TF.FileFunction,Legend,Top*
G04 #@! TF.FilePolarity,Positive*
%FSLAX46Y46*%
G04 Gerber Fmt 4.6, Leading zero omitted, Abs format (unit mm)*
G04 Created by KiCad (PCBNEW 9.0.7) date 2026-05-14 17:59:11*
%MOMM*%
%LPD*%
G01*
G04 APERTURE LIST*
G04 Aperture macros list*
%AMRoundRect*
0 Rectangle with rounded corners*
0 $1 Rounding radius*
0 $2 $3 $4 $5 $6 $7 $8 $9 X,Y pos of 4 corners*
0 Add a 4 corners polygon primitive as box body*
4,1,4,$2,$3,$4,$5,$6,$7,$8,$9,$2,$3,0*
0 Add four circle primitives for the rounded corners*
1,1,$1+$1,$2,$3*
1,1,$1+$1,$4,$5*
1,1,$1+$1,$6,$7*
1,1,$1+$1,$8,$9*
0 Add four rect primitives between the rounded corners*
20,1,$1+$1,$2,$3,$4,$5,0*
20,1,$1+$1,$4,$5,$6,$7,0*
20,1,$1+$1,$6,$7,$8,$9,0*
20,1,$1+$1,$8,$9,$2,$3,0*%
G04 Aperture macros list end*
%ADD10C,0.150000*%
%ADD11C,0.120000*%
%ADD12C,0.127000*%
%ADD13C,0.200000*%
%ADD14C,0.152400*%
%ADD15C,0.100000*%
%ADD16RoundRect,0.250000X-0.262500X-0.450000X0.262500X-0.450000X0.262500X0.450000X-0.262500X0.450000X0*%
%ADD17R,2.200000X2.200000*%
%ADD18O,2.200000X2.200000*%
%ADD19RoundRect,0.102000X-0.825000X-0.825000X0.825000X-0.825000X0.825000X0.825000X-0.825000X0.825000X0*%
%ADD20C,1.854000*%
%ADD21RoundRect,0.102000X0.754000X-0.754000X0.754000X0.754000X-0.754000X0.754000X-0.754000X-0.754000X0*%
%ADD22C,1.712000*%
%ADD23C,2.454000*%
%ADD24RoundRect,0.102000X-1.125000X-1.125000X1.125000X-1.125000X1.125000X1.125000X-1.125000X1.125000X0*%
%ADD25RoundRect,0.250000X0.262500X0.450000X-0.262500X0.450000X-0.262500X-0.450000X0.262500X-0.450000X0*%
%ADD26R,1.244600X0.939800*%
%ADD27C,1.869000*%
%ADD28R,1.041400X3.505200*%
%ADD29R,10.718800X7.696200*%
%ADD30C,3.200000*%
%ADD31C,2.109000*%
%ADD32RoundRect,0.250000X-0.250000X-0.475000X0.250000X-0.475000X0.250000X0.475000X-0.250000X0.475000X0*%
%ADD33RoundRect,0.102000X0.825000X0.825000X-0.825000X0.825000X-0.825000X-0.825000X0.825000X-0.825000X0*%
%ADD34R,1.700000X1.700000*%
%ADD35C,1.700000*%
%ADD36RoundRect,0.250000X-0.475000X0.250000X-0.475000X-0.250000X0.475000X-0.250000X0.475000X0.250000X0*%
%ADD37RoundRect,0.102000X0.825000X-0.825000X0.825000X0.825000X-0.825000X0.825000X-0.825000X-0.825000X0*%
%ADD38C,1.800000*%
%ADD39C,2.204000*%
%ADD40RoundRect,0.102000X1.000000X-1.000000X1.000000X1.000000X-1.000000X1.000000X-1.000000X-1.000000X0*%
%ADD41C,6.204000*%
%ADD42RoundRect,0.102000X3.000000X-3.000000X3.000000X3.000000X-3.000000X3.000000X-3.000000X-3.000000X0*%
%ADD43RoundRect,0.102000X-0.955000X0.955000X-0.955000X-0.955000X0.955000X-0.955000X0.955000X0.955000X0*%
%ADD44C,2.114000*%
G04 APERTURE END LIST*
D10*
X156629819Y-82916666D02*
X156153628Y-83249999D01*
X156629819Y-83488094D02*
X155629819Y-83488094D01*
X155629819Y-83488094D02*
X155629819Y-83107142D01*
X155629819Y-83107142D02*
X155677438Y-83011904D01*
X155677438Y-83011904D02*
X155725057Y-82964285D01*
X155725057Y-82964285D02*
X155820295Y-82916666D01*
X155820295Y-82916666D02*
X155963152Y-82916666D01*
X155963152Y-82916666D02*
X156058390Y-82964285D01*
X156058390Y-82964285D02*
X156106009Y-83011904D01*
X156106009Y-83011904D02*
X156153628Y-83107142D01*
X156153628Y-83107142D02*
X156153628Y-83488094D01*
X156058390Y-82345237D02*
X156010771Y-82440475D01*
X156010771Y-82440475D02*
X155963152Y-82488094D01*
X155963152Y-82488094D02*
X155867914Y-82535713D01*
X155867914Y-82535713D02*
X155820295Y-82535713D01*
X155820295Y-82535713D02*
X155725057Y-82488094D01*
X155725057Y-82488094D02*
X155677438Y-82440475D01*
X155677438Y-82440475D02*
X155629819Y-82345237D01*
X155629819Y-82345237D02*
X155629819Y-82154761D01*
X155629819Y-82154761D02*
X155677438Y-82059523D01*
X155677438Y-82059523D02*
X155725057Y-82011904D01*
X155725057Y-82011904D02*
X155820295Y-81964285D01*
X155820295Y-81964285D02*
X155867914Y-81964285D01*
X155867914Y-81964285D02*
X155963152Y-82011904D01*
X155963152Y-82011904D02*
X156010771Y-82059523D01*
X156010771Y-82059523D02*
X156058390Y-82154761D01*
X156058390Y-82154761D02*
X156058390Y-82345237D01*
X156058390Y-82345237D02*
X156106009Y-82440475D01*
X156106009Y-82440475D02*
X156153628Y-82488094D01*
X156153628Y-82488094D02*
X156248866Y-82535713D01*
X156248866Y-82535713D02*
X156439342Y-82535713D01*
X156439342Y-82535713D02*
X156534580Y-82488094D01*
X156534580Y-82488094D02*
X156582200Y-82440475D01*
X156582200Y-82440475D02*
X156629819Y-82345237D01*
X156629819Y-82345237D02*
X156629819Y-82154761D01*
X156629819Y-82154761D02*
X156582200Y-82059523D01*
X156582200Y-82059523D02*
X156534580Y-82011904D01*
X156534580Y-82011904D02*
X156439342Y-81964285D01*
X156439342Y-81964285D02*
X156248866Y-81964285D01*
X156248866Y-81964285D02*
X156153628Y-82011904D01*
X156153628Y-82011904D02*
X156106009Y-82059523D01*
X156106009Y-82059523D02*
X156058390Y-82154761D01*
X139704819Y-141229394D02*
X138704819Y-141229394D01*
X138704819Y-141229394D02*
X138704819Y-140991299D01*
X138704819Y-140991299D02*
X138752438Y-140848442D01*
X138752438Y-140848442D02*
X138847676Y-140753204D01*
X138847676Y-140753204D02*
X138942914Y-140705585D01*
X138942914Y-140705585D02*
X139133390Y-140657966D01*
X139133390Y-140657966D02*
X139276247Y-140657966D01*
X139276247Y-140657966D02*
X139466723Y-140705585D01*
X139466723Y-140705585D02*
X139561961Y-140753204D01*
X139561961Y-140753204D02*
X139657200Y-140848442D01*
X139657200Y-140848442D02*
X139704819Y-140991299D01*
X139704819Y-140991299D02*
X139704819Y-141229394D01*
X138704819Y-140324632D02*
X138704819Y-139705585D01*
X138704819Y-139705585D02*
X139085771Y-140038918D01*
X139085771Y-140038918D02*
X139085771Y-139896061D01*
X139085771Y-139896061D02*
X139133390Y-139800823D01*
X139133390Y-139800823D02*
X139181009Y-139753204D01*
X139181009Y-139753204D02*
X139276247Y-139705585D01*
X139276247Y-139705585D02*
X139514342Y-139705585D01*
X139514342Y-139705585D02*
X139609580Y-139753204D01*
X139609580Y-139753204D02*
X139657200Y-139800823D01*
X139657200Y-139800823D02*
X139704819Y-139896061D01*
X139704819Y-139896061D02*
X139704819Y-140181775D01*
X139704819Y-140181775D02*
X139657200Y-140277013D01*
X139657200Y-140277013D02*
X139609580Y-140324632D01*
X148133144Y-151252118D02*
X148133144Y-150250079D01*
X148133144Y-150250079D02*
X148514873Y-150250079D01*
X148514873Y-150250079D02*
X148610306Y-150297795D01*
X148610306Y-150297795D02*
X148658022Y-150345511D01*
X148658022Y-150345511D02*
X148705738Y-150440943D01*
X148705738Y-150440943D02*
X148705738Y-150584092D01*
X148705738Y-150584092D02*
X148658022Y-150679524D01*
X148658022Y-150679524D02*
X148610306Y-150727240D01*
X148610306Y-150727240D02*
X148514873Y-150774956D01*
X148514873Y-150774956D02*
X148133144Y-150774956D01*
X149087467Y-150345511D02*
X149135183Y-150297795D01*
X149135183Y-150297795D02*
X149230616Y-150250079D01*
X149230616Y-150250079D02*
X149469196Y-150250079D01*
X149469196Y-150250079D02*
X149564629Y-150297795D01*
X149564629Y-150297795D02*
X149612345Y-150345511D01*
X149612345Y-150345511D02*
X149660061Y-150440943D01*
X149660061Y-150440943D02*
X149660061Y-150536376D01*
X149660061Y-150536376D02*
X149612345Y-150679524D01*
X149612345Y-150679524D02*
X149039751Y-151252118D01*
X149039751Y-151252118D02*
X149660061Y-151252118D01*
X117738095Y-129907200D02*
X117880952Y-129954819D01*
X117880952Y-129954819D02*
X118119047Y-129954819D01*
X118119047Y-129954819D02*
X118214285Y-129907200D01*
X118214285Y-129907200D02*
X118261904Y-129859580D01*
X118261904Y-129859580D02*
X118309523Y-129764342D01*
X118309523Y-129764342D02*
X118309523Y-129669104D01*
X118309523Y-129669104D02*
X118261904Y-129573866D01*
X118261904Y-129573866D02*
X118214285Y-129526247D01*
X118214285Y-129526247D02*
X118119047Y-129478628D01*
X118119047Y-129478628D02*
X117928571Y-129431009D01*
X117928571Y-129431009D02*
X117833333Y-129383390D01*
X117833333Y-129383390D02*
X117785714Y-129335771D01*
X117785714Y-129335771D02*
X117738095Y-129240533D01*
X117738095Y-129240533D02*
X117738095Y-129145295D01*
X117738095Y-129145295D02*
X117785714Y-129050057D01*
X117785714Y-129050057D02*
X117833333Y-129002438D01*
X117833333Y-129002438D02*
X117928571Y-128954819D01*
X117928571Y-128954819D02*
X118166666Y-128954819D01*
X118166666Y-128954819D02*
X118309523Y-129002438D01*
X118690476Y-129050057D02*
X118738095Y-129002438D01*
X118738095Y-129002438D02*
X118833333Y-128954819D01*
X118833333Y-128954819D02*
X119071428Y-128954819D01*
X119071428Y-128954819D02*
X119166666Y-129002438D01*
X119166666Y-129002438D02*
X119214285Y-129050057D01*
X119214285Y-129050057D02*
X119261904Y-129145295D01*
X119261904Y-129145295D02*
X119261904Y-129240533D01*
X119261904Y-129240533D02*
X119214285Y-129383390D01*
X119214285Y-129383390D02*
X118642857Y-129954819D01*
X118642857Y-129954819D02*
X119261904Y-129954819D01*
X143454819Y-95238094D02*
X142454819Y-95238094D01*
X142454819Y-95238094D02*
X142454819Y-94999999D01*
X142454819Y-94999999D02*
X142502438Y-94857142D01*
X142502438Y-94857142D02*
X142597676Y-94761904D01*
X142597676Y-94761904D02*
X142692914Y-94714285D01*
X142692914Y-94714285D02*
X142883390Y-94666666D01*
X142883390Y-94666666D02*
X143026247Y-94666666D01*
X143026247Y-94666666D02*
X143216723Y-94714285D01*
X143216723Y-94714285D02*
X143311961Y-94761904D01*
X143311961Y-94761904D02*
X143407200Y-94857142D01*
X143407200Y-94857142D02*
X143454819Y-94999999D01*
X143454819Y-94999999D02*
X143454819Y-95238094D01*
X142550057Y-94285713D02*
X142502438Y-94238094D01*
X142502438Y-94238094D02*
X142454819Y-94142856D01*
X142454819Y-94142856D02*
X142454819Y-93904761D01*
X142454819Y-93904761D02*
X142502438Y-93809523D01*
X142502438Y-93809523D02*
X142550057Y-93761904D01*
X142550057Y-93761904D02*
X142645295Y-93714285D01*
X142645295Y-93714285D02*
X142740533Y-93714285D01*
X142740533Y-93714285D02*
X142883390Y-93761904D01*
X142883390Y-93761904D02*
X143454819Y-94333332D01*
X143454819Y-94333332D02*
X143454819Y-93714285D01*
X152111905Y-91069819D02*
X152111905Y-90069819D01*
X152111905Y-90069819D02*
X152350000Y-90069819D01*
X152350000Y-90069819D02*
X152492857Y-90117438D01*
X152492857Y-90117438D02*
X152588095Y-90212676D01*
X152588095Y-90212676D02*
X152635714Y-90307914D01*
X152635714Y-90307914D02*
X152683333Y-90498390D01*
X152683333Y-90498390D02*
X152683333Y-90641247D01*
X152683333Y-90641247D02*
X152635714Y-90831723D01*
X152635714Y-90831723D02*
X152588095Y-90926961D01*
X152588095Y-90926961D02*
X152492857Y-91022200D01*
X152492857Y-91022200D02*
X152350000Y-91069819D01*
X152350000Y-91069819D02*
X152111905Y-91069819D01*
X153635714Y-91069819D02*
X153064286Y-91069819D01*
X153350000Y-91069819D02*
X153350000Y-90069819D01*
X153350000Y-90069819D02*
X153254762Y-90212676D01*
X153254762Y-90212676D02*
X153159524Y-90307914D01*
X153159524Y-90307914D02*
X153064286Y-90355533D01*
X149266419Y-99016667D02*
X148790228Y-99350000D01*
X149266419Y-99588095D02*
X148266419Y-99588095D01*
X148266419Y-99588095D02*
X148266419Y-99207143D01*
X148266419Y-99207143D02*
X148314038Y-99111905D01*
X148314038Y-99111905D02*
X148361657Y-99064286D01*
X148361657Y-99064286D02*
X148456895Y-99016667D01*
X148456895Y-99016667D02*
X148599752Y-99016667D01*
X148599752Y-99016667D02*
X148694990Y-99064286D01*
X148694990Y-99064286D02*
X148742609Y-99111905D01*
X148742609Y-99111905D02*
X148790228Y-99207143D01*
X148790228Y-99207143D02*
X148790228Y-99588095D01*
X148361657Y-98635714D02*
X148314038Y-98588095D01*
X148314038Y-98588095D02*
X148266419Y-98492857D01*
X148266419Y-98492857D02*
X148266419Y-98254762D01*
X148266419Y-98254762D02*
X148314038Y-98159524D01*
X148314038Y-98159524D02*
X148361657Y-98111905D01*
X148361657Y-98111905D02*
X148456895Y-98064286D01*
X148456895Y-98064286D02*
X148552133Y-98064286D01*
X148552133Y-98064286D02*
X148694990Y-98111905D01*
X148694990Y-98111905D02*
X149266419Y-98683333D01*
X149266419Y-98683333D02*
X149266419Y-98064286D01*
X145380952Y-104204819D02*
X144904762Y-104204819D01*
X144904762Y-104204819D02*
X144904762Y-103204819D01*
X145714286Y-103681009D02*
X146047619Y-103681009D01*
X146190476Y-104204819D02*
X145714286Y-104204819D01*
X145714286Y-104204819D02*
X145714286Y-103204819D01*
X145714286Y-103204819D02*
X146190476Y-103204819D01*
X146619048Y-104204819D02*
X146619048Y-103204819D01*
X146619048Y-103204819D02*
X146857143Y-103204819D01*
X146857143Y-103204819D02*
X147000000Y-103252438D01*
X147000000Y-103252438D02*
X147095238Y-103347676D01*
X147095238Y-103347676D02*
X147142857Y-103442914D01*
X147142857Y-103442914D02*
X147190476Y-103633390D01*
X147190476Y-103633390D02*
X147190476Y-103776247D01*
X147190476Y-103776247D02*
X147142857Y-103966723D01*
X147142857Y-103966723D02*
X147095238Y-104061961D01*
X147095238Y-104061961D02*
X147000000Y-104157200D01*
X147000000Y-104157200D02*
X146857143Y-104204819D01*
X146857143Y-104204819D02*
X146619048Y-104204819D01*
X148142857Y-104204819D02*
X147571429Y-104204819D01*
X147857143Y-104204819D02*
X147857143Y-103204819D01*
X147857143Y-103204819D02*
X147761905Y-103347676D01*
X147761905Y-103347676D02*
X147666667Y-103442914D01*
X147666667Y-103442914D02*
X147571429Y-103490533D01*
X143000000Y-99704819D02*
X143000000Y-99942914D01*
X142761905Y-99847676D02*
X143000000Y-99942914D01*
X143000000Y-99942914D02*
X143238095Y-99847676D01*
X142857143Y-100133390D02*
X143000000Y-99942914D01*
X143000000Y-99942914D02*
X143142857Y-100133390D01*
X143619200Y-99164920D02*
X143619200Y-99403015D01*
X143381105Y-99307777D02*
X143619200Y-99403015D01*
X143619200Y-99403015D02*
X143857295Y-99307777D01*
X143476343Y-99593491D02*
X143619200Y-99403015D01*
X143619200Y-99403015D02*
X143762057Y-99593491D01*
X130454819Y-95976189D02*
X129454819Y-95976189D01*
X130359580Y-94928571D02*
X130407200Y-94976190D01*
X130407200Y-94976190D02*
X130454819Y-95119047D01*
X130454819Y-95119047D02*
X130454819Y-95214285D01*
X130454819Y-95214285D02*
X130407200Y-95357142D01*
X130407200Y-95357142D02*
X130311961Y-95452380D01*
X130311961Y-95452380D02*
X130216723Y-95499999D01*
X130216723Y-95499999D02*
X130026247Y-95547618D01*
X130026247Y-95547618D02*
X129883390Y-95547618D01*
X129883390Y-95547618D02*
X129692914Y-95499999D01*
X129692914Y-95499999D02*
X129597676Y-95452380D01*
X129597676Y-95452380D02*
X129502438Y-95357142D01*
X129502438Y-95357142D02*
X129454819Y-95214285D01*
X129454819Y-95214285D02*
X129454819Y-95119047D01*
X129454819Y-95119047D02*
X129502438Y-94976190D01*
X129502438Y-94976190D02*
X129550057Y-94928571D01*
X130454819Y-93976190D02*
X130454819Y-94547618D01*
X130454819Y-94261904D02*
X129454819Y-94261904D01*
X129454819Y-94261904D02*
X129597676Y-94357142D01*
X129597676Y-94357142D02*
X129692914Y-94452380D01*
X129692914Y-94452380D02*
X129740533Y-94547618D01*
X117454819Y-146488094D02*
X116454819Y-146488094D01*
X116454819Y-146488094D02*
X116454819Y-146249999D01*
X116454819Y-146249999D02*
X116502438Y-146107142D01*
X116502438Y-146107142D02*
X116597676Y-146011904D01*
X116597676Y-146011904D02*
X116692914Y-145964285D01*
X116692914Y-145964285D02*
X116883390Y-145916666D01*
X116883390Y-145916666D02*
X117026247Y-145916666D01*
X117026247Y-145916666D02*
X117216723Y-145964285D01*
X117216723Y-145964285D02*
X117311961Y-146011904D01*
X117311961Y-146011904D02*
X117407200Y-146107142D01*
X117407200Y-146107142D02*
X117454819Y-146249999D01*
X117454819Y-146249999D02*
X117454819Y-146488094D01*
X116788152Y-145059523D02*
X117454819Y-145059523D01*
X116407200Y-145297618D02*
X117121485Y-145535713D01*
X117121485Y-145535713D02*
X117121485Y-144916666D01*
X145420833Y-90804819D02*
X145087500Y-90328628D01*
X144849405Y-90804819D02*
X144849405Y-89804819D01*
X144849405Y-89804819D02*
X145230357Y-89804819D01*
X145230357Y-89804819D02*
X145325595Y-89852438D01*
X145325595Y-89852438D02*
X145373214Y-89900057D01*
X145373214Y-89900057D02*
X145420833Y-89995295D01*
X145420833Y-89995295D02*
X145420833Y-90138152D01*
X145420833Y-90138152D02*
X145373214Y-90233390D01*
X145373214Y-90233390D02*
X145325595Y-90281009D01*
X145325595Y-90281009D02*
X145230357Y-90328628D01*
X145230357Y-90328628D02*
X144849405Y-90328628D01*
X145754167Y-89804819D02*
X146420833Y-89804819D01*
X146420833Y-89804819D02*
X145992262Y-90804819D01*
X139595238Y-148199942D02*
X139690476Y-148247561D01*
X139690476Y-148247561D02*
X139785714Y-148342800D01*
X139785714Y-148342800D02*
X139928571Y-148485657D01*
X139928571Y-148485657D02*
X140023809Y-148533276D01*
X140023809Y-148533276D02*
X140119047Y-148533276D01*
X140071428Y-148295180D02*
X140166666Y-148342800D01*
X140166666Y-148342800D02*
X140261904Y-148438038D01*
X140261904Y-148438038D02*
X140309523Y-148628514D01*
X140309523Y-148628514D02*
X140309523Y-148961847D01*
X140309523Y-148961847D02*
X140261904Y-149152323D01*
X140261904Y-149152323D02*
X140166666Y-149247561D01*
X140166666Y-149247561D02*
X140071428Y-149295180D01*
X140071428Y-149295180D02*
X139880952Y-149295180D01*
X139880952Y-149295180D02*
X139785714Y-149247561D01*
X139785714Y-149247561D02*
X139690476Y-149152323D01*
X139690476Y-149152323D02*
X139642857Y-148961847D01*
X139642857Y-148961847D02*
X139642857Y-148628514D01*
X139642857Y-148628514D02*
X139690476Y-148438038D01*
X139690476Y-148438038D02*
X139785714Y-148342800D01*
X139785714Y-148342800D02*
X139880952Y-148295180D01*
X139880952Y-148295180D02*
X140071428Y-148295180D01*
X138690476Y-148295180D02*
X139261904Y-148295180D01*
X138976190Y-148295180D02*
X138976190Y-149295180D01*
X138976190Y-149295180D02*
X139071428Y-149152323D01*
X139071428Y-149152323D02*
X139166666Y-149057085D01*
X139166666Y-149057085D02*
X139261904Y-149009466D01*
X136749999Y-134795180D02*
X136749999Y-134557085D01*
X136988094Y-134652323D02*
X136749999Y-134557085D01*
X136749999Y-134557085D02*
X136511904Y-134652323D01*
X136892856Y-134366609D02*
X136749999Y-134557085D01*
X136749999Y-134557085D02*
X136607142Y-134366609D01*
X157095238Y-145699942D02*
X157190476Y-145747561D01*
X157190476Y-145747561D02*
X157285714Y-145842800D01*
X157285714Y-145842800D02*
X157428571Y-145985657D01*
X157428571Y-145985657D02*
X157523809Y-146033276D01*
X157523809Y-146033276D02*
X157619047Y-146033276D01*
X157571428Y-145795180D02*
X157666666Y-145842800D01*
X157666666Y-145842800D02*
X157761904Y-145938038D01*
X157761904Y-145938038D02*
X157809523Y-146128514D01*
X157809523Y-146128514D02*
X157809523Y-146461847D01*
X157809523Y-146461847D02*
X157761904Y-146652323D01*
X157761904Y-146652323D02*
X157666666Y-146747561D01*
X157666666Y-146747561D02*
X157571428Y-146795180D01*
X157571428Y-146795180D02*
X157380952Y-146795180D01*
X157380952Y-146795180D02*
X157285714Y-146747561D01*
X157285714Y-146747561D02*
X157190476Y-146652323D01*
X157190476Y-146652323D02*
X157142857Y-146461847D01*
X157142857Y-146461847D02*
X157142857Y-146128514D01*
X157142857Y-146128514D02*
X157190476Y-145938038D01*
X157190476Y-145938038D02*
X157285714Y-145842800D01*
X157285714Y-145842800D02*
X157380952Y-145795180D01*
X157380952Y-145795180D02*
X157571428Y-145795180D01*
X156761904Y-146699942D02*
X156714285Y-146747561D01*
X156714285Y-146747561D02*
X156619047Y-146795180D01*
X156619047Y-146795180D02*
X156380952Y-146795180D01*
X156380952Y-146795180D02*
X156285714Y-146747561D01*
X156285714Y-146747561D02*
X156238095Y-146699942D01*
X156238095Y-146699942D02*
X156190476Y-146604704D01*
X156190476Y-146604704D02*
X156190476Y-146509466D01*
X156190476Y-146509466D02*
X156238095Y-146366609D01*
X156238095Y-146366609D02*
X156809523Y-145795180D01*
X156809523Y-145795180D02*
X156190476Y-145795180D01*
X153810000Y-132866119D02*
X153810000Y-133104214D01*
X153571905Y-133008976D02*
X153810000Y-133104214D01*
X153810000Y-133104214D02*
X154048095Y-133008976D01*
X153667143Y-133294690D02*
X153810000Y-133104214D01*
X153810000Y-133104214D02*
X153952857Y-133294690D01*
X153809999Y-134456480D02*
X153809999Y-134218385D01*
X154048094Y-134313623D02*
X153809999Y-134218385D01*
X153809999Y-134218385D02*
X153571904Y-134313623D01*
X153952856Y-134027909D02*
X153809999Y-134218385D01*
X153809999Y-134218385D02*
X153667142Y-134027909D01*
X146154761Y-82550057D02*
X146059523Y-82502438D01*
X146059523Y-82502438D02*
X145964285Y-82407200D01*
X145964285Y-82407200D02*
X145821428Y-82264342D01*
X145821428Y-82264342D02*
X145726190Y-82216723D01*
X145726190Y-82216723D02*
X145630952Y-82216723D01*
X145678571Y-82454819D02*
X145583333Y-82407200D01*
X145583333Y-82407200D02*
X145488095Y-82311961D01*
X145488095Y-82311961D02*
X145440476Y-82121485D01*
X145440476Y-82121485D02*
X145440476Y-81788152D01*
X145440476Y-81788152D02*
X145488095Y-81597676D01*
X145488095Y-81597676D02*
X145583333Y-81502438D01*
X145583333Y-81502438D02*
X145678571Y-81454819D01*
X145678571Y-81454819D02*
X145869047Y-81454819D01*
X145869047Y-81454819D02*
X145964285Y-81502438D01*
X145964285Y-81502438D02*
X146059523Y-81597676D01*
X146059523Y-81597676D02*
X146107142Y-81788152D01*
X146107142Y-81788152D02*
X146107142Y-82121485D01*
X146107142Y-82121485D02*
X146059523Y-82311961D01*
X146059523Y-82311961D02*
X145964285Y-82407200D01*
X145964285Y-82407200D02*
X145869047Y-82454819D01*
X145869047Y-82454819D02*
X145678571Y-82454819D01*
X146440476Y-81454819D02*
X147059523Y-81454819D01*
X147059523Y-81454819D02*
X146726190Y-81835771D01*
X146726190Y-81835771D02*
X146869047Y-81835771D01*
X146869047Y-81835771D02*
X146964285Y-81883390D01*
X146964285Y-81883390D02*
X147011904Y-81931009D01*
X147011904Y-81931009D02*
X147059523Y-82026247D01*
X147059523Y-82026247D02*
X147059523Y-82264342D01*
X147059523Y-82264342D02*
X147011904Y-82359580D01*
X147011904Y-82359580D02*
X146964285Y-82407200D01*
X146964285Y-82407200D02*
X146869047Y-82454819D01*
X146869047Y-82454819D02*
X146583333Y-82454819D01*
X146583333Y-82454819D02*
X146488095Y-82407200D01*
X146488095Y-82407200D02*
X146440476Y-82359580D01*
X140690000Y-87367119D02*
X140690000Y-87605214D01*
X140451905Y-87509976D02*
X140690000Y-87605214D01*
X140690000Y-87605214D02*
X140928095Y-87509976D01*
X140547143Y-87795690D02*
X140690000Y-87605214D01*
X140690000Y-87605214D02*
X140832857Y-87795690D01*
X149920833Y-131854819D02*
X149587500Y-131378628D01*
X149349405Y-131854819D02*
X149349405Y-130854819D01*
X149349405Y-130854819D02*
X149730357Y-130854819D01*
X149730357Y-130854819D02*
X149825595Y-130902438D01*
X149825595Y-130902438D02*
X149873214Y-130950057D01*
X149873214Y-130950057D02*
X149920833Y-131045295D01*
X149920833Y-131045295D02*
X149920833Y-131188152D01*
X149920833Y-131188152D02*
X149873214Y-131283390D01*
X149873214Y-131283390D02*
X149825595Y-131331009D01*
X149825595Y-131331009D02*
X149730357Y-131378628D01*
X149730357Y-131378628D02*
X149349405Y-131378628D01*
X150825595Y-130854819D02*
X150349405Y-130854819D01*
X150349405Y-130854819D02*
X150301786Y-131331009D01*
X150301786Y-131331009D02*
X150349405Y-131283390D01*
X150349405Y-131283390D02*
X150444643Y-131235771D01*
X150444643Y-131235771D02*
X150682738Y-131235771D01*
X150682738Y-131235771D02*
X150777976Y-131283390D01*
X150777976Y-131283390D02*
X150825595Y-131331009D01*
X150825595Y-131331009D02*
X150873214Y-131426247D01*
X150873214Y-131426247D02*
X150873214Y-131664342D01*
X150873214Y-131664342D02*
X150825595Y-131759580D01*
X150825595Y-131759580D02*
X150777976Y-131807200D01*
X150777976Y-131807200D02*
X150682738Y-131854819D01*
X150682738Y-131854819D02*
X150444643Y-131854819D01*
X150444643Y-131854819D02*
X150349405Y-131807200D01*
X150349405Y-131807200D02*
X150301786Y-131759580D01*
X150454819Y-101011904D02*
X151264342Y-101011904D01*
X151264342Y-101011904D02*
X151359580Y-100964285D01*
X151359580Y-100964285D02*
X151407200Y-100916666D01*
X151407200Y-100916666D02*
X151454819Y-100821428D01*
X151454819Y-100821428D02*
X151454819Y-100630952D01*
X151454819Y-100630952D02*
X151407200Y-100535714D01*
X151407200Y-100535714D02*
X151359580Y-100488095D01*
X151359580Y-100488095D02*
X151264342Y-100440476D01*
X151264342Y-100440476D02*
X150454819Y-100440476D01*
X150550057Y-100011904D02*
X150502438Y-99964285D01*
X150502438Y-99964285D02*
X150454819Y-99869047D01*
X150454819Y-99869047D02*
X150454819Y-99630952D01*
X150454819Y-99630952D02*
X150502438Y-99535714D01*
X150502438Y-99535714D02*
X150550057Y-99488095D01*
X150550057Y-99488095D02*
X150645295Y-99440476D01*
X150645295Y-99440476D02*
X150740533Y-99440476D01*
X150740533Y-99440476D02*
X150883390Y-99488095D01*
X150883390Y-99488095D02*
X151454819Y-100059523D01*
X151454819Y-100059523D02*
X151454819Y-99440476D01*
X146194933Y-110109580D02*
X146147314Y-110157200D01*
X146147314Y-110157200D02*
X146004457Y-110204819D01*
X146004457Y-110204819D02*
X145909219Y-110204819D01*
X145909219Y-110204819D02*
X145766362Y-110157200D01*
X145766362Y-110157200D02*
X145671124Y-110061961D01*
X145671124Y-110061961D02*
X145623505Y-109966723D01*
X145623505Y-109966723D02*
X145575886Y-109776247D01*
X145575886Y-109776247D02*
X145575886Y-109633390D01*
X145575886Y-109633390D02*
X145623505Y-109442914D01*
X145623505Y-109442914D02*
X145671124Y-109347676D01*
X145671124Y-109347676D02*
X145766362Y-109252438D01*
X145766362Y-109252438D02*
X145909219Y-109204819D01*
X145909219Y-109204819D02*
X146004457Y-109204819D01*
X146004457Y-109204819D02*
X146147314Y-109252438D01*
X146147314Y-109252438D02*
X146194933Y-109300057D01*
X146528267Y-109204819D02*
X147147314Y-109204819D01*
X147147314Y-109204819D02*
X146813981Y-109585771D01*
X146813981Y-109585771D02*
X146956838Y-109585771D01*
X146956838Y-109585771D02*
X147052076Y-109633390D01*
X147052076Y-109633390D02*
X147099695Y-109681009D01*
X147099695Y-109681009D02*
X147147314Y-109776247D01*
X147147314Y-109776247D02*
X147147314Y-110014342D01*
X147147314Y-110014342D02*
X147099695Y-110109580D01*
X147099695Y-110109580D02*
X147052076Y-110157200D01*
X147052076Y-110157200D02*
X146956838Y-110204819D01*
X146956838Y-110204819D02*
X146671124Y-110204819D01*
X146671124Y-110204819D02*
X146575886Y-110157200D01*
X146575886Y-110157200D02*
X146528267Y-110109580D01*
X143760399Y-70205763D02*
X143760399Y-69203724D01*
X143760399Y-69203724D02*
X144142128Y-69203724D01*
X144142128Y-69203724D02*
X144237561Y-69251440D01*
X144237561Y-69251440D02*
X144285277Y-69299156D01*
X144285277Y-69299156D02*
X144332993Y-69394588D01*
X144332993Y-69394588D02*
X144332993Y-69537737D01*
X144332993Y-69537737D02*
X144285277Y-69633169D01*
X144285277Y-69633169D02*
X144237561Y-69680885D01*
X144237561Y-69680885D02*
X144142128Y-69728601D01*
X144142128Y-69728601D02*
X143760399Y-69728601D01*
X144667006Y-69203724D02*
X145287316Y-69203724D01*
X145287316Y-69203724D02*
X144953303Y-69585453D01*
X144953303Y-69585453D02*
X145096451Y-69585453D01*
X145096451Y-69585453D02*
X145191884Y-69633169D01*
X145191884Y-69633169D02*
X145239600Y-69680885D01*
X145239600Y-69680885D02*
X145287316Y-69776317D01*
X145287316Y-69776317D02*
X145287316Y-70014898D01*
X145287316Y-70014898D02*
X145239600Y-70110330D01*
X145239600Y-70110330D02*
X145191884Y-70158047D01*
X145191884Y-70158047D02*
X145096451Y-70205763D01*
X145096451Y-70205763D02*
X144810154Y-70205763D01*
X144810154Y-70205763D02*
X144714722Y-70158047D01*
X144714722Y-70158047D02*
X144667006Y-70110330D01*
X130883144Y-151002118D02*
X130883144Y-150000079D01*
X130883144Y-150000079D02*
X131264873Y-150000079D01*
X131264873Y-150000079D02*
X131360306Y-150047795D01*
X131360306Y-150047795D02*
X131408022Y-150095511D01*
X131408022Y-150095511D02*
X131455738Y-150190943D01*
X131455738Y-150190943D02*
X131455738Y-150334092D01*
X131455738Y-150334092D02*
X131408022Y-150429524D01*
X131408022Y-150429524D02*
X131360306Y-150477240D01*
X131360306Y-150477240D02*
X131264873Y-150524956D01*
X131264873Y-150524956D02*
X130883144Y-150524956D01*
X132410061Y-151002118D02*
X131837467Y-151002118D01*
X132123764Y-151002118D02*
X132123764Y-150000079D01*
X132123764Y-150000079D02*
X132028332Y-150143227D01*
X132028332Y-150143227D02*
X131932899Y-150238659D01*
X131932899Y-150238659D02*
X131837467Y-150286376D01*
X121150476Y-154204819D02*
X121150476Y-153204819D01*
X121150476Y-153204819D02*
X121483809Y-153919104D01*
X121483809Y-153919104D02*
X121817142Y-153204819D01*
X121817142Y-153204819D02*
X121817142Y-154204819D01*
X122817142Y-154204819D02*
X122245714Y-154204819D01*
X122531428Y-154204819D02*
X122531428Y-153204819D01*
X122531428Y-153204819D02*
X122436190Y-153347676D01*
X122436190Y-153347676D02*
X122340952Y-153442914D01*
X122340952Y-153442914D02*
X122245714Y-153490533D01*
X156629819Y-78416666D02*
X156153628Y-78749999D01*
X156629819Y-78988094D02*
X155629819Y-78988094D01*
X155629819Y-78988094D02*
X155629819Y-78607142D01*
X155629819Y-78607142D02*
X155677438Y-78511904D01*
X155677438Y-78511904D02*
X155725057Y-78464285D01*
X155725057Y-78464285D02*
X155820295Y-78416666D01*
X155820295Y-78416666D02*
X155963152Y-78416666D01*
X155963152Y-78416666D02*
X156058390Y-78464285D01*
X156058390Y-78464285D02*
X156106009Y-78511904D01*
X156106009Y-78511904D02*
X156153628Y-78607142D01*
X156153628Y-78607142D02*
X156153628Y-78988094D01*
X156629819Y-77940475D02*
X156629819Y-77749999D01*
X156629819Y-77749999D02*
X156582200Y-77654761D01*
X156582200Y-77654761D02*
X156534580Y-77607142D01*
X156534580Y-77607142D02*
X156391723Y-77511904D01*
X156391723Y-77511904D02*
X156201247Y-77464285D01*
X156201247Y-77464285D02*
X155820295Y-77464285D01*
X155820295Y-77464285D02*
X155725057Y-77511904D01*
X155725057Y-77511904D02*
X155677438Y-77559523D01*
X155677438Y-77559523D02*
X155629819Y-77654761D01*
X155629819Y-77654761D02*
X155629819Y-77845237D01*
X155629819Y-77845237D02*
X155677438Y-77940475D01*
X155677438Y-77940475D02*
X155725057Y-77988094D01*
X155725057Y-77988094D02*
X155820295Y-78035713D01*
X155820295Y-78035713D02*
X156058390Y-78035713D01*
X156058390Y-78035713D02*
X156153628Y-77988094D01*
X156153628Y-77988094D02*
X156201247Y-77940475D01*
X156201247Y-77940475D02*
X156248866Y-77845237D01*
X156248866Y-77845237D02*
X156248866Y-77654761D01*
X156248866Y-77654761D02*
X156201247Y-77559523D01*
X156201247Y-77559523D02*
X156153628Y-77511904D01*
X156153628Y-77511904D02*
X156058390Y-77464285D01*
X132420833Y-131854819D02*
X132087500Y-131378628D01*
X131849405Y-131854819D02*
X131849405Y-130854819D01*
X131849405Y-130854819D02*
X132230357Y-130854819D01*
X132230357Y-130854819D02*
X132325595Y-130902438D01*
X132325595Y-130902438D02*
X132373214Y-130950057D01*
X132373214Y-130950057D02*
X132420833Y-131045295D01*
X132420833Y-131045295D02*
X132420833Y-131188152D01*
X132420833Y-131188152D02*
X132373214Y-131283390D01*
X132373214Y-131283390D02*
X132325595Y-131331009D01*
X132325595Y-131331009D02*
X132230357Y-131378628D01*
X132230357Y-131378628D02*
X131849405Y-131378628D01*
X132754167Y-130854819D02*
X133373214Y-130854819D01*
X133373214Y-130854819D02*
X133039881Y-131235771D01*
X133039881Y-131235771D02*
X133182738Y-131235771D01*
X133182738Y-131235771D02*
X133277976Y-131283390D01*
X133277976Y-131283390D02*
X133325595Y-131331009D01*
X133325595Y-131331009D02*
X133373214Y-131426247D01*
X133373214Y-131426247D02*
X133373214Y-131664342D01*
X133373214Y-131664342D02*
X133325595Y-131759580D01*
X133325595Y-131759580D02*
X133277976Y-131807200D01*
X133277976Y-131807200D02*
X133182738Y-131854819D01*
X133182738Y-131854819D02*
X132897024Y-131854819D01*
X132897024Y-131854819D02*
X132801786Y-131807200D01*
X132801786Y-131807200D02*
X132754167Y-131759580D01*
X151359580Y-71016666D02*
X151407200Y-71064285D01*
X151407200Y-71064285D02*
X151454819Y-71207142D01*
X151454819Y-71207142D02*
X151454819Y-71302380D01*
X151454819Y-71302380D02*
X151407200Y-71445237D01*
X151407200Y-71445237D02*
X151311961Y-71540475D01*
X151311961Y-71540475D02*
X151216723Y-71588094D01*
X151216723Y-71588094D02*
X151026247Y-71635713D01*
X151026247Y-71635713D02*
X150883390Y-71635713D01*
X150883390Y-71635713D02*
X150692914Y-71588094D01*
X150692914Y-71588094D02*
X150597676Y-71540475D01*
X150597676Y-71540475D02*
X150502438Y-71445237D01*
X150502438Y-71445237D02*
X150454819Y-71302380D01*
X150454819Y-71302380D02*
X150454819Y-71207142D01*
X150454819Y-71207142D02*
X150502438Y-71064285D01*
X150502438Y-71064285D02*
X150550057Y-71016666D01*
X150550057Y-70635713D02*
X150502438Y-70588094D01*
X150502438Y-70588094D02*
X150454819Y-70492856D01*
X150454819Y-70492856D02*
X150454819Y-70254761D01*
X150454819Y-70254761D02*
X150502438Y-70159523D01*
X150502438Y-70159523D02*
X150550057Y-70111904D01*
X150550057Y-70111904D02*
X150645295Y-70064285D01*
X150645295Y-70064285D02*
X150740533Y-70064285D01*
X150740533Y-70064285D02*
X150883390Y-70111904D01*
X150883390Y-70111904D02*
X151454819Y-70683332D01*
X151454819Y-70683332D02*
X151454819Y-70064285D01*
X162840818Y-87406855D02*
X161838779Y-87406855D01*
X161838779Y-87406855D02*
X161838779Y-87025126D01*
X161838779Y-87025126D02*
X161886495Y-86929693D01*
X161886495Y-86929693D02*
X161934211Y-86881977D01*
X161934211Y-86881977D02*
X162029643Y-86834261D01*
X162029643Y-86834261D02*
X162172792Y-86834261D01*
X162172792Y-86834261D02*
X162268224Y-86881977D01*
X162268224Y-86881977D02*
X162315940Y-86929693D01*
X162315940Y-86929693D02*
X162363656Y-87025126D01*
X162363656Y-87025126D02*
X162363656Y-87406855D01*
X162172792Y-85975371D02*
X162840818Y-85975371D01*
X161791063Y-86213951D02*
X162506805Y-86452532D01*
X162506805Y-86452532D02*
X162506805Y-85832222D01*
X167795180Y-122238095D02*
X166985657Y-122238095D01*
X166985657Y-122238095D02*
X166890419Y-122285714D01*
X166890419Y-122285714D02*
X166842800Y-122333333D01*
X166842800Y-122333333D02*
X166795180Y-122428571D01*
X166795180Y-122428571D02*
X166795180Y-122619047D01*
X166795180Y-122619047D02*
X166842800Y-122714285D01*
X166842800Y-122714285D02*
X166890419Y-122761904D01*
X166890419Y-122761904D02*
X166985657Y-122809523D01*
X166985657Y-122809523D02*
X167795180Y-122809523D01*
X167795180Y-123190476D02*
X167795180Y-123809523D01*
X167795180Y-123809523D02*
X167414228Y-123476190D01*
X167414228Y-123476190D02*
X167414228Y-123619047D01*
X167414228Y-123619047D02*
X167366609Y-123714285D01*
X167366609Y-123714285D02*
X167318990Y-123761904D01*
X167318990Y-123761904D02*
X167223752Y-123809523D01*
X167223752Y-123809523D02*
X166985657Y-123809523D01*
X166985657Y-123809523D02*
X166890419Y-123761904D01*
X166890419Y-123761904D02*
X166842800Y-123714285D01*
X166842800Y-123714285D02*
X166795180Y-123619047D01*
X166795180Y-123619047D02*
X166795180Y-123333333D01*
X166795180Y-123333333D02*
X166842800Y-123238095D01*
X166842800Y-123238095D02*
X166890419Y-123190476D01*
X154789580Y-65716666D02*
X154837200Y-65764285D01*
X154837200Y-65764285D02*
X154884819Y-65907142D01*
X154884819Y-65907142D02*
X154884819Y-66002380D01*
X154884819Y-66002380D02*
X154837200Y-66145237D01*
X154837200Y-66145237D02*
X154741961Y-66240475D01*
X154741961Y-66240475D02*
X154646723Y-66288094D01*
X154646723Y-66288094D02*
X154456247Y-66335713D01*
X154456247Y-66335713D02*
X154313390Y-66335713D01*
X154313390Y-66335713D02*
X154122914Y-66288094D01*
X154122914Y-66288094D02*
X154027676Y-66240475D01*
X154027676Y-66240475D02*
X153932438Y-66145237D01*
X153932438Y-66145237D02*
X153884819Y-66002380D01*
X153884819Y-66002380D02*
X153884819Y-65907142D01*
X153884819Y-65907142D02*
X153932438Y-65764285D01*
X153932438Y-65764285D02*
X153980057Y-65716666D01*
X154884819Y-64764285D02*
X154884819Y-65335713D01*
X154884819Y-65049999D02*
X153884819Y-65049999D01*
X153884819Y-65049999D02*
X154027676Y-65145237D01*
X154027676Y-65145237D02*
X154122914Y-65240475D01*
X154122914Y-65240475D02*
X154170533Y-65335713D01*
X141454819Y-127642857D02*
X141454819Y-128119047D01*
X141454819Y-128119047D02*
X140454819Y-128119047D01*
X141407200Y-127357142D02*
X141454819Y-127214285D01*
X141454819Y-127214285D02*
X141454819Y-126976190D01*
X141454819Y-126976190D02*
X141407200Y-126880952D01*
X141407200Y-126880952D02*
X141359580Y-126833333D01*
X141359580Y-126833333D02*
X141264342Y-126785714D01*
X141264342Y-126785714D02*
X141169104Y-126785714D01*
X141169104Y-126785714D02*
X141073866Y-126833333D01*
X141073866Y-126833333D02*
X141026247Y-126880952D01*
X141026247Y-126880952D02*
X140978628Y-126976190D01*
X140978628Y-126976190D02*
X140931009Y-127166666D01*
X140931009Y-127166666D02*
X140883390Y-127261904D01*
X140883390Y-127261904D02*
X140835771Y-127309523D01*
X140835771Y-127309523D02*
X140740533Y-127357142D01*
X140740533Y-127357142D02*
X140645295Y-127357142D01*
X140645295Y-127357142D02*
X140550057Y-127309523D01*
X140550057Y-127309523D02*
X140502438Y-127261904D01*
X140502438Y-127261904D02*
X140454819Y-127166666D01*
X140454819Y-127166666D02*
X140454819Y-126928571D01*
X140454819Y-126928571D02*
X140502438Y-126785714D01*
X141454819Y-125833333D02*
X141454819Y-126404761D01*
X141454819Y-126119047D02*
X140454819Y-126119047D01*
X140454819Y-126119047D02*
X140597676Y-126214285D01*
X140597676Y-126214285D02*
X140692914Y-126309523D01*
X140692914Y-126309523D02*
X140740533Y-126404761D01*
X161019819Y-75808333D02*
X161734104Y-75808333D01*
X161734104Y-75808333D02*
X161876961Y-75855952D01*
X161876961Y-75855952D02*
X161972200Y-75951190D01*
X161972200Y-75951190D02*
X162019819Y-76094047D01*
X162019819Y-76094047D02*
X162019819Y-76189285D01*
X161019819Y-75427380D02*
X161019819Y-74808333D01*
X161019819Y-74808333D02*
X161400771Y-75141666D01*
X161400771Y-75141666D02*
X161400771Y-74998809D01*
X161400771Y-74998809D02*
X161448390Y-74903571D01*
X161448390Y-74903571D02*
X161496009Y-74855952D01*
X161496009Y-74855952D02*
X161591247Y-74808333D01*
X161591247Y-74808333D02*
X161829342Y-74808333D01*
X161829342Y-74808333D02*
X161924580Y-74855952D01*
X161924580Y-74855952D02*
X161972200Y-74903571D01*
X161972200Y-74903571D02*
X162019819Y-74998809D01*
X162019819Y-74998809D02*
X162019819Y-75284523D01*
X162019819Y-75284523D02*
X161972200Y-75379761D01*
X161972200Y-75379761D02*
X161924580Y-75427380D01*
X161183866Y-67461666D02*
X162317200Y-67461666D01*
X162317200Y-67461666D02*
X162450533Y-67395000D01*
X162450533Y-67395000D02*
X162517200Y-67328333D01*
X162517200Y-67328333D02*
X162583866Y-67195000D01*
X162583866Y-67195000D02*
X162583866Y-66928333D01*
X162583866Y-66928333D02*
X162517200Y-66795000D01*
X162517200Y-66795000D02*
X162450533Y-66728333D01*
X162450533Y-66728333D02*
X162317200Y-66661666D01*
X162317200Y-66661666D02*
X161183866Y-66661666D01*
X162583866Y-65261666D02*
X162583866Y-66061666D01*
X162583866Y-65661666D02*
X161183866Y-65661666D01*
X161183866Y-65661666D02*
X161383866Y-65794999D01*
X161383866Y-65794999D02*
X161517200Y-65928333D01*
X161517200Y-65928333D02*
X161583866Y-66061666D01*
X166900476Y-153954819D02*
X166900476Y-152954819D01*
X166900476Y-152954819D02*
X167233809Y-153669104D01*
X167233809Y-153669104D02*
X167567142Y-152954819D01*
X167567142Y-152954819D02*
X167567142Y-153954819D01*
X167995714Y-153050057D02*
X168043333Y-153002438D01*
X168043333Y-153002438D02*
X168138571Y-152954819D01*
X168138571Y-152954819D02*
X168376666Y-152954819D01*
X168376666Y-152954819D02*
X168471904Y-153002438D01*
X168471904Y-153002438D02*
X168519523Y-153050057D01*
X168519523Y-153050057D02*
X168567142Y-153145295D01*
X168567142Y-153145295D02*
X168567142Y-153240533D01*
X168567142Y-153240533D02*
X168519523Y-153383390D01*
X168519523Y-153383390D02*
X167948095Y-153954819D01*
X167948095Y-153954819D02*
X168567142Y-153954819D01*
D11*
X158360436Y-82015000D02*
X158814564Y-82015000D01*
X158360436Y-83485000D02*
X158814564Y-83485000D01*
X140280000Y-137661300D02*
X143220000Y-137661300D01*
X140280000Y-137691300D02*
X140280000Y-143131300D01*
X140280000Y-142111300D02*
X143220000Y-142111300D01*
X140280000Y-142231300D02*
X143220000Y-142231300D01*
X140280000Y-142351300D02*
X143220000Y-142351300D01*
X140280000Y-143131300D02*
X143220000Y-143131300D01*
X143220000Y-143131300D02*
X143220000Y-137691300D01*
D12*
X144920000Y-152311300D02*
X155080000Y-152311300D01*
X144920000Y-159511300D02*
X144920000Y-152311300D01*
X144920000Y-159511300D02*
X155080000Y-159511300D01*
X144920000Y-160511300D02*
X144920000Y-159511300D01*
X155080000Y-152311300D02*
X155080000Y-159511300D01*
X155080000Y-159511300D02*
X155080000Y-160511300D01*
X155080000Y-160511300D02*
X144920000Y-160511300D01*
X117750000Y-136676000D02*
X117750000Y-132324000D01*
X119574000Y-131500000D02*
X121926000Y-131500000D01*
X119574000Y-137500000D02*
X121926000Y-137500000D01*
X123750000Y-136676000D02*
X123750000Y-132324000D01*
D13*
X116846000Y-137750000D02*
G75*
G02*
X116646000Y-137750000I-100000J0D01*
G01*
X116646000Y-137750000D02*
G75*
G02*
X116846000Y-137750000I100000J0D01*
G01*
D11*
X139030000Y-94610000D02*
X139030000Y-100050000D01*
X141970000Y-94610000D02*
X139030000Y-94610000D01*
X141970000Y-95390000D02*
X139030000Y-95390000D01*
X141970000Y-95510000D02*
X139030000Y-95510000D01*
X141970000Y-95630000D02*
X139030000Y-95630000D01*
X141970000Y-100050000D02*
X141970000Y-94610000D01*
X141970000Y-100080000D02*
X139030000Y-100080000D01*
D12*
X156500000Y-91850000D02*
X156500000Y-94500000D01*
X156500000Y-94500000D02*
X152530000Y-94500000D01*
X156500000Y-94500000D02*
X156500000Y-97150000D01*
X156500000Y-97150000D02*
X165500000Y-97150000D01*
X165500000Y-91850000D02*
X156500000Y-91850000D01*
X165500000Y-94500000D02*
X165500000Y-91850000D01*
X165500000Y-94500000D02*
X169470000Y-94500000D01*
X165500000Y-97150000D02*
X165500000Y-94500000D01*
D13*
X149300000Y-94500000D02*
G75*
G02*
X149100000Y-94500000I-100000J0D01*
G01*
X149100000Y-94500000D02*
G75*
G02*
X149300000Y-94500000I100000J0D01*
G01*
D11*
X146626164Y-98115001D02*
X146172036Y-98115001D01*
X146626164Y-99585001D02*
X146172036Y-99585001D01*
D14*
X143682700Y-102252642D02*
X143682700Y-103947360D01*
X143682700Y-105728901D02*
X148940500Y-105728901D01*
X148940500Y-100471101D02*
X143682700Y-100471101D01*
X148940500Y-103947360D02*
X148940500Y-102252642D01*
D13*
X118480000Y-70990000D02*
X118480000Y-70990000D01*
X118480000Y-70990000D02*
X118480000Y-70990000D01*
X118480000Y-71090000D02*
X118480000Y-71090000D01*
X119110000Y-64640000D02*
X119110000Y-125600000D01*
X119110000Y-125600000D02*
X136890000Y-125600000D01*
X136890000Y-64640000D02*
X119110000Y-64640000D01*
X136890000Y-125600000D02*
X136890000Y-64640000D01*
X118480000Y-70990000D02*
G75*
G02*
X118480000Y-71090000I0J-50000D01*
G01*
X118480000Y-71090000D02*
G75*
G02*
X118480000Y-70990000I0J50000D01*
G01*
X118480000Y-71090000D02*
G75*
G02*
X118480000Y-70990000I0J50000D01*
G01*
D11*
X118030000Y-142920000D02*
X120970000Y-142920000D01*
X118030000Y-142950000D02*
X118030000Y-148390000D01*
X118030000Y-147370000D02*
X120970000Y-147370000D01*
X118030000Y-147490000D02*
X120970000Y-147490000D01*
X118030000Y-147610000D02*
X120970000Y-147610000D01*
X118030000Y-148390000D02*
X120970000Y-148390000D01*
X120970000Y-148390000D02*
X120970000Y-142950000D01*
X145360436Y-91265000D02*
X145814564Y-91265000D01*
X145360436Y-92735000D02*
X145814564Y-92735000D01*
D14*
X127289000Y-137547000D02*
X127289000Y-141496351D01*
X129714700Y-137064400D02*
X129714700Y-136607200D01*
X130705300Y-137064400D02*
X130705300Y-136607200D01*
X132127700Y-135769000D02*
X132127700Y-137547000D01*
X132127700Y-137547000D02*
X127289000Y-137547000D01*
X133372300Y-135769000D02*
X132127700Y-135769000D01*
X133372300Y-137547000D02*
X133372300Y-135769000D01*
X134794700Y-137064400D02*
X134794700Y-136607200D01*
X135785300Y-137064400D02*
X135785300Y-136607200D01*
X138211000Y-137547000D02*
X133372300Y-137547000D01*
X138211000Y-141496351D02*
X138211000Y-137547000D01*
X144539000Y-137797000D02*
X144539000Y-141746351D01*
X146964700Y-137314400D02*
X146964700Y-136857200D01*
X147955300Y-137314400D02*
X147955300Y-136857200D01*
X149377700Y-136019000D02*
X149377700Y-137797000D01*
X149377700Y-137797000D02*
X144539000Y-137797000D01*
X150622300Y-136019000D02*
X149377700Y-136019000D01*
X150622300Y-137797000D02*
X150622300Y-136019000D01*
X152044700Y-137314400D02*
X152044700Y-136857200D01*
X153035300Y-137314400D02*
X153035300Y-136857200D01*
X155461000Y-137797000D02*
X150622300Y-137797000D01*
X155461000Y-141746351D02*
X155461000Y-137797000D01*
X139039000Y-80914949D02*
X139039000Y-84864300D01*
X139039000Y-84864300D02*
X143877700Y-84864300D01*
X141464700Y-85346900D02*
X141464700Y-85804100D01*
X142455300Y-85346900D02*
X142455300Y-85804100D01*
X143877700Y-84864300D02*
X143877700Y-86642300D01*
X143877700Y-86642300D02*
X145122300Y-86642300D01*
X145122300Y-84864300D02*
X149961000Y-84864300D01*
X145122300Y-86642300D02*
X145122300Y-84864300D01*
X146544700Y-85346900D02*
X146544700Y-85804100D01*
X147535300Y-85346900D02*
X147535300Y-85804100D01*
X149961000Y-84864300D02*
X149961000Y-80914949D01*
D11*
X150314564Y-129015000D02*
X149860436Y-129015000D01*
X150314564Y-130485000D02*
X149860436Y-130485000D01*
D12*
X152100000Y-98400000D02*
X172400000Y-98400000D01*
X152100000Y-111307500D02*
X152100000Y-98400000D01*
X172400000Y-98400000D02*
X172400000Y-111307500D01*
X172400000Y-114100000D02*
X152100000Y-114100000D01*
D11*
X146100348Y-107115001D02*
X146622852Y-107115001D01*
X146100348Y-108585001D02*
X146622852Y-108585001D01*
D12*
X139420000Y-62650000D02*
X149580000Y-62650000D01*
X139420000Y-63650000D02*
X139420000Y-62650000D01*
X139420000Y-70850000D02*
X139420000Y-63650000D01*
X149580000Y-62650000D02*
X149580000Y-63650000D01*
X149580000Y-63650000D02*
X139420000Y-63650000D01*
X149580000Y-63650000D02*
X149580000Y-70850000D01*
X149580000Y-70850000D02*
X139420000Y-70850000D01*
X127670000Y-152061300D02*
X137830000Y-152061300D01*
X127670000Y-159261300D02*
X127670000Y-152061300D01*
X127670000Y-159261300D02*
X137830000Y-159261300D01*
X127670000Y-160261300D02*
X127670000Y-159261300D01*
X137830000Y-152061300D02*
X137830000Y-159261300D01*
X137830000Y-159261300D02*
X137830000Y-160261300D01*
X137830000Y-160261300D02*
X127670000Y-160261300D01*
D11*
X118040000Y-157630000D02*
X118040000Y-156250000D01*
X119420000Y-157630000D02*
X118040000Y-157630000D01*
X120690000Y-154870000D02*
X125880000Y-154870000D01*
X120690000Y-157630000D02*
X120690000Y-154870000D01*
X120690000Y-157630000D02*
X125880000Y-157630000D01*
X125880000Y-157630000D02*
X125880000Y-154870000D01*
X158360436Y-77515000D02*
X158814564Y-77515000D01*
X158360436Y-78985000D02*
X158814564Y-78985000D01*
X132814564Y-129015000D02*
X132360436Y-129015000D01*
X132814564Y-130485000D02*
X132360436Y-130485000D01*
X152015000Y-70538748D02*
X152015000Y-71061252D01*
X153485000Y-70538748D02*
X153485000Y-71061252D01*
D12*
X163900000Y-80460000D02*
X171100000Y-80460000D01*
X163900000Y-90620000D02*
X163900000Y-80460000D01*
X171100000Y-80460000D02*
X172100000Y-80460000D01*
X171100000Y-90620000D02*
X163900000Y-90620000D01*
X171100000Y-90620000D02*
X171100000Y-80460000D01*
X172100000Y-80460000D02*
X172100000Y-90620000D01*
X172100000Y-90620000D02*
X171100000Y-90620000D01*
D15*
X172710000Y-115100000D02*
X154710000Y-115100000D01*
X154710000Y-134100000D01*
X172710000Y-134100000D01*
X172710000Y-115100000D01*
D11*
X152015000Y-65288748D02*
X152015000Y-65811252D01*
X153485000Y-65288748D02*
X153485000Y-65811252D01*
D12*
X145000000Y-129220000D02*
X147000000Y-129220000D01*
X146000000Y-113080000D02*
X146000000Y-111080000D01*
X146000000Y-130220000D02*
X146000000Y-128220000D01*
X152000000Y-121000000D02*
G75*
G02*
X140000000Y-121000000I-6000000J0D01*
G01*
X140000000Y-121000000D02*
G75*
G02*
X152000000Y-121000000I6000000J0D01*
G01*
X163450000Y-65700000D02*
X165900000Y-62900000D01*
X163450000Y-78400000D02*
X163450000Y-65700000D01*
X165900000Y-62900000D02*
X169100000Y-62900000D01*
X167000000Y-79650000D02*
X168000000Y-79650000D01*
X167500000Y-62150000D02*
X167500000Y-61150000D01*
X167500000Y-80150000D02*
X167500000Y-79150000D01*
X169100000Y-62900000D02*
X171550000Y-65700000D01*
X171550000Y-65700000D02*
X171550000Y-78400000D01*
X171550000Y-78400000D02*
X163450000Y-78400000D01*
X155760000Y-62750000D02*
X160360000Y-62750000D01*
X155760000Y-73150000D02*
X155760000Y-62750000D01*
X160360000Y-62750000D02*
X160360000Y-73150000D01*
X160360000Y-73150000D02*
X155760000Y-73150000D01*
D13*
X155405000Y-65400000D02*
G75*
G02*
X155205000Y-65400000I-100000J0D01*
G01*
X155205000Y-65400000D02*
G75*
G02*
X155405000Y-65400000I100000J0D01*
G01*
D11*
X163790000Y-157380000D02*
X163790000Y-156000000D01*
X165170000Y-157380000D02*
X163790000Y-157380000D01*
X166440000Y-154620000D02*
X171630000Y-154620000D01*
X166440000Y-157380000D02*
X166440000Y-154620000D01*
X166440000Y-157380000D02*
X171630000Y-157380000D01*
X171630000Y-157380000D02*
X171630000Y-154620000D01*
%LPC*%
D16*
X157675000Y-82750000D03*
X159500000Y-82750000D03*
D17*
X141750000Y-145491300D03*
D18*
X141750000Y-135331300D03*
D19*
X147460000Y-156411300D03*
D20*
X152540000Y-156411300D03*
D21*
X118500000Y-137750000D03*
D22*
X118500000Y-131250000D03*
X123000000Y-137750000D03*
X123000000Y-131250000D03*
D17*
X140500000Y-92250000D03*
D18*
X140500000Y-102410000D03*
D23*
X170950000Y-94500000D03*
D24*
X151050000Y-94500000D03*
D25*
X147311600Y-98850001D03*
X145486600Y-98850001D03*
D26*
X143873200Y-101450002D03*
X143873200Y-104750000D03*
X148750000Y-104750000D03*
X148750000Y-101450002D03*
D27*
X120380000Y-70990000D03*
X120380000Y-73530000D03*
X120380000Y-76070000D03*
X120380000Y-78610000D03*
X120380000Y-81150000D03*
X120380000Y-83690000D03*
X120380000Y-86230000D03*
X120380000Y-88770000D03*
X120380000Y-91310000D03*
X120380000Y-93850000D03*
X120380000Y-96390000D03*
X120380000Y-98930000D03*
X135620000Y-98930000D03*
X135620000Y-96390000D03*
X135620000Y-93850000D03*
X135620000Y-91310000D03*
X135620000Y-88770000D03*
X135620000Y-86230000D03*
X135620000Y-83690000D03*
X135620000Y-81150000D03*
X135620000Y-78610000D03*
X135620000Y-76070000D03*
X135620000Y-73530000D03*
X120380000Y-104010000D03*
X120380000Y-106550000D03*
X120380000Y-109090000D03*
X120380000Y-111630000D03*
X120380000Y-114170000D03*
X120380000Y-116710000D03*
X120380000Y-119250000D03*
X120380000Y-121790000D03*
X120380000Y-124330000D03*
X135620000Y-124330000D03*
X135620000Y-121790000D03*
X135620000Y-119250000D03*
X135620000Y-116710000D03*
X135620000Y-114170000D03*
X135620000Y-111630000D03*
X135620000Y-109090000D03*
X135620000Y-106550000D03*
X135620000Y-104010000D03*
X120380000Y-101470000D03*
X122920000Y-111630000D03*
X125460000Y-111630000D03*
X128000000Y-111630000D03*
X130540000Y-111630000D03*
X133080000Y-111630000D03*
X123430000Y-82420000D03*
X123430000Y-79880000D03*
X123430000Y-77340000D03*
X123430000Y-74800000D03*
X123430000Y-72260000D03*
X135620000Y-70990000D03*
X135620000Y-65910000D03*
X120380000Y-68450000D03*
X133080000Y-68450000D03*
X135620000Y-101470000D03*
X135620000Y-68450000D03*
X120380000Y-65910000D03*
D17*
X119500000Y-150750000D03*
D18*
X119500000Y-140590000D03*
D16*
X144675000Y-92000000D03*
X146500000Y-92000000D03*
D28*
X135290000Y-134499000D03*
D29*
X132750000Y-145661300D03*
D28*
X130210000Y-134499000D03*
X152540000Y-134749000D03*
D29*
X150000000Y-145911300D03*
D28*
X147460000Y-134749000D03*
X141960000Y-87912300D03*
D29*
X144500000Y-76750000D03*
D28*
X147040000Y-87912300D03*
D25*
X151000000Y-129750000D03*
X149175000Y-129750000D03*
D30*
X154190000Y-100820000D03*
X170310000Y-100820000D03*
D31*
X168600000Y-112580000D03*
X155900000Y-112580000D03*
X171140000Y-112580000D03*
X158440000Y-112580000D03*
X160980000Y-112580000D03*
X153360000Y-112580000D03*
X166060000Y-112580000D03*
X163520000Y-112580000D03*
D32*
X145411600Y-107850001D03*
X147311600Y-107850001D03*
D33*
X147040000Y-66750000D03*
D20*
X141960000Y-66750000D03*
D19*
X130210000Y-156161300D03*
D20*
X135290000Y-156161300D03*
D34*
X119420000Y-156250000D03*
D35*
X121960000Y-156250000D03*
X124500000Y-156250000D03*
D16*
X157675000Y-78250000D03*
X159500000Y-78250000D03*
D25*
X133500000Y-129750000D03*
X131675000Y-129750000D03*
D36*
X152750000Y-69850000D03*
X152750000Y-71750000D03*
D37*
X168000000Y-88080000D03*
D20*
X168000000Y-83000000D03*
D38*
X157250000Y-116980000D03*
X157250000Y-119520000D03*
X157250000Y-122060000D03*
X157250000Y-124600000D03*
X157250000Y-127140000D03*
X157250000Y-129680000D03*
X157250000Y-132220000D03*
D36*
X152750000Y-64600000D03*
X152750000Y-66500000D03*
D39*
X146000000Y-117200000D03*
D40*
X146000000Y-124800000D03*
D41*
X167500000Y-67050000D03*
D42*
X167500000Y-74250000D03*
D43*
X157500000Y-65400000D03*
D44*
X157500000Y-67950000D03*
X157500000Y-70500000D03*
D34*
X165170000Y-156000000D03*
D35*
X167710000Y-156000000D03*
X170250000Y-156000000D03*
%LPD*%
M02*
