G04 #@! TF.GenerationSoftware,KiCad,Pcbnew,9.0.7*
G04 #@! TF.CreationDate,2026-05-14T17:59:11+01:00*
G04 #@! TF.ProjectId,Pointy R1 Flight controller,506f696e-7479-4205-9231-20466c696768,rev?*
G04 #@! TF.SameCoordinates,Original*
G04 #@! TF.FileFunction,Copper,L2,Bot*
G04 #@! TF.FilePolarity,Positive*
%FSLAX46Y46*%
G04 Gerber Fmt 4.6, Leading zero omitted, Abs format (unit mm)*
G04 Created by KiCad (PCBNEW 9.0.7) date 2026-05-14 17:59:11*
%MOMM*%
%LPD*%
G01*
G04 APERTURE LIST*
G04 #@! TA.AperFunction,ComponentPad*
%ADD10R,2.200000X2.200000*%
G04 #@! TD*
G04 #@! TA.AperFunction,ComponentPad*
%ADD11O,2.200000X2.200000*%
G04 #@! TD*
G04 #@! TA.AperFunction,ComponentPad*
%ADD12R,1.650000X1.650000*%
G04 #@! TD*
G04 #@! TA.AperFunction,ComponentPad*
%ADD13C,1.650000*%
G04 #@! TD*
G04 #@! TA.AperFunction,ComponentPad*
%ADD14R,1.508000X1.508000*%
G04 #@! TD*
G04 #@! TA.AperFunction,ComponentPad*
%ADD15C,1.508000*%
G04 #@! TD*
G04 #@! TA.AperFunction,ComponentPad*
%ADD16C,2.250000*%
G04 #@! TD*
G04 #@! TA.AperFunction,ComponentPad*
%ADD17R,2.250000X2.250000*%
G04 #@! TD*
G04 #@! TA.AperFunction,ComponentPad*
%ADD18C,1.665000*%
G04 #@! TD*
G04 #@! TA.AperFunction,ComponentPad*
%ADD19C,1.905000*%
G04 #@! TD*
G04 #@! TA.AperFunction,ComponentPad*
%ADD20R,1.700000X1.700000*%
G04 #@! TD*
G04 #@! TA.AperFunction,ComponentPad*
%ADD21C,1.700000*%
G04 #@! TD*
G04 #@! TA.AperFunction,ComponentPad*
%ADD22C,1.800000*%
G04 #@! TD*
G04 #@! TA.AperFunction,ComponentPad*
%ADD23C,2.000000*%
G04 #@! TD*
G04 #@! TA.AperFunction,ComponentPad*
%ADD24R,2.000000X2.000000*%
G04 #@! TD*
G04 #@! TA.AperFunction,ComponentPad*
%ADD25C,6.000000*%
G04 #@! TD*
G04 #@! TA.AperFunction,ComponentPad*
%ADD26R,6.000000X6.000000*%
G04 #@! TD*
G04 #@! TA.AperFunction,ComponentPad*
%ADD27R,1.910000X1.910000*%
G04 #@! TD*
G04 #@! TA.AperFunction,ComponentPad*
%ADD28C,1.910000*%
G04 #@! TD*
G04 #@! TA.AperFunction,ViaPad*
%ADD29C,0.600000*%
G04 #@! TD*
G04 #@! TA.AperFunction,Conductor*
%ADD30C,2.000000*%
G04 #@! TD*
G04 #@! TA.AperFunction,Conductor*
%ADD31C,1.000000*%
G04 #@! TD*
G04 #@! TA.AperFunction,Conductor*
%ADD32C,0.254000*%
G04 #@! TD*
G04 APERTURE END LIST*
D10*
X141750000Y-145491300D03*
D11*
X141750000Y-135331300D03*
D12*
X147460000Y-156411300D03*
D13*
X152540000Y-156411300D03*
D14*
X118500000Y-137750000D03*
D15*
X118500000Y-131250000D03*
X123000000Y-137750000D03*
X123000000Y-131250000D03*
D10*
X140500000Y-92250000D03*
D11*
X140500000Y-102410000D03*
D16*
X170950000Y-94500000D03*
D17*
X151050000Y-94500000D03*
D18*
X120380000Y-70990000D03*
X120380000Y-73530000D03*
X120380000Y-76070000D03*
X120380000Y-78610000D03*
X120380000Y-81150000D03*
X120380000Y-83690000D03*
X120380000Y-86230000D03*
X120380000Y-88770000D03*
X120380000Y-91310000D03*
X120380000Y-93850000D03*
X120380000Y-96390000D03*
X120380000Y-98930000D03*
X135620000Y-98930000D03*
X135620000Y-96390000D03*
X135620000Y-93850000D03*
X135620000Y-91310000D03*
X135620000Y-88770000D03*
X135620000Y-86230000D03*
X135620000Y-83690000D03*
X135620000Y-81150000D03*
X135620000Y-78610000D03*
X135620000Y-76070000D03*
X135620000Y-73530000D03*
X120380000Y-104010000D03*
X120380000Y-106550000D03*
X120380000Y-109090000D03*
X120380000Y-111630000D03*
X120380000Y-114170000D03*
X120380000Y-116710000D03*
X120380000Y-119250000D03*
X120380000Y-121790000D03*
X120380000Y-124330000D03*
X135620000Y-124330000D03*
X135620000Y-121790000D03*
X135620000Y-119250000D03*
X135620000Y-116710000D03*
X135620000Y-114170000D03*
X135620000Y-111630000D03*
X135620000Y-109090000D03*
X135620000Y-106550000D03*
X135620000Y-104010000D03*
X120380000Y-101470000D03*
X122920000Y-111630000D03*
X125460000Y-111630000D03*
X128000000Y-111630000D03*
X130540000Y-111630000D03*
X133080000Y-111630000D03*
X123430000Y-82420000D03*
X123430000Y-79880000D03*
X123430000Y-77340000D03*
X123430000Y-74800000D03*
X123430000Y-72260000D03*
X135620000Y-70990000D03*
X135620000Y-65910000D03*
X120380000Y-68450000D03*
X133080000Y-68450000D03*
X135620000Y-101470000D03*
X135620000Y-68450000D03*
X120380000Y-65910000D03*
D10*
X119500000Y-150750000D03*
D11*
X119500000Y-140590000D03*
D19*
X168600000Y-112580000D03*
X155900000Y-112580000D03*
X171140000Y-112580000D03*
X158440000Y-112580000D03*
X160980000Y-112580000D03*
X153360000Y-112580000D03*
X166060000Y-112580000D03*
X163520000Y-112580000D03*
D12*
X147040000Y-66750000D03*
D13*
X141960000Y-66750000D03*
D12*
X130210000Y-156161300D03*
D13*
X135290000Y-156161300D03*
D20*
X119420000Y-156250000D03*
D21*
X121960000Y-156250000D03*
X124500000Y-156250000D03*
D12*
X168000000Y-88080000D03*
D13*
X168000000Y-83000000D03*
D22*
X157250000Y-116980000D03*
X157250000Y-119520000D03*
X157250000Y-122060000D03*
X157250000Y-124600000D03*
X157250000Y-127140000D03*
X157250000Y-129680000D03*
X157250000Y-132220000D03*
D23*
X146000000Y-117200000D03*
D24*
X146000000Y-124800000D03*
D25*
X167500000Y-67050000D03*
D26*
X167500000Y-74250000D03*
D27*
X157500000Y-65400000D03*
D28*
X157500000Y-67950000D03*
X157500000Y-70500000D03*
D20*
X165170000Y-156000000D03*
D21*
X167710000Y-156000000D03*
X170250000Y-156000000D03*
D29*
X167750000Y-117750000D03*
X127750000Y-139750000D03*
X150250000Y-68000000D03*
X152500000Y-87250000D03*
X155250000Y-87250000D03*
X140500000Y-127500000D03*
X138500000Y-118250000D03*
X157000000Y-137750000D03*
X138500000Y-128250000D03*
X144000000Y-82000000D03*
X154000000Y-87000000D03*
X140750000Y-120750000D03*
D30*
X142801000Y-103363106D02*
X142750000Y-103414106D01*
X149250000Y-140500000D02*
X152500000Y-143750000D01*
X142750000Y-131077194D02*
X135290000Y-138537194D01*
X151050000Y-94500000D02*
X149250000Y-96300000D01*
X153500000Y-78250000D02*
X148250000Y-78250000D01*
X157250000Y-88500000D02*
X157250000Y-82000000D01*
X152500000Y-143750000D02*
X152500000Y-156371300D01*
X152500000Y-156371300D02*
X152540000Y-156411300D01*
X148250000Y-78250000D02*
X141960000Y-71960000D01*
X142801000Y-102749000D02*
X142801000Y-103363106D01*
X141960000Y-71960000D02*
X141960000Y-66750000D01*
X151050000Y-94500000D02*
X151250000Y-94500000D01*
X151050000Y-94500000D02*
X142801000Y-102749000D01*
X149250000Y-96300000D02*
X149250000Y-140500000D01*
X151250000Y-94500000D02*
X157250000Y-88500000D01*
X142750000Y-103414106D02*
X142750000Y-131077194D01*
X135290000Y-138537194D02*
X135290000Y-156161300D01*
X157250000Y-82000000D02*
X153500000Y-78250000D01*
D31*
X121960000Y-156250000D02*
X122000000Y-156210000D01*
X122000000Y-153000000D02*
X124750000Y-150250000D01*
X139750000Y-63000000D02*
X136840000Y-65910000D01*
X150250000Y-68000000D02*
X150250000Y-66000000D01*
X122000000Y-156210000D02*
X122000000Y-153000000D01*
X124750000Y-142750000D02*
X127750000Y-139750000D01*
X150250000Y-66000000D02*
X147250000Y-63000000D01*
X136840000Y-65910000D02*
X135620000Y-65910000D01*
X147250000Y-63000000D02*
X139750000Y-63000000D01*
X124750000Y-150250000D02*
X124750000Y-142750000D01*
D32*
X148940000Y-83690000D02*
X135620000Y-83690000D01*
X152500000Y-87250000D02*
X148940000Y-83690000D01*
X136750000Y-87500000D02*
X125500000Y-87500000D01*
X138250000Y-89000000D02*
X136750000Y-87500000D01*
X155250000Y-87250000D02*
X155250000Y-87500000D01*
X153750000Y-89000000D02*
X138250000Y-89000000D01*
X125500000Y-87500000D02*
X124250000Y-86250000D01*
X155250000Y-87500000D02*
X153750000Y-89000000D01*
X120400000Y-86250000D02*
X120380000Y-86230000D01*
X124250000Y-86250000D02*
X120400000Y-86250000D01*
X140500000Y-127500000D02*
X140500000Y-125250000D01*
X140500000Y-125250000D02*
X137040000Y-121790000D01*
X137040000Y-121790000D02*
X135620000Y-121790000D01*
X137750000Y-93440000D02*
X135620000Y-91310000D01*
X138500000Y-118250000D02*
X137750000Y-117500000D01*
X137750000Y-117500000D02*
X137750000Y-93440000D01*
X136830000Y-124330000D02*
X135620000Y-124330000D01*
X157000000Y-137750000D02*
X157250000Y-137750000D01*
X138500000Y-128250000D02*
X138500000Y-126000000D01*
X165170000Y-145670000D02*
X165170000Y-156000000D01*
X138500000Y-126000000D02*
X136830000Y-124330000D01*
X157250000Y-137750000D02*
X165170000Y-145670000D01*
X138820000Y-76070000D02*
X135620000Y-76070000D01*
X144000000Y-81250000D02*
X138820000Y-76070000D01*
X144000000Y-82000000D02*
X144000000Y-81250000D01*
X138480000Y-86230000D02*
X135620000Y-86230000D01*
X153372000Y-88128000D02*
X140378000Y-88128000D01*
X154000000Y-87500000D02*
X153372000Y-88128000D01*
X154000000Y-87000000D02*
X154000000Y-87500000D01*
X140378000Y-88128000D02*
X138480000Y-86230000D01*
X117250000Y-147750000D02*
X124750000Y-140250000D01*
X117250000Y-154080000D02*
X117250000Y-147750000D01*
X124750000Y-140250000D02*
X124750000Y-121080000D01*
X124750000Y-121080000D02*
X120380000Y-116710000D01*
X119420000Y-156250000D02*
X117250000Y-154080000D01*
X140750000Y-120750000D02*
X140750000Y-117250000D01*
X138750000Y-115250000D02*
X138750000Y-91900000D01*
X138750000Y-91900000D02*
X135620000Y-88770000D01*
X140750000Y-117250000D02*
X138750000Y-115250000D01*
G04 #@! TA.AperFunction,Conductor*
G36*
X173492539Y-61220185D02*
G01*
X173538294Y-61272989D01*
X173549500Y-61324500D01*
X173549500Y-160175500D01*
X173529815Y-160242539D01*
X173477011Y-160288294D01*
X173425500Y-160299500D01*
X116574500Y-160299500D01*
X116507461Y-160279815D01*
X116461706Y-160227011D01*
X116450500Y-160175500D01*
X116450500Y-154412962D01*
X116470185Y-154345923D01*
X116522989Y-154300168D01*
X116592147Y-154290224D01*
X116655703Y-154319249D01*
X116689062Y-154365512D01*
X116693915Y-154377229D01*
X116693920Y-154377239D01*
X116762588Y-154480007D01*
X116762591Y-154480011D01*
X118033181Y-155750600D01*
X118066666Y-155811923D01*
X118069500Y-155838281D01*
X118069500Y-157147870D01*
X118069501Y-157147876D01*
X118075908Y-157207483D01*
X118126202Y-157342328D01*
X118126206Y-157342335D01*
X118212452Y-157457544D01*
X118212455Y-157457547D01*
X118327664Y-157543793D01*
X118327671Y-157543797D01*
X118462517Y-157594091D01*
X118462516Y-157594091D01*
X118469444Y-157594835D01*
X118522127Y-157600500D01*
X120317872Y-157600499D01*
X120377483Y-157594091D01*
X120512331Y-157543796D01*
X120627546Y-157457546D01*
X120713796Y-157342331D01*
X120762810Y-157210916D01*
X120804681Y-157154984D01*
X120870145Y-157130566D01*
X120938418Y-157145417D01*
X120966673Y-157166569D01*
X121080213Y-157280109D01*
X121252179Y-157405048D01*
X121252181Y-157405049D01*
X121252184Y-157405051D01*
X121441588Y-157501557D01*
X121643757Y-157567246D01*
X121853713Y-157600500D01*
X121853714Y-157600500D01*
X122066286Y-157600500D01*
X122066287Y-157600500D01*
X122276243Y-157567246D01*
X122478412Y-157501557D01*
X122667816Y-157405051D01*
X122742901Y-157350499D01*
X122839786Y-157280109D01*
X122839788Y-157280106D01*
X122839792Y-157280104D01*
X122990104Y-157129792D01*
X122990106Y-157129788D01*
X122990109Y-157129786D01*
X123057515Y-157037007D01*
X123115051Y-156957816D01*
X123119793Y-156948508D01*
X123167763Y-156897711D01*
X123235583Y-156880911D01*
X123301719Y-156903445D01*
X123340763Y-156948500D01*
X123345373Y-156957547D01*
X123384728Y-157011716D01*
X124017037Y-156379408D01*
X124034075Y-156442993D01*
X124099901Y-156557007D01*
X124192993Y-156650099D01*
X124307007Y-156715925D01*
X124370590Y-156732962D01*
X123738282Y-157365269D01*
X123738282Y-157365270D01*
X123792449Y-157404624D01*
X123981782Y-157501095D01*
X124183870Y-157566757D01*
X124393754Y-157600000D01*
X124606246Y-157600000D01*
X124816127Y-157566757D01*
X124816130Y-157566757D01*
X125018217Y-157501095D01*
X125207554Y-157404622D01*
X125261716Y-157365270D01*
X125261717Y-157365270D01*
X124629408Y-156732962D01*
X124692993Y-156715925D01*
X124807007Y-156650099D01*
X124900099Y-156557007D01*
X124965925Y-156442993D01*
X124982962Y-156379409D01*
X125615270Y-157011717D01*
X125615270Y-157011716D01*
X125654622Y-156957554D01*
X125751095Y-156768217D01*
X125816757Y-156566130D01*
X125816757Y-156566127D01*
X125850000Y-156356246D01*
X125850000Y-156143753D01*
X125816757Y-155933872D01*
X125816757Y-155933869D01*
X125751095Y-155731782D01*
X125654624Y-155542449D01*
X125615270Y-155488282D01*
X125615269Y-155488282D01*
X124982962Y-156120590D01*
X124965925Y-156057007D01*
X124900099Y-155942993D01*
X124807007Y-155849901D01*
X124692993Y-155784075D01*
X124629409Y-155767037D01*
X125108010Y-155288435D01*
X128884500Y-155288435D01*
X128884500Y-157034170D01*
X128884501Y-157034176D01*
X128890908Y-157093783D01*
X128941202Y-157228628D01*
X128941206Y-157228635D01*
X129027452Y-157343844D01*
X129027455Y-157343847D01*
X129142664Y-157430093D01*
X129142671Y-157430097D01*
X129277517Y-157480391D01*
X129277516Y-157480391D01*
X129284444Y-157481135D01*
X129337127Y-157486800D01*
X131082872Y-157486799D01*
X131142483Y-157480391D01*
X131277331Y-157430096D01*
X131392546Y-157343846D01*
X131478796Y-157228631D01*
X131529091Y-157093783D01*
X131535500Y-157034173D01*
X131535499Y-155288428D01*
X131529091Y-155228817D01*
X131502555Y-155157671D01*
X131478797Y-155093971D01*
X131478793Y-155093964D01*
X131392547Y-154978755D01*
X131392544Y-154978752D01*
X131277335Y-154892506D01*
X131277328Y-154892502D01*
X131142482Y-154842208D01*
X131142483Y-154842208D01*
X131082883Y-154835801D01*
X131082881Y-154835800D01*
X131082873Y-154835800D01*
X131082864Y-154835800D01*
X129337129Y-154835800D01*
X129337123Y-154835801D01*
X129277516Y-154842208D01*
X129142671Y-154892502D01*
X129142664Y-154892506D01*
X129027455Y-154978752D01*
X129027452Y-154978755D01*
X128941206Y-155093964D01*
X128941202Y-155093971D01*
X128890908Y-155228817D01*
X128885436Y-155279719D01*
X128884501Y-155288423D01*
X128884500Y-155288435D01*
X125108010Y-155288435D01*
X125199020Y-155197425D01*
X125261716Y-155134728D01*
X125207550Y-155095375D01*
X125018217Y-154998904D01*
X124816129Y-154933242D01*
X124606246Y-154900000D01*
X124393754Y-154900000D01*
X124183872Y-154933242D01*
X124183869Y-154933242D01*
X123981782Y-154998904D01*
X123792439Y-155095380D01*
X123738282Y-155134727D01*
X123738282Y-155134728D01*
X124370591Y-155767037D01*
X124307007Y-155784075D01*
X124192993Y-155849901D01*
X124099901Y-155942993D01*
X124034075Y-156057007D01*
X124017037Y-156120591D01*
X123384728Y-155488282D01*
X123384727Y-155488282D01*
X123345380Y-155542440D01*
X123345376Y-155542446D01*
X123340760Y-155551505D01*
X123338123Y-155554295D01*
X123337190Y-155558020D01*
X123314318Y-155579496D01*
X123292781Y-155602297D01*
X123289055Y-155603219D01*
X123286256Y-155605848D01*
X123255405Y-155611549D01*
X123224959Y-155619087D01*
X123221325Y-155617848D01*
X123217550Y-155618546D01*
X123188513Y-155606663D01*
X123158826Y-155596543D01*
X123155408Y-155593115D01*
X123152886Y-155592083D01*
X123146188Y-155583868D01*
X123128726Y-155566354D01*
X123123740Y-155559239D01*
X123115051Y-155542184D01*
X123023588Y-155416294D01*
X123022946Y-155415378D01*
X123012101Y-155383251D01*
X123000702Y-155351302D01*
X123000645Y-155349315D01*
X123000599Y-155349178D01*
X123000637Y-155349026D01*
X123000500Y-155344225D01*
X123000500Y-153465782D01*
X123020185Y-153398743D01*
X123036819Y-153378101D01*
X125527136Y-150887785D01*
X125527136Y-150887784D01*
X125527139Y-150887782D01*
X125534887Y-150876185D01*
X125550069Y-150853466D01*
X125550069Y-150853465D01*
X125636632Y-150723914D01*
X125712051Y-150541835D01*
X125750500Y-150348541D01*
X125750500Y-143215782D01*
X125770185Y-143148743D01*
X125786819Y-143128101D01*
X128527137Y-140387784D01*
X128527137Y-140387783D01*
X128527140Y-140387781D01*
X128636632Y-140223914D01*
X128712052Y-140041835D01*
X128750500Y-139848540D01*
X128750500Y-139651459D01*
X128712052Y-139458164D01*
X128636632Y-139276086D01*
X128605048Y-139228817D01*
X128527141Y-139112219D01*
X128527135Y-139112212D01*
X128387787Y-138972864D01*
X128387780Y-138972858D01*
X128223915Y-138863368D01*
X128041836Y-138787948D01*
X128041828Y-138787946D01*
X127848545Y-138749500D01*
X127848541Y-138749500D01*
X127651460Y-138749500D01*
X127651455Y-138749500D01*
X127458172Y-138787946D01*
X127458164Y-138787948D01*
X127276088Y-138863366D01*
X127276079Y-138863371D01*
X127112219Y-138972859D01*
X127112215Y-138972862D01*
X125568274Y-140516804D01*
X125506951Y-140550289D01*
X125437259Y-140545305D01*
X125381326Y-140503433D01*
X125356909Y-140437969D01*
X125358976Y-140404932D01*
X125377499Y-140311806D01*
X125377500Y-140311804D01*
X125377500Y-121018194D01*
X125353386Y-120896970D01*
X125353385Y-120896969D01*
X125353385Y-120896965D01*
X125327585Y-120834678D01*
X125306086Y-120782773D01*
X125306079Y-120782760D01*
X125237412Y-120679993D01*
X125207335Y-120649916D01*
X125150008Y-120592589D01*
X121709234Y-117151815D01*
X121675749Y-117090492D01*
X121678988Y-117025805D01*
X121680176Y-117022148D01*
X121680177Y-117022145D01*
X121713000Y-116814909D01*
X121713000Y-116605091D01*
X121680177Y-116397855D01*
X121640569Y-116275952D01*
X121615341Y-116198308D01*
X121615340Y-116198305D01*
X121582353Y-116133566D01*
X121520084Y-116011356D01*
X121447718Y-115911752D01*
X121396761Y-115841615D01*
X121396757Y-115841610D01*
X121248389Y-115693242D01*
X121248384Y-115693238D01*
X121078648Y-115569918D01*
X121074434Y-115567771D01*
X121040507Y-115550484D01*
X120989712Y-115502511D01*
X120972917Y-115434690D01*
X120995454Y-115368555D01*
X121040507Y-115329515D01*
X121078644Y-115310084D01*
X121248391Y-115186756D01*
X121396756Y-115038391D01*
X121520084Y-114868644D01*
X121615340Y-114681694D01*
X121680177Y-114482145D01*
X121713000Y-114274909D01*
X121713000Y-114065091D01*
X121680177Y-113857855D01*
X121640569Y-113735952D01*
X121615341Y-113658308D01*
X121615340Y-113658305D01*
X121582353Y-113593566D01*
X121520084Y-113471356D01*
X121425766Y-113341538D01*
X121396761Y-113301615D01*
X121396757Y-113301610D01*
X121248389Y-113153242D01*
X121248384Y-113153238D01*
X121078648Y-113029918D01*
X121074434Y-113027771D01*
X121040507Y-113010484D01*
X120989712Y-112962511D01*
X120972917Y-112894690D01*
X120995454Y-112828555D01*
X121040507Y-112789515D01*
X121078644Y-112770084D01*
X121248391Y-112646756D01*
X121396756Y-112498391D01*
X121520084Y-112328644D01*
X121539515Y-112290507D01*
X121587489Y-112239712D01*
X121655310Y-112222917D01*
X121721445Y-112245454D01*
X121760485Y-112290508D01*
X121779918Y-112328648D01*
X121903238Y-112498384D01*
X121903242Y-112498389D01*
X122051610Y-112646757D01*
X122051615Y-112646761D01*
X122169959Y-112732742D01*
X122221356Y-112770084D01*
X122336112Y-112828555D01*
X122408305Y-112865340D01*
X122408308Y-112865341D01*
X122508080Y-112897758D01*
X122607855Y-112930177D01*
X122815091Y-112963000D01*
X122815092Y-112963000D01*
X123024908Y-112963000D01*
X123024909Y-112963000D01*
X123232145Y-112930177D01*
X123431694Y-112865340D01*
X123618644Y-112770084D01*
X123788391Y-112646756D01*
X123936756Y-112498391D01*
X124060084Y-112328644D01*
X124079515Y-112290507D01*
X124127489Y-112239712D01*
X124195310Y-112222917D01*
X124261445Y-112245454D01*
X124300485Y-112290508D01*
X124319918Y-112328648D01*
X124443238Y-112498384D01*
X124443242Y-112498389D01*
X124591610Y-112646757D01*
X124591615Y-112646761D01*
X124709959Y-112732742D01*
X124761356Y-112770084D01*
X124876112Y-112828555D01*
X124948305Y-112865340D01*
X124948308Y-112865341D01*
X125048080Y-112897758D01*
X125147855Y-112930177D01*
X125355091Y-112963000D01*
X125355092Y-112963000D01*
X125564908Y-112963000D01*
X125564909Y-112963000D01*
X125772145Y-112930177D01*
X125971694Y-112865340D01*
X126158644Y-112770084D01*
X126328391Y-112646756D01*
X126476756Y-112498391D01*
X126600084Y-112328644D01*
X126619796Y-112289956D01*
X126667768Y-112239162D01*
X126735589Y-112222366D01*
X126801724Y-112244902D01*
X126840764Y-112289956D01*
X126860340Y-112328375D01*
X126897257Y-112379188D01*
X127472129Y-111804316D01*
X127482822Y-111844222D01*
X127555890Y-111970778D01*
X127659222Y-112074110D01*
X127785778Y-112147178D01*
X127825682Y-112157870D01*
X127250809Y-112732741D01*
X127250810Y-112732742D01*
X127301614Y-112769653D01*
X127488493Y-112864874D01*
X127687971Y-112929689D01*
X127895131Y-112962500D01*
X128104869Y-112962500D01*
X128312028Y-112929689D01*
X128511506Y-112864874D01*
X128698374Y-112769659D01*
X128698387Y-112769651D01*
X128749188Y-112732742D01*
X128749189Y-112732741D01*
X128174317Y-112157870D01*
X128214222Y-112147178D01*
X128340778Y-112074110D01*
X128444110Y-111970778D01*
X128517178Y-111844222D01*
X128527870Y-111804317D01*
X129102741Y-112379189D01*
X129102742Y-112379188D01*
X129139651Y-112328387D01*
X129139662Y-112328370D01*
X129159234Y-112289958D01*
X129207208Y-112239162D01*
X129275029Y-112222366D01*
X129341164Y-112244903D01*
X129380203Y-112289956D01*
X129399785Y-112328387D01*
X129399918Y-112328647D01*
X129523238Y-112498384D01*
X129523242Y-112498389D01*
X129671610Y-112646757D01*
X129671615Y-112646761D01*
X129789959Y-112732742D01*
X129841356Y-112770084D01*
X129956112Y-112828555D01*
X130028305Y-112865340D01*
X130028308Y-112865341D01*
X130128080Y-112897758D01*
X130227855Y-112930177D01*
X130435091Y-112963000D01*
X130435092Y-112963000D01*
X130644908Y-112963000D01*
X130644909Y-112963000D01*
X130852145Y-112930177D01*
X131051694Y-112865340D01*
X131238644Y-112770084D01*
X131408391Y-112646756D01*
X131556756Y-112498391D01*
X131680084Y-112328644D01*
X131699515Y-112290507D01*
X131747489Y-112239712D01*
X131815310Y-112222917D01*
X131881445Y-112245454D01*
X131920485Y-112290508D01*
X131939918Y-112328648D01*
X132063238Y-112498384D01*
X132063242Y-112498389D01*
X132211610Y-112646757D01*
X132211615Y-112646761D01*
X132329959Y-112732742D01*
X132381356Y-112770084D01*
X132496112Y-112828555D01*
X132568305Y-112865340D01*
X132568308Y-112865341D01*
X132668080Y-112897758D01*
X132767855Y-112930177D01*
X132975091Y-112963000D01*
X132975092Y-112963000D01*
X133184908Y-112963000D01*
X133184909Y-112963000D01*
X133392145Y-112930177D01*
X133591694Y-112865340D01*
X133778644Y-112770084D01*
X133948391Y-112646756D01*
X134096756Y-112498391D01*
X134220084Y-112328644D01*
X134239515Y-112290507D01*
X134287489Y-112239712D01*
X134355310Y-112222917D01*
X134421445Y-112245454D01*
X134460485Y-112290508D01*
X134479918Y-112328648D01*
X134603238Y-112498384D01*
X134603242Y-112498389D01*
X134751610Y-112646757D01*
X134751615Y-112646761D01*
X134921354Y-112770083D01*
X134959492Y-112789516D01*
X135010287Y-112837490D01*
X135027082Y-112905311D01*
X135004544Y-112971446D01*
X134959492Y-113010484D01*
X134921354Y-113029916D01*
X134751615Y-113153238D01*
X134751610Y-113153242D01*
X134603242Y-113301610D01*
X134603238Y-113301615D01*
X134479918Y-113471352D01*
X134384659Y-113658305D01*
X134384658Y-113658308D01*
X134319823Y-113857853D01*
X134287000Y-114065091D01*
X134287000Y-114274908D01*
X134319823Y-114482146D01*
X134384658Y-114681691D01*
X134384659Y-114681694D01*
X134479918Y-114868647D01*
X134603238Y-115038384D01*
X134603242Y-115038389D01*
X134751610Y-115186757D01*
X134751615Y-115186761D01*
X134921354Y-115310083D01*
X134959492Y-115329516D01*
X135010287Y-115377490D01*
X135027082Y-115445311D01*
X135004544Y-115511446D01*
X134959492Y-115550484D01*
X134921354Y-115569916D01*
X134751615Y-115693238D01*
X134751610Y-115693242D01*
X134603242Y-115841610D01*
X134603238Y-115841615D01*
X134479918Y-116011352D01*
X134384659Y-116198305D01*
X134384658Y-116198308D01*
X134319823Y-116397853D01*
X134287000Y-116605091D01*
X134287000Y-116814908D01*
X134319823Y-117022146D01*
X134384658Y-117221691D01*
X134384659Y-117221694D01*
X134479918Y-117408647D01*
X134603238Y-117578384D01*
X134603242Y-117578389D01*
X134751610Y-117726757D01*
X134751615Y-117726761D01*
X134921354Y-117850083D01*
X134959492Y-117869516D01*
X135010287Y-117917490D01*
X135027082Y-117985311D01*
X135004544Y-118051446D01*
X134959492Y-118090484D01*
X134921354Y-118109916D01*
X134751615Y-118233238D01*
X134751610Y-118233242D01*
X134603242Y-118381610D01*
X134603238Y-118381615D01*
X134479918Y-118551352D01*
X134384659Y-118738305D01*
X134384658Y-118738308D01*
X134319823Y-118937853D01*
X134287000Y-119145091D01*
X134287000Y-119354908D01*
X134319823Y-119562146D01*
X134384658Y-119761691D01*
X134384659Y-119761694D01*
X134479918Y-119948647D01*
X134603238Y-120118384D01*
X134603242Y-120118389D01*
X134751610Y-120266757D01*
X134751615Y-120266761D01*
X134921354Y-120390083D01*
X134959492Y-120409516D01*
X135010287Y-120457490D01*
X135027082Y-120525311D01*
X135004544Y-120591446D01*
X134959492Y-120630484D01*
X134921354Y-120649916D01*
X134751615Y-120773238D01*
X134751610Y-120773242D01*
X134603242Y-120921610D01*
X134603238Y-120921615D01*
X134479918Y-121091352D01*
X134384659Y-121278305D01*
X134384658Y-121278308D01*
X134319823Y-121477853D01*
X134287000Y-121685091D01*
X134287000Y-121894908D01*
X134319823Y-122102146D01*
X134384658Y-122301691D01*
X134384659Y-122301694D01*
X134479918Y-122488647D01*
X134603238Y-122658384D01*
X134603242Y-122658389D01*
X134751610Y-122806757D01*
X134751615Y-122806761D01*
X134921354Y-122930083D01*
X134959492Y-122949516D01*
X135010287Y-122997490D01*
X135027082Y-123065311D01*
X135004544Y-123131446D01*
X134959492Y-123170484D01*
X134921354Y-123189916D01*
X134751615Y-123313238D01*
X134751610Y-123313242D01*
X134603242Y-123461610D01*
X134603238Y-123461615D01*
X134479918Y-123631352D01*
X134384659Y-123818305D01*
X134384658Y-123818308D01*
X134319823Y-124017853D01*
X134287000Y-124225091D01*
X134287000Y-124434908D01*
X134319823Y-124642146D01*
X134384658Y-124841691D01*
X134384659Y-124841694D01*
X134479918Y-125028647D01*
X134603238Y-125198384D01*
X134603242Y-125198389D01*
X134751610Y-125346757D01*
X134751615Y-125346761D01*
X134899669Y-125454327D01*
X134921356Y-125470084D01*
X135004777Y-125512589D01*
X135108305Y-125565340D01*
X135108308Y-125565341D01*
X135208080Y-125597758D01*
X135307855Y-125630177D01*
X135515091Y-125663000D01*
X135515092Y-125663000D01*
X135724908Y-125663000D01*
X135724909Y-125663000D01*
X135932145Y-125630177D01*
X136131694Y-125565340D01*
X136318644Y-125470084D01*
X136488391Y-125346756D01*
X136636183Y-125198964D01*
X136697506Y-125165479D01*
X136767198Y-125170463D01*
X136811545Y-125198964D01*
X137836181Y-126223600D01*
X137869666Y-126284923D01*
X137872500Y-126311281D01*
X137872500Y-127710642D01*
X137852815Y-127777681D01*
X137851602Y-127779533D01*
X137790609Y-127870814D01*
X137790602Y-127870827D01*
X137730264Y-128016498D01*
X137730261Y-128016510D01*
X137699500Y-128171153D01*
X137699500Y-128328846D01*
X137730261Y-128483489D01*
X137730264Y-128483501D01*
X137790602Y-128629172D01*
X137790609Y-128629185D01*
X137878210Y-128760288D01*
X137878213Y-128760292D01*
X137989707Y-128871786D01*
X137989711Y-128871789D01*
X138120814Y-128959390D01*
X138120827Y-128959397D01*
X138266498Y-129019735D01*
X138266503Y-129019737D01*
X138421153Y-129050499D01*
X138421156Y-129050500D01*
X138421158Y-129050500D01*
X138578844Y-129050500D01*
X138578845Y-129050499D01*
X138733497Y-129019737D01*
X138879179Y-128959394D01*
X139010289Y-128871789D01*
X139121789Y-128760289D01*
X139209394Y-128629179D01*
X139269737Y-128483497D01*
X139300500Y-128328842D01*
X139300500Y-128171158D01*
X139300500Y-128171155D01*
X139300499Y-128171153D01*
X139290679Y-128121786D01*
X139269737Y-128016503D01*
X139267163Y-128010288D01*
X139209397Y-127870827D01*
X139209390Y-127870814D01*
X139148398Y-127779533D01*
X139127520Y-127712855D01*
X139127500Y-127710642D01*
X139127500Y-125938196D01*
X139127499Y-125938192D01*
X139113935Y-125870000D01*
X139103386Y-125816966D01*
X139058407Y-125708379D01*
X139056763Y-125703784D01*
X138987414Y-125599996D01*
X138987413Y-125599994D01*
X138948700Y-125561281D01*
X138900008Y-125512589D01*
X138097640Y-124710221D01*
X137230011Y-123842591D01*
X137230003Y-123842585D01*
X137127243Y-123773923D01*
X137127229Y-123773915D01*
X137088028Y-123757678D01*
X137088026Y-123757677D01*
X137013035Y-123726614D01*
X137013027Y-123726612D01*
X136891807Y-123702500D01*
X136891803Y-123702500D01*
X136872321Y-123702500D01*
X136805282Y-123682815D01*
X136761836Y-123634794D01*
X136760083Y-123631354D01*
X136636761Y-123461615D01*
X136636757Y-123461610D01*
X136488389Y-123313242D01*
X136488384Y-123313238D01*
X136318648Y-123189918D01*
X136314434Y-123187771D01*
X136280507Y-123170484D01*
X136229712Y-123122511D01*
X136212917Y-123054690D01*
X136235454Y-122988555D01*
X136280507Y-122949515D01*
X136318644Y-122930084D01*
X136488391Y-122806756D01*
X136636756Y-122658391D01*
X136713099Y-122553312D01*
X136768428Y-122510647D01*
X136838041Y-122504668D01*
X136899836Y-122537273D01*
X136901098Y-122538517D01*
X139836181Y-125473600D01*
X139869666Y-125534923D01*
X139872500Y-125561281D01*
X139872500Y-126960642D01*
X139852815Y-127027681D01*
X139851602Y-127029533D01*
X139790609Y-127120814D01*
X139790602Y-127120827D01*
X139730264Y-127266498D01*
X139730261Y-127266510D01*
X139699500Y-127421153D01*
X139699500Y-127578846D01*
X139730261Y-127733489D01*
X139730264Y-127733501D01*
X139790602Y-127879172D01*
X139790609Y-127879185D01*
X139878210Y-128010288D01*
X139878213Y-128010292D01*
X139989707Y-128121786D01*
X139989711Y-128121789D01*
X140120814Y-128209390D01*
X140120827Y-128209397D01*
X140266498Y-128269735D01*
X140266503Y-128269737D01*
X140421153Y-128300499D01*
X140421156Y-128300500D01*
X140421158Y-128300500D01*
X140578844Y-128300500D01*
X140578845Y-128300499D01*
X140733497Y-128269737D01*
X140879179Y-128209394D01*
X141010289Y-128121789D01*
X141010292Y-128121786D01*
X141037819Y-128094260D01*
X141099142Y-128060775D01*
X141168834Y-128065759D01*
X141224767Y-128107631D01*
X141249184Y-128173095D01*
X141249500Y-128181941D01*
X141249500Y-130404305D01*
X141229815Y-130471344D01*
X141213181Y-130491986D01*
X134145485Y-137559681D01*
X134145484Y-137559682D01*
X134006659Y-137750756D01*
X134006658Y-137750758D01*
X133956739Y-137848731D01*
X133899433Y-137961197D01*
X133826446Y-138185825D01*
X133789500Y-138419096D01*
X133789500Y-156279397D01*
X133826446Y-156512668D01*
X133899433Y-156737296D01*
X133984091Y-156903445D01*
X134006657Y-156947733D01*
X134145483Y-157138810D01*
X134312490Y-157305817D01*
X134503567Y-157444643D01*
X134586301Y-157486798D01*
X134714003Y-157551866D01*
X134714005Y-157551866D01*
X134714008Y-157551868D01*
X134834412Y-157590989D01*
X134938631Y-157624853D01*
X135171903Y-157661800D01*
X135171908Y-157661800D01*
X135408097Y-157661800D01*
X135641368Y-157624853D01*
X135865992Y-157551868D01*
X136076433Y-157444643D01*
X136267510Y-157305817D01*
X136434517Y-157138810D01*
X136573343Y-156947733D01*
X136680568Y-156737292D01*
X136753553Y-156512668D01*
X136760956Y-156465925D01*
X136790500Y-156279397D01*
X136790500Y-155538435D01*
X146134500Y-155538435D01*
X146134500Y-157284170D01*
X146134501Y-157284176D01*
X146140908Y-157343783D01*
X146191202Y-157478628D01*
X146191206Y-157478635D01*
X146277452Y-157593844D01*
X146277455Y-157593847D01*
X146392664Y-157680093D01*
X146392671Y-157680097D01*
X146527517Y-157730391D01*
X146527516Y-157730391D01*
X146534444Y-157731135D01*
X146587127Y-157736800D01*
X148332872Y-157736799D01*
X148392483Y-157730391D01*
X148527331Y-157680096D01*
X148642546Y-157593846D01*
X148728796Y-157478631D01*
X148779091Y-157343783D01*
X148785500Y-157284173D01*
X148785499Y-155538428D01*
X148779091Y-155478817D01*
X148743447Y-155383251D01*
X148728797Y-155343971D01*
X148728793Y-155343964D01*
X148642547Y-155228755D01*
X148642544Y-155228752D01*
X148527335Y-155142506D01*
X148527328Y-155142502D01*
X148392482Y-155092208D01*
X148392483Y-155092208D01*
X148332883Y-155085801D01*
X148332881Y-155085800D01*
X148332873Y-155085800D01*
X148332864Y-155085800D01*
X146587129Y-155085800D01*
X146587123Y-155085801D01*
X146527516Y-155092208D01*
X146392671Y-155142502D01*
X146392664Y-155142506D01*
X146277455Y-155228752D01*
X146277452Y-155228755D01*
X146191206Y-155343964D01*
X146191202Y-155343971D01*
X146140908Y-155478817D01*
X146138631Y-155500000D01*
X146134501Y-155538423D01*
X146134500Y-155538435D01*
X136790500Y-155538435D01*
X136790500Y-144343435D01*
X140149500Y-144343435D01*
X140149500Y-146639170D01*
X140149501Y-146639176D01*
X140155908Y-146698783D01*
X140206202Y-146833628D01*
X140206206Y-146833635D01*
X140292452Y-146948844D01*
X140292455Y-146948847D01*
X140407664Y-147035093D01*
X140407671Y-147035097D01*
X140542517Y-147085391D01*
X140542516Y-147085391D01*
X140549444Y-147086135D01*
X140602127Y-147091800D01*
X142897872Y-147091799D01*
X142957483Y-147085391D01*
X143092331Y-147035096D01*
X143207546Y-146948846D01*
X143293796Y-146833631D01*
X143344091Y-146698783D01*
X143350500Y-146639173D01*
X143350499Y-144343428D01*
X143344091Y-144283817D01*
X143293796Y-144148969D01*
X143293795Y-144148968D01*
X143293793Y-144148964D01*
X143207547Y-144033755D01*
X143207544Y-144033752D01*
X143092335Y-143947506D01*
X143092328Y-143947502D01*
X142957482Y-143897208D01*
X142957483Y-143897208D01*
X142897883Y-143890801D01*
X142897881Y-143890800D01*
X142897873Y-143890800D01*
X142897864Y-143890800D01*
X140602129Y-143890800D01*
X140602123Y-143890801D01*
X140542516Y-143897208D01*
X140407671Y-143947502D01*
X140407664Y-143947506D01*
X140292455Y-144033752D01*
X140292452Y-144033755D01*
X140206206Y-144148964D01*
X140206202Y-144148971D01*
X140155908Y-144283817D01*
X140149501Y-144343416D01*
X140149501Y-144343423D01*
X140149500Y-144343435D01*
X136790500Y-144343435D01*
X136790500Y-139210082D01*
X136810185Y-139143043D01*
X136826814Y-139122406D01*
X140059525Y-135889695D01*
X140120844Y-135856213D01*
X140190536Y-135861197D01*
X140246469Y-135903069D01*
X140265132Y-135939057D01*
X140267222Y-135945490D01*
X140381557Y-136169883D01*
X140529590Y-136373631D01*
X140529590Y-136373632D01*
X140707667Y-136551709D01*
X140911416Y-136699742D01*
X141135815Y-136814080D01*
X141375329Y-136891902D01*
X141500000Y-136911648D01*
X141500000Y-135822047D01*
X141537708Y-135843818D01*
X141677591Y-135881300D01*
X141822409Y-135881300D01*
X141962292Y-135843818D01*
X142000000Y-135822047D01*
X142000000Y-136911647D01*
X142124668Y-136891902D01*
X142124671Y-136891902D01*
X142364184Y-136814080D01*
X142588583Y-136699742D01*
X142792331Y-136551709D01*
X142792332Y-136551709D01*
X142970409Y-136373632D01*
X142970409Y-136373631D01*
X143118442Y-136169883D01*
X143232780Y-135945484D01*
X143310602Y-135705971D01*
X143310602Y-135705968D01*
X143330348Y-135581300D01*
X142240748Y-135581300D01*
X142262518Y-135543592D01*
X142300000Y-135403709D01*
X142300000Y-135258891D01*
X142262518Y-135119008D01*
X142240748Y-135081300D01*
X143330348Y-135081300D01*
X143310602Y-134956631D01*
X143310602Y-134956628D01*
X143232780Y-134717115D01*
X143118442Y-134492716D01*
X142970409Y-134288968D01*
X142970409Y-134288967D01*
X142792332Y-134110890D01*
X142588583Y-133962857D01*
X142364190Y-133848522D01*
X142357757Y-133846432D01*
X142300083Y-133806992D01*
X142272887Y-133742633D01*
X142284803Y-133673787D01*
X142308392Y-133640828D01*
X143894517Y-132054704D01*
X144033343Y-131863628D01*
X144140568Y-131653186D01*
X144213553Y-131428563D01*
X144232706Y-131307635D01*
X144250500Y-131195291D01*
X144250500Y-123752135D01*
X144499500Y-123752135D01*
X144499500Y-125847870D01*
X144499501Y-125847876D01*
X144505908Y-125907483D01*
X144556202Y-126042328D01*
X144556206Y-126042335D01*
X144642452Y-126157544D01*
X144642455Y-126157547D01*
X144757664Y-126243793D01*
X144757671Y-126243797D01*
X144892517Y-126294091D01*
X144892516Y-126294091D01*
X144899444Y-126294835D01*
X144952127Y-126300500D01*
X147047872Y-126300499D01*
X147107483Y-126294091D01*
X147242331Y-126243796D01*
X147357546Y-126157546D01*
X147443796Y-126042331D01*
X147494091Y-125907483D01*
X147500500Y-125847873D01*
X147500499Y-123752128D01*
X147494091Y-123692517D01*
X147492272Y-123687641D01*
X147443797Y-123557671D01*
X147443793Y-123557664D01*
X147357547Y-123442455D01*
X147357544Y-123442452D01*
X147242335Y-123356206D01*
X147242328Y-123356202D01*
X147107482Y-123305908D01*
X147107483Y-123305908D01*
X147047883Y-123299501D01*
X147047881Y-123299500D01*
X147047873Y-123299500D01*
X147047864Y-123299500D01*
X144952129Y-123299500D01*
X144952123Y-123299501D01*
X144892516Y-123305908D01*
X144757671Y-123356202D01*
X144757664Y-123356206D01*
X144642455Y-123442452D01*
X144642452Y-123442455D01*
X144556206Y-123557664D01*
X144556202Y-123557671D01*
X144505908Y-123692517D01*
X144502243Y-123726612D01*
X144499501Y-123752123D01*
X144499500Y-123752135D01*
X144250500Y-123752135D01*
X144250500Y-117081947D01*
X144500000Y-117081947D01*
X144500000Y-117318052D01*
X144536934Y-117551247D01*
X144609897Y-117775802D01*
X144717087Y-117986174D01*
X144777338Y-118069104D01*
X144777340Y-118069105D01*
X145600000Y-117246445D01*
X145600000Y-117252661D01*
X145627259Y-117354394D01*
X145679920Y-117445606D01*
X145754394Y-117520080D01*
X145845606Y-117572741D01*
X145947339Y-117600000D01*
X145953554Y-117600000D01*
X145130893Y-118422658D01*
X145213828Y-118482914D01*
X145424197Y-118590102D01*
X145648752Y-118663065D01*
X145648751Y-118663065D01*
X145881948Y-118700000D01*
X146118052Y-118700000D01*
X146351247Y-118663065D01*
X146575802Y-118590102D01*
X146786163Y-118482918D01*
X146786169Y-118482914D01*
X146869104Y-118422658D01*
X146869105Y-118422658D01*
X146046446Y-117600000D01*
X146052661Y-117600000D01*
X146154394Y-117572741D01*
X146245606Y-117520080D01*
X146320080Y-117445606D01*
X146372741Y-117354394D01*
X146400000Y-117252661D01*
X146400000Y-117246447D01*
X147222658Y-118069105D01*
X147222658Y-118069104D01*
X147282914Y-117986169D01*
X147282918Y-117986163D01*
X147390102Y-117775802D01*
X147463065Y-117551247D01*
X147500000Y-117318052D01*
X147500000Y-117081947D01*
X147463065Y-116848752D01*
X147390102Y-116624197D01*
X147282914Y-116413828D01*
X147222658Y-116330894D01*
X147222658Y-116330893D01*
X146400000Y-117153552D01*
X146400000Y-117147339D01*
X146372741Y-117045606D01*
X146320080Y-116954394D01*
X146245606Y-116879920D01*
X146154394Y-116827259D01*
X146052661Y-116800000D01*
X146046447Y-116800000D01*
X146869105Y-115977340D01*
X146869104Y-115977338D01*
X146786174Y-115917087D01*
X146575802Y-115809897D01*
X146351247Y-115736934D01*
X146351248Y-115736934D01*
X146118052Y-115700000D01*
X145881948Y-115700000D01*
X145648752Y-115736934D01*
X145424197Y-115809897D01*
X145213830Y-115917084D01*
X145130894Y-115977340D01*
X145953554Y-116800000D01*
X145947339Y-116800000D01*
X145845606Y-116827259D01*
X145754394Y-116879920D01*
X145679920Y-116954394D01*
X145627259Y-117045606D01*
X145600000Y-117147339D01*
X145600000Y-117153553D01*
X144777340Y-116330894D01*
X144717084Y-116413830D01*
X144609897Y-116624197D01*
X144536934Y-116848752D01*
X144500000Y-117081947D01*
X144250500Y-117081947D01*
X144250500Y-103777363D01*
X144256569Y-103739045D01*
X144264553Y-103714474D01*
X144286493Y-103575952D01*
X144301500Y-103481203D01*
X144301500Y-103421889D01*
X144321185Y-103354850D01*
X144337819Y-103334208D01*
X147537819Y-100134208D01*
X147599142Y-100100723D01*
X147668834Y-100105707D01*
X147724767Y-100147579D01*
X147749184Y-100213043D01*
X147749500Y-100221889D01*
X147749500Y-140618097D01*
X147786446Y-140851368D01*
X147859433Y-141075996D01*
X147966657Y-141286434D01*
X148105484Y-141477511D01*
X150963181Y-144335208D01*
X150996666Y-144396531D01*
X150999500Y-144422889D01*
X150999500Y-156489397D01*
X151036446Y-156722668D01*
X151109433Y-156947296D01*
X151202417Y-157129786D01*
X151216657Y-157157734D01*
X151352054Y-157344091D01*
X151355484Y-157348811D01*
X151355486Y-157348813D01*
X151562491Y-157555819D01*
X151562496Y-157555823D01*
X151657509Y-157624853D01*
X151753567Y-157694643D01*
X151887659Y-157762966D01*
X151964003Y-157801866D01*
X151964005Y-157801866D01*
X151964008Y-157801868D01*
X152084412Y-157840989D01*
X152188631Y-157874853D01*
X152421904Y-157911800D01*
X152421909Y-157911800D01*
X152658097Y-157911800D01*
X152891369Y-157874853D01*
X153115993Y-157801868D01*
X153326434Y-157694643D01*
X153517510Y-157555818D01*
X153684518Y-157388810D01*
X153823343Y-157197734D01*
X153930568Y-156987293D01*
X154003553Y-156762669D01*
X154007572Y-156737292D01*
X154040500Y-156529397D01*
X154040500Y-156293203D01*
X154002791Y-156055121D01*
X154003165Y-156055061D01*
X154000500Y-156032540D01*
X154000500Y-143631902D01*
X153963553Y-143398631D01*
X153890566Y-143174003D01*
X153823223Y-143041836D01*
X153823222Y-143041835D01*
X153783343Y-142963566D01*
X153644517Y-142772490D01*
X150786819Y-139914792D01*
X150753334Y-139853469D01*
X150750500Y-139827111D01*
X150750500Y-137671153D01*
X156199500Y-137671153D01*
X156199500Y-137828846D01*
X156230261Y-137983489D01*
X156230264Y-137983501D01*
X156290602Y-138129172D01*
X156290609Y-138129185D01*
X156378210Y-138260288D01*
X156378213Y-138260292D01*
X156489707Y-138371786D01*
X156489711Y-138371789D01*
X156620814Y-138459390D01*
X156620827Y-138459397D01*
X156766498Y-138519735D01*
X156766503Y-138519737D01*
X156921153Y-138550499D01*
X156921156Y-138550500D01*
X156921158Y-138550500D01*
X157078840Y-138550500D01*
X157078842Y-138550500D01*
X157084088Y-138549456D01*
X157153678Y-138555676D01*
X157195971Y-138583390D01*
X164506181Y-145893600D01*
X164539666Y-145954923D01*
X164542500Y-145981281D01*
X164542500Y-154525500D01*
X164522815Y-154592539D01*
X164470011Y-154638294D01*
X164418501Y-154649500D01*
X164272130Y-154649500D01*
X164272123Y-154649501D01*
X164212516Y-154655908D01*
X164077671Y-154706202D01*
X164077664Y-154706206D01*
X163962455Y-154792452D01*
X163962452Y-154792455D01*
X163876206Y-154907664D01*
X163876202Y-154907671D01*
X163825908Y-155042517D01*
X163819501Y-155102116D01*
X163819500Y-155102135D01*
X163819500Y-156897870D01*
X163819501Y-156897876D01*
X163825908Y-156957483D01*
X163876202Y-157092328D01*
X163876206Y-157092335D01*
X163962452Y-157207544D01*
X163962455Y-157207547D01*
X164077664Y-157293793D01*
X164077671Y-157293797D01*
X164212517Y-157344091D01*
X164212516Y-157344091D01*
X164219444Y-157344835D01*
X164272127Y-157350500D01*
X166067872Y-157350499D01*
X166127483Y-157344091D01*
X166262331Y-157293796D01*
X166377546Y-157207546D01*
X166463796Y-157092331D01*
X166512810Y-156960916D01*
X166554681Y-156904984D01*
X166620145Y-156880566D01*
X166688418Y-156895417D01*
X166716673Y-156916569D01*
X166830213Y-157030109D01*
X167002179Y-157155048D01*
X167002181Y-157155049D01*
X167002184Y-157155051D01*
X167191588Y-157251557D01*
X167393757Y-157317246D01*
X167603713Y-157350500D01*
X167603714Y-157350500D01*
X167816286Y-157350500D01*
X167816287Y-157350500D01*
X168026243Y-157317246D01*
X168228412Y-157251557D01*
X168417816Y-157155051D01*
X168502145Y-157093783D01*
X168589786Y-157030109D01*
X168589788Y-157030106D01*
X168589792Y-157030104D01*
X168740104Y-156879792D01*
X168740106Y-156879788D01*
X168740109Y-156879786D01*
X168825890Y-156761717D01*
X168865051Y-156707816D01*
X168869793Y-156698508D01*
X168917763Y-156647711D01*
X168985583Y-156630911D01*
X169051719Y-156653445D01*
X169090763Y-156698500D01*
X169095373Y-156707547D01*
X169134728Y-156761716D01*
X169767037Y-156129408D01*
X169784075Y-156192993D01*
X169849901Y-156307007D01*
X169942993Y-156400099D01*
X170057007Y-156465925D01*
X170120590Y-156482962D01*
X169488282Y-157115269D01*
X169488282Y-157115270D01*
X169542449Y-157154624D01*
X169731782Y-157251095D01*
X169933870Y-157316757D01*
X170143754Y-157350000D01*
X170356246Y-157350000D01*
X170566127Y-157316757D01*
X170566130Y-157316757D01*
X170768217Y-157251095D01*
X170957554Y-157154622D01*
X171011716Y-157115270D01*
X171011717Y-157115270D01*
X170379408Y-156482962D01*
X170442993Y-156465925D01*
X170557007Y-156400099D01*
X170650099Y-156307007D01*
X170715925Y-156192993D01*
X170732962Y-156129408D01*
X171365270Y-156761717D01*
X171365270Y-156761716D01*
X171404622Y-156707554D01*
X171501095Y-156518217D01*
X171566757Y-156316130D01*
X171566757Y-156316127D01*
X171600000Y-156106246D01*
X171600000Y-155893753D01*
X171566757Y-155683872D01*
X171566757Y-155683869D01*
X171501095Y-155481782D01*
X171404624Y-155292449D01*
X171365270Y-155238282D01*
X171365269Y-155238282D01*
X170732962Y-155870590D01*
X170715925Y-155807007D01*
X170650099Y-155692993D01*
X170557007Y-155599901D01*
X170442993Y-155534075D01*
X170379409Y-155517037D01*
X171011716Y-154884728D01*
X170957550Y-154845375D01*
X170768217Y-154748904D01*
X170566129Y-154683242D01*
X170356246Y-154650000D01*
X170143754Y-154650000D01*
X169933872Y-154683242D01*
X169933869Y-154683242D01*
X169731782Y-154748904D01*
X169542439Y-154845380D01*
X169488282Y-154884727D01*
X169488282Y-154884728D01*
X170120591Y-155517037D01*
X170057007Y-155534075D01*
X169942993Y-155599901D01*
X169849901Y-155692993D01*
X169784075Y-155807007D01*
X169767037Y-155870591D01*
X169134728Y-155238282D01*
X169134727Y-155238282D01*
X169095380Y-155292440D01*
X169095376Y-155292446D01*
X169090760Y-155301505D01*
X169042781Y-155352297D01*
X168974959Y-155369087D01*
X168908826Y-155346543D01*
X168869794Y-155301493D01*
X168865051Y-155292184D01*
X168865049Y-155292181D01*
X168865048Y-155292179D01*
X168740109Y-155120213D01*
X168589786Y-154969890D01*
X168417820Y-154844951D01*
X168228414Y-154748444D01*
X168228413Y-154748443D01*
X168228412Y-154748443D01*
X168026243Y-154682754D01*
X168026241Y-154682753D01*
X168026240Y-154682753D01*
X167864957Y-154657208D01*
X167816287Y-154649500D01*
X167603713Y-154649500D01*
X167555042Y-154657208D01*
X167393760Y-154682753D01*
X167191585Y-154748444D01*
X167002179Y-154844951D01*
X166830215Y-154969889D01*
X166716673Y-155083431D01*
X166655350Y-155116915D01*
X166585658Y-155111931D01*
X166529725Y-155070059D01*
X166512810Y-155039082D01*
X166463797Y-154907671D01*
X166463793Y-154907664D01*
X166377547Y-154792455D01*
X166377544Y-154792452D01*
X166262335Y-154706206D01*
X166262328Y-154706202D01*
X166127482Y-154655908D01*
X166127483Y-154655908D01*
X166067883Y-154649501D01*
X166067881Y-154649500D01*
X166067873Y-154649500D01*
X166067865Y-154649500D01*
X165921500Y-154649500D01*
X165854461Y-154629815D01*
X165808706Y-154577011D01*
X165797500Y-154525500D01*
X165797500Y-145608194D01*
X165773386Y-145486970D01*
X165773385Y-145486969D01*
X165773385Y-145486965D01*
X165773383Y-145486960D01*
X165726086Y-145372773D01*
X165726079Y-145372760D01*
X165657412Y-145269993D01*
X165657411Y-145269992D01*
X165570008Y-145182589D01*
X161673853Y-141286434D01*
X157650013Y-137262593D01*
X157650011Y-137262591D01*
X157644063Y-137258617D01*
X157625274Y-137243197D01*
X157621790Y-137239713D01*
X157621789Y-137239711D01*
X157510289Y-137128211D01*
X157510288Y-137128210D01*
X157510287Y-137128209D01*
X157379185Y-137040609D01*
X157379172Y-137040602D01*
X157233501Y-136980264D01*
X157233489Y-136980261D01*
X157078845Y-136949500D01*
X157078842Y-136949500D01*
X156921158Y-136949500D01*
X156921155Y-136949500D01*
X156766510Y-136980261D01*
X156766498Y-136980264D01*
X156620827Y-137040602D01*
X156620814Y-137040609D01*
X156489711Y-137128210D01*
X156489707Y-137128213D01*
X156378213Y-137239707D01*
X156378210Y-137239711D01*
X156290609Y-137370814D01*
X156290602Y-137370827D01*
X156230264Y-137516498D01*
X156230261Y-137516510D01*
X156199500Y-137671153D01*
X150750500Y-137671153D01*
X150750500Y-116869778D01*
X155849500Y-116869778D01*
X155849500Y-117090222D01*
X155859255Y-117151815D01*
X155883985Y-117307952D01*
X155952103Y-117517603D01*
X155952104Y-117517606D01*
X156052187Y-117714025D01*
X156181752Y-117892358D01*
X156181756Y-117892363D01*
X156337640Y-118048247D01*
X156477679Y-118149990D01*
X156520345Y-118205319D01*
X156526324Y-118274933D01*
X156493719Y-118336728D01*
X156477679Y-118350626D01*
X156452485Y-118368930D01*
X156452485Y-118368932D01*
X157161414Y-119077861D01*
X157076306Y-119100667D01*
X156973694Y-119159910D01*
X156889910Y-119243694D01*
X156830667Y-119346306D01*
X156807861Y-119431414D01*
X156098932Y-118722485D01*
X156098931Y-118722485D01*
X156052616Y-118786233D01*
X155952567Y-118982589D01*
X155884473Y-119192164D01*
X155850000Y-119409818D01*
X155850000Y-119630181D01*
X155884473Y-119847835D01*
X155952567Y-120057410D01*
X156052611Y-120253756D01*
X156098932Y-120317513D01*
X156807861Y-119608584D01*
X156830667Y-119693694D01*
X156889910Y-119796306D01*
X156973694Y-119880090D01*
X157076306Y-119939333D01*
X157161414Y-119962137D01*
X156452485Y-120671065D01*
X156452485Y-120671066D01*
X156477680Y-120689371D01*
X156520346Y-120744701D01*
X156526325Y-120814314D01*
X156493720Y-120876110D01*
X156477681Y-120890008D01*
X156337636Y-120991756D01*
X156181756Y-121147636D01*
X156181752Y-121147641D01*
X156052187Y-121325974D01*
X155952104Y-121522393D01*
X155952103Y-121522396D01*
X155883985Y-121732047D01*
X155849500Y-121949778D01*
X155849500Y-122170221D01*
X155883985Y-122387952D01*
X155952103Y-122597603D01*
X155952104Y-122597606D01*
X156052187Y-122794025D01*
X156181752Y-122972358D01*
X156181756Y-122972363D01*
X156337636Y-123128243D01*
X156337641Y-123128247D01*
X156477254Y-123229682D01*
X156519920Y-123285012D01*
X156525899Y-123354625D01*
X156493293Y-123416420D01*
X156477254Y-123430318D01*
X156337641Y-123531752D01*
X156337636Y-123531756D01*
X156181756Y-123687636D01*
X156181752Y-123687641D01*
X156052187Y-123865974D01*
X155952104Y-124062393D01*
X155952103Y-124062396D01*
X155883985Y-124272047D01*
X155849500Y-124489778D01*
X155849500Y-124710221D01*
X155883985Y-124927952D01*
X155952103Y-125137603D01*
X155952104Y-125137606D01*
X156052187Y-125334025D01*
X156181752Y-125512358D01*
X156181756Y-125512363D01*
X156337636Y-125668243D01*
X156337641Y-125668247D01*
X156477254Y-125769682D01*
X156519920Y-125825012D01*
X156525899Y-125894625D01*
X156493293Y-125956420D01*
X156477254Y-125970318D01*
X156337641Y-126071752D01*
X156337636Y-126071756D01*
X156181756Y-126227636D01*
X156181752Y-126227641D01*
X156052187Y-126405974D01*
X155952104Y-126602393D01*
X155952103Y-126602396D01*
X155883985Y-126812047D01*
X155849500Y-127029778D01*
X155849500Y-127250221D01*
X155883985Y-127467952D01*
X155952103Y-127677603D01*
X155952104Y-127677606D01*
X155970065Y-127712855D01*
X156050550Y-127870814D01*
X156052187Y-127874025D01*
X156181752Y-128052358D01*
X156181756Y-128052363D01*
X156337636Y-128208243D01*
X156337641Y-128208247D01*
X156477254Y-128309682D01*
X156519920Y-128365012D01*
X156525899Y-128434625D01*
X156493293Y-128496420D01*
X156477254Y-128510318D01*
X156337641Y-128611752D01*
X156337636Y-128611756D01*
X156181756Y-128767636D01*
X156181752Y-128767641D01*
X156052187Y-128945974D01*
X155952104Y-129142393D01*
X155952103Y-129142396D01*
X155883985Y-129352047D01*
X155849500Y-129569778D01*
X155849500Y-129790221D01*
X155883985Y-130007952D01*
X155952103Y-130217603D01*
X155952104Y-130217606D01*
X156052187Y-130414025D01*
X156181752Y-130592358D01*
X156181756Y-130592363D01*
X156337636Y-130748243D01*
X156337641Y-130748247D01*
X156477254Y-130849682D01*
X156519920Y-130905012D01*
X156525899Y-130974625D01*
X156493293Y-131036420D01*
X156477254Y-131050318D01*
X156337641Y-131151752D01*
X156337636Y-131151756D01*
X156181756Y-131307636D01*
X156181752Y-131307641D01*
X156052187Y-131485974D01*
X155952104Y-131682393D01*
X155952103Y-131682396D01*
X155883985Y-131892047D01*
X155849500Y-132109778D01*
X155849500Y-132330221D01*
X155883985Y-132547952D01*
X155952103Y-132757603D01*
X155952104Y-132757606D01*
X156052187Y-132954025D01*
X156181752Y-133132358D01*
X156181756Y-133132363D01*
X156337636Y-133288243D01*
X156337641Y-133288247D01*
X156493192Y-133401260D01*
X156515978Y-133417815D01*
X156644375Y-133483237D01*
X156712393Y-133517895D01*
X156712396Y-133517896D01*
X156817221Y-133551955D01*
X156922049Y-133586015D01*
X157139778Y-133620500D01*
X157139779Y-133620500D01*
X157360221Y-133620500D01*
X157360222Y-133620500D01*
X157577951Y-133586015D01*
X157787606Y-133517895D01*
X157984022Y-133417815D01*
X158162365Y-133288242D01*
X158318242Y-133132365D01*
X158447815Y-132954022D01*
X158547895Y-132757606D01*
X158616015Y-132547951D01*
X158650500Y-132330222D01*
X158650500Y-132109778D01*
X158616015Y-131892049D01*
X158547895Y-131682394D01*
X158547895Y-131682393D01*
X158477258Y-131543763D01*
X158447815Y-131485978D01*
X158406098Y-131428559D01*
X158318247Y-131307641D01*
X158318243Y-131307636D01*
X158162363Y-131151756D01*
X158162358Y-131151752D01*
X158022745Y-131050318D01*
X157980079Y-130994989D01*
X157974100Y-130925375D01*
X158006705Y-130863580D01*
X158022745Y-130849682D01*
X158162358Y-130748247D01*
X158162356Y-130748247D01*
X158162365Y-130748242D01*
X158318242Y-130592365D01*
X158447815Y-130414022D01*
X158547895Y-130217606D01*
X158616015Y-130007951D01*
X158650500Y-129790222D01*
X158650500Y-129569778D01*
X158616015Y-129352049D01*
X158547895Y-129142394D01*
X158547895Y-129142393D01*
X158501072Y-129050500D01*
X158447815Y-128945978D01*
X158393912Y-128871786D01*
X158318247Y-128767641D01*
X158318243Y-128767636D01*
X158162363Y-128611756D01*
X158162358Y-128611752D01*
X158022745Y-128510318D01*
X157980079Y-128454989D01*
X157974100Y-128385375D01*
X158006705Y-128323580D01*
X158022745Y-128309682D01*
X158162358Y-128208247D01*
X158162356Y-128208247D01*
X158162365Y-128208242D01*
X158318242Y-128052365D01*
X158447815Y-127874022D01*
X158547895Y-127677606D01*
X158616015Y-127467951D01*
X158650500Y-127250222D01*
X158650500Y-127029778D01*
X158616015Y-126812049D01*
X158547895Y-126602394D01*
X158547895Y-126602393D01*
X158513237Y-126534375D01*
X158447815Y-126405978D01*
X158379014Y-126311281D01*
X158318247Y-126227641D01*
X158318243Y-126227636D01*
X158162363Y-126071756D01*
X158162358Y-126071752D01*
X158022745Y-125970318D01*
X157980079Y-125914989D01*
X157974100Y-125845375D01*
X158006705Y-125783580D01*
X158022745Y-125769682D01*
X158162358Y-125668247D01*
X158162356Y-125668247D01*
X158162365Y-125668242D01*
X158318242Y-125512365D01*
X158447815Y-125334022D01*
X158547895Y-125137606D01*
X158616015Y-124927951D01*
X158650500Y-124710222D01*
X158650500Y-124489778D01*
X158616015Y-124272049D01*
X158547895Y-124062394D01*
X158547895Y-124062393D01*
X158513237Y-123994375D01*
X158447815Y-123865978D01*
X158413181Y-123818308D01*
X158318247Y-123687641D01*
X158318243Y-123687636D01*
X158162363Y-123531756D01*
X158162358Y-123531752D01*
X158022745Y-123430318D01*
X157980079Y-123374989D01*
X157974100Y-123305375D01*
X158006705Y-123243580D01*
X158022745Y-123229682D01*
X158162358Y-123128247D01*
X158162356Y-123128247D01*
X158162365Y-123128242D01*
X158318242Y-122972365D01*
X158447815Y-122794022D01*
X158547895Y-122597606D01*
X158616015Y-122387951D01*
X158650500Y-122170222D01*
X158650500Y-121949778D01*
X158616015Y-121732049D01*
X158571529Y-121595134D01*
X158547896Y-121522396D01*
X158547895Y-121522393D01*
X158513237Y-121454375D01*
X158447815Y-121325978D01*
X158413181Y-121278308D01*
X158318247Y-121147641D01*
X158318243Y-121147636D01*
X158162363Y-120991756D01*
X158162358Y-120991752D01*
X158022319Y-120890008D01*
X157979653Y-120834678D01*
X157973674Y-120765065D01*
X158006279Y-120703270D01*
X158022319Y-120689372D01*
X158047513Y-120671066D01*
X158047514Y-120671066D01*
X157338585Y-119962138D01*
X157423694Y-119939333D01*
X157526306Y-119880090D01*
X157610090Y-119796306D01*
X157669333Y-119693694D01*
X157692137Y-119608585D01*
X158401066Y-120317514D01*
X158401066Y-120317513D01*
X158447386Y-120253760D01*
X158547432Y-120057410D01*
X158615526Y-119847835D01*
X158650000Y-119630181D01*
X158650000Y-119409818D01*
X158615526Y-119192164D01*
X158547432Y-118982589D01*
X158447388Y-118786243D01*
X158401066Y-118722485D01*
X158401065Y-118722485D01*
X157692137Y-119431413D01*
X157669333Y-119346306D01*
X157610090Y-119243694D01*
X157526306Y-119159910D01*
X157423694Y-119100667D01*
X157338583Y-119077861D01*
X158047513Y-118368932D01*
X158022319Y-118350628D01*
X157979653Y-118295298D01*
X157973674Y-118225685D01*
X158006279Y-118163889D01*
X158022313Y-118149994D01*
X158162365Y-118048242D01*
X158318242Y-117892365D01*
X158447815Y-117714022D01*
X158547895Y-117517606D01*
X158616015Y-117307951D01*
X158650500Y-117090222D01*
X158650500Y-116869778D01*
X158616015Y-116652049D01*
X158547895Y-116442394D01*
X158547895Y-116442393D01*
X158491082Y-116330894D01*
X158447815Y-116245978D01*
X158413181Y-116198308D01*
X158318247Y-116067641D01*
X158318243Y-116067636D01*
X158162363Y-115911756D01*
X158162358Y-115911752D01*
X157984025Y-115782187D01*
X157984024Y-115782186D01*
X157984022Y-115782185D01*
X157895213Y-115736934D01*
X157787606Y-115682104D01*
X157787603Y-115682103D01*
X157577952Y-115613985D01*
X157469086Y-115596742D01*
X157360222Y-115579500D01*
X157139778Y-115579500D01*
X157067201Y-115590995D01*
X156922047Y-115613985D01*
X156712396Y-115682103D01*
X156712393Y-115682104D01*
X156515974Y-115782187D01*
X156337641Y-115911752D01*
X156337636Y-115911756D01*
X156181756Y-116067636D01*
X156181752Y-116067641D01*
X156052187Y-116245974D01*
X155952104Y-116442393D01*
X155952103Y-116442396D01*
X155883985Y-116652047D01*
X155866477Y-116762589D01*
X155849500Y-116869778D01*
X150750500Y-116869778D01*
X150750500Y-112465646D01*
X151907000Y-112465646D01*
X151907000Y-112694353D01*
X151942778Y-112920246D01*
X151942778Y-112920249D01*
X152013450Y-113137755D01*
X152090000Y-113287992D01*
X152117283Y-113341538D01*
X152251714Y-113526566D01*
X152413434Y-113688286D01*
X152598462Y-113822717D01*
X152801327Y-113926082D01*
X152802244Y-113926549D01*
X153019751Y-113997221D01*
X153019752Y-113997221D01*
X153019755Y-113997222D01*
X153245646Y-114033000D01*
X153245647Y-114033000D01*
X153474353Y-114033000D01*
X153474354Y-114033000D01*
X153700245Y-113997222D01*
X153700248Y-113997221D01*
X153700249Y-113997221D01*
X153917755Y-113926549D01*
X153917755Y-113926548D01*
X153917758Y-113926548D01*
X154121538Y-113822717D01*
X154306566Y-113688286D01*
X154468286Y-113526566D01*
X154529991Y-113441635D01*
X154585321Y-113398970D01*
X154654934Y-113392991D01*
X154694290Y-113413756D01*
X154711347Y-113415099D01*
X155310439Y-112816007D01*
X155337271Y-112880785D01*
X155406764Y-112984789D01*
X155495211Y-113073236D01*
X155599215Y-113142729D01*
X155663991Y-113169560D01*
X155064899Y-113768651D01*
X155138725Y-113822288D01*
X155138731Y-113822292D01*
X155342431Y-113926082D01*
X155559875Y-113996734D01*
X155785687Y-114032500D01*
X156014313Y-114032500D01*
X156240124Y-113996734D01*
X156240125Y-113996734D01*
X156457568Y-113926082D01*
X156661276Y-113822288D01*
X156735098Y-113768651D01*
X156136007Y-113169560D01*
X156200785Y-113142729D01*
X156304789Y-113073236D01*
X156393236Y-112984789D01*
X156462729Y-112880785D01*
X156489560Y-112816008D01*
X157088651Y-113415099D01*
X157105503Y-113413772D01*
X157124699Y-113398970D01*
X157194312Y-113392989D01*
X157256107Y-113425594D01*
X157270007Y-113441634D01*
X157292540Y-113472648D01*
X157331714Y-113526566D01*
X157493434Y-113688286D01*
X157678462Y-113822717D01*
X157881327Y-113926082D01*
X157882244Y-113926549D01*
X158099751Y-113997221D01*
X158099752Y-113997221D01*
X158099755Y-113997222D01*
X158325646Y-114033000D01*
X158325647Y-114033000D01*
X158554353Y-114033000D01*
X158554354Y-114033000D01*
X158780245Y-113997222D01*
X158780248Y-113997221D01*
X158780249Y-113997221D01*
X158997755Y-113926549D01*
X158997755Y-113926548D01*
X158997758Y-113926548D01*
X159201538Y-113822717D01*
X159386566Y-113688286D01*
X159548286Y-113526566D01*
X159609683Y-113442059D01*
X159665012Y-113399396D01*
X159734625Y-113393417D01*
X159796420Y-113426023D01*
X159810314Y-113442056D01*
X159871714Y-113526566D01*
X160033434Y-113688286D01*
X160218462Y-113822717D01*
X160421327Y-113926082D01*
X160422244Y-113926549D01*
X160639751Y-113997221D01*
X160639752Y-113997221D01*
X160639755Y-113997222D01*
X160865646Y-114033000D01*
X160865647Y-114033000D01*
X161094353Y-114033000D01*
X161094354Y-114033000D01*
X161320245Y-113997222D01*
X161320248Y-113997221D01*
X161320249Y-113997221D01*
X161537755Y-113926549D01*
X161537755Y-113926548D01*
X161537758Y-113926548D01*
X161741538Y-113822717D01*
X161926566Y-113688286D01*
X162088286Y-113526566D01*
X162149683Y-113442059D01*
X162205012Y-113399396D01*
X162274625Y-113393417D01*
X162336420Y-113426023D01*
X162350314Y-113442056D01*
X162411714Y-113526566D01*
X162573434Y-113688286D01*
X162758462Y-113822717D01*
X162961327Y-113926082D01*
X162962244Y-113926549D01*
X163179751Y-113997221D01*
X163179752Y-113997221D01*
X163179755Y-113997222D01*
X163405646Y-114033000D01*
X163405647Y-114033000D01*
X163634353Y-114033000D01*
X163634354Y-114033000D01*
X163860245Y-113997222D01*
X163860248Y-113997221D01*
X163860249Y-113997221D01*
X164077755Y-113926549D01*
X164077755Y-113926548D01*
X164077758Y-113926548D01*
X164281538Y-113822717D01*
X164466566Y-113688286D01*
X164628286Y-113526566D01*
X164689683Y-113442059D01*
X164745012Y-113399396D01*
X164814625Y-113393417D01*
X164876420Y-113426023D01*
X164890314Y-113442056D01*
X164951714Y-113526566D01*
X165113434Y-113688286D01*
X165298462Y-113822717D01*
X165501327Y-113926082D01*
X165502244Y-113926549D01*
X165719751Y-113997221D01*
X165719752Y-113997221D01*
X165719755Y-113997222D01*
X165945646Y-114033000D01*
X165945647Y-114033000D01*
X166174353Y-114033000D01*
X166174354Y-114033000D01*
X166400245Y-113997222D01*
X166400248Y-113997221D01*
X166400249Y-113997221D01*
X166617755Y-113926549D01*
X166617755Y-113926548D01*
X166617758Y-113926548D01*
X166821538Y-113822717D01*
X167006566Y-113688286D01*
X167168286Y-113526566D01*
X167229683Y-113442059D01*
X167285012Y-113399396D01*
X167354625Y-113393417D01*
X167416420Y-113426023D01*
X167430314Y-113442056D01*
X167491714Y-113526566D01*
X167653434Y-113688286D01*
X167838462Y-113822717D01*
X168041327Y-113926082D01*
X168042244Y-113926549D01*
X168259751Y-113997221D01*
X168259752Y-113997221D01*
X168259755Y-113997222D01*
X168485646Y-114033000D01*
X168485647Y-114033000D01*
X168714353Y-114033000D01*
X168714354Y-114033000D01*
X168940245Y-113997222D01*
X168940248Y-113997221D01*
X168940249Y-113997221D01*
X169157755Y-113926549D01*
X169157755Y-113926548D01*
X169157758Y-113926548D01*
X169361538Y-113822717D01*
X169546566Y-113688286D01*
X169708286Y-113526566D01*
X169769683Y-113442059D01*
X169825012Y-113399396D01*
X169894625Y-113393417D01*
X169956420Y-113426023D01*
X169970314Y-113442056D01*
X170031714Y-113526566D01*
X170193434Y-113688286D01*
X170378462Y-113822717D01*
X170581327Y-113926082D01*
X170582244Y-113926549D01*
X170799751Y-113997221D01*
X170799752Y-113997221D01*
X170799755Y-113997222D01*
X171025646Y-114033000D01*
X171025647Y-114033000D01*
X171254353Y-114033000D01*
X171254354Y-114033000D01*
X171480245Y-113997222D01*
X171480248Y-113997221D01*
X171480249Y-113997221D01*
X171697755Y-113926549D01*
X171697755Y-113926548D01*
X171697758Y-113926548D01*
X171901538Y-113822717D01*
X172086566Y-113688286D01*
X172248286Y-113526566D01*
X172382717Y-113341538D01*
X172486548Y-113137758D01*
X172521588Y-113029916D01*
X172557221Y-112920249D01*
X172557221Y-112920248D01*
X172557222Y-112920245D01*
X172593000Y-112694354D01*
X172593000Y-112465646D01*
X172557222Y-112239755D01*
X172557221Y-112239751D01*
X172557221Y-112239750D01*
X172486549Y-112022244D01*
X172445737Y-111942146D01*
X172382717Y-111818462D01*
X172248286Y-111633434D01*
X172086566Y-111471714D01*
X171901538Y-111337283D01*
X171697755Y-111233450D01*
X171480248Y-111162778D01*
X171310826Y-111135944D01*
X171254354Y-111127000D01*
X171025646Y-111127000D01*
X170950349Y-111138926D01*
X170799753Y-111162778D01*
X170799750Y-111162778D01*
X170582244Y-111233450D01*
X170378461Y-111337283D01*
X170304051Y-111391346D01*
X170193434Y-111471714D01*
X170193432Y-111471716D01*
X170193431Y-111471716D01*
X170031715Y-111633432D01*
X169970318Y-111717938D01*
X169914987Y-111760603D01*
X169845374Y-111766582D01*
X169783579Y-111733976D01*
X169769682Y-111717938D01*
X169708288Y-111633437D01*
X169708286Y-111633434D01*
X169546566Y-111471714D01*
X169361538Y-111337283D01*
X169157755Y-111233450D01*
X168940248Y-111162778D01*
X168770826Y-111135944D01*
X168714354Y-111127000D01*
X168485646Y-111127000D01*
X168410349Y-111138926D01*
X168259753Y-111162778D01*
X168259750Y-111162778D01*
X168042244Y-111233450D01*
X167838461Y-111337283D01*
X167764051Y-111391346D01*
X167653434Y-111471714D01*
X167653432Y-111471716D01*
X167653431Y-111471716D01*
X167491715Y-111633432D01*
X167430318Y-111717938D01*
X167374987Y-111760603D01*
X167305374Y-111766582D01*
X167243579Y-111733976D01*
X167229682Y-111717938D01*
X167168288Y-111633437D01*
X167168286Y-111633434D01*
X167006566Y-111471714D01*
X166821538Y-111337283D01*
X166617755Y-111233450D01*
X166400248Y-111162778D01*
X166230826Y-111135944D01*
X166174354Y-111127000D01*
X165945646Y-111127000D01*
X165870349Y-111138926D01*
X165719753Y-111162778D01*
X165719750Y-111162778D01*
X165502244Y-111233450D01*
X165298461Y-111337283D01*
X165224051Y-111391346D01*
X165113434Y-111471714D01*
X165113432Y-111471716D01*
X165113431Y-111471716D01*
X164951715Y-111633432D01*
X164890318Y-111717938D01*
X164834987Y-111760603D01*
X164765374Y-111766582D01*
X164703579Y-111733976D01*
X164689682Y-111717938D01*
X164628288Y-111633437D01*
X164628286Y-111633434D01*
X164466566Y-111471714D01*
X164281538Y-111337283D01*
X164077755Y-111233450D01*
X163860248Y-111162778D01*
X163690826Y-111135944D01*
X163634354Y-111127000D01*
X163405646Y-111127000D01*
X163330349Y-111138926D01*
X163179753Y-111162778D01*
X163179750Y-111162778D01*
X162962244Y-111233450D01*
X162758461Y-111337283D01*
X162684051Y-111391346D01*
X162573434Y-111471714D01*
X162573432Y-111471716D01*
X162573431Y-111471716D01*
X162411715Y-111633432D01*
X162350318Y-111717938D01*
X162294987Y-111760603D01*
X162225374Y-111766582D01*
X162163579Y-111733976D01*
X162149682Y-111717938D01*
X162088288Y-111633437D01*
X162088286Y-111633434D01*
X161926566Y-111471714D01*
X161741538Y-111337283D01*
X161537755Y-111233450D01*
X161320248Y-111162778D01*
X161150826Y-111135944D01*
X161094354Y-111127000D01*
X160865646Y-111127000D01*
X160790349Y-111138926D01*
X160639753Y-111162778D01*
X160639750Y-111162778D01*
X160422244Y-111233450D01*
X160218461Y-111337283D01*
X160144051Y-111391346D01*
X160033434Y-111471714D01*
X160033432Y-111471716D01*
X160033431Y-111471716D01*
X159871715Y-111633432D01*
X159810318Y-111717938D01*
X159754987Y-111760603D01*
X159685374Y-111766582D01*
X159623579Y-111733976D01*
X159609682Y-111717938D01*
X159548288Y-111633437D01*
X159548286Y-111633434D01*
X159386566Y-111471714D01*
X159201538Y-111337283D01*
X158997755Y-111233450D01*
X158780248Y-111162778D01*
X158610826Y-111135944D01*
X158554354Y-111127000D01*
X158325646Y-111127000D01*
X158250349Y-111138926D01*
X158099753Y-111162778D01*
X158099750Y-111162778D01*
X157882244Y-111233450D01*
X157678461Y-111337283D01*
X157604051Y-111391346D01*
X157493434Y-111471714D01*
X157493432Y-111471716D01*
X157493431Y-111471716D01*
X157331716Y-111633431D01*
X157331709Y-111633440D01*
X157270007Y-111718364D01*
X157214677Y-111761030D01*
X157145063Y-111767008D01*
X157105710Y-111746242D01*
X157088651Y-111744899D01*
X156489560Y-112343990D01*
X156462729Y-112279215D01*
X156393236Y-112175211D01*
X156304789Y-112086764D01*
X156200785Y-112017271D01*
X156136006Y-111990438D01*
X156735099Y-111391347D01*
X156661276Y-111337711D01*
X156457568Y-111233917D01*
X156240124Y-111163265D01*
X156014313Y-111127500D01*
X155785687Y-111127500D01*
X155559875Y-111163265D01*
X155559874Y-111163265D01*
X155342431Y-111233917D01*
X155138719Y-111337713D01*
X155064900Y-111391346D01*
X155064899Y-111391347D01*
X155663991Y-111990439D01*
X155599215Y-112017271D01*
X155495211Y-112086764D01*
X155406764Y-112175211D01*
X155337271Y-112279215D01*
X155310439Y-112343991D01*
X154711347Y-111744899D01*
X154694490Y-111746226D01*
X154675293Y-111761029D01*
X154605679Y-111767007D01*
X154543885Y-111734399D01*
X154529990Y-111718362D01*
X154468288Y-111633437D01*
X154468283Y-111633431D01*
X154306568Y-111471716D01*
X154306566Y-111471714D01*
X154121538Y-111337283D01*
X153917755Y-111233450D01*
X153700248Y-111162778D01*
X153530826Y-111135944D01*
X153474354Y-111127000D01*
X153245646Y-111127000D01*
X153170349Y-111138926D01*
X153019753Y-111162778D01*
X153019750Y-111162778D01*
X152802244Y-111233450D01*
X152598461Y-111337283D01*
X152524051Y-111391346D01*
X152413434Y-111471714D01*
X152413432Y-111471716D01*
X152413431Y-111471716D01*
X152251716Y-111633431D01*
X152251716Y-111633432D01*
X152251714Y-111633434D01*
X152251712Y-111633437D01*
X152117283Y-111818461D01*
X152013450Y-112022244D01*
X151942778Y-112239750D01*
X151942778Y-112239753D01*
X151907000Y-112465646D01*
X150750500Y-112465646D01*
X150750500Y-100698048D01*
X152329500Y-100698048D01*
X152329500Y-100941951D01*
X152351947Y-101112444D01*
X152361334Y-101183744D01*
X152410617Y-101367673D01*
X152424456Y-101419320D01*
X152424459Y-101419330D01*
X152517786Y-101644640D01*
X152517791Y-101644651D01*
X152639727Y-101855848D01*
X152639738Y-101855864D01*
X152788199Y-102049343D01*
X152788205Y-102049350D01*
X152960649Y-102221794D01*
X152960655Y-102221799D01*
X153154144Y-102370268D01*
X153154151Y-102370272D01*
X153365348Y-102492208D01*
X153365353Y-102492210D01*
X153365356Y-102492212D01*
X153590679Y-102585544D01*
X153826256Y-102648666D01*
X154068056Y-102680500D01*
X154068063Y-102680500D01*
X154311937Y-102680500D01*
X154311944Y-102680500D01*
X154553744Y-102648666D01*
X154789321Y-102585544D01*
X155014644Y-102492212D01*
X155225856Y-102370268D01*
X155419345Y-102221799D01*
X155591799Y-102049345D01*
X155740268Y-101855856D01*
X155862212Y-101644644D01*
X155955544Y-101419321D01*
X156018666Y-101183744D01*
X156050500Y-100941944D01*
X156050500Y-100698056D01*
X156050499Y-100698048D01*
X168449500Y-100698048D01*
X168449500Y-100941951D01*
X168471947Y-101112444D01*
X168481334Y-101183744D01*
X168530617Y-101367673D01*
X168544456Y-101419320D01*
X168544459Y-101419330D01*
X168637786Y-101644640D01*
X168637791Y-101644651D01*
X168759727Y-101855848D01*
X168759738Y-101855864D01*
X168908199Y-102049343D01*
X168908205Y-102049350D01*
X169080649Y-102221794D01*
X169080655Y-102221799D01*
X169274144Y-102370268D01*
X169274151Y-102370272D01*
X169485348Y-102492208D01*
X169485353Y-102492210D01*
X169485356Y-102492212D01*
X169710679Y-102585544D01*
X169946256Y-102648666D01*
X170188056Y-102680500D01*
X170188063Y-102680500D01*
X170431937Y-102680500D01*
X170431944Y-102680500D01*
X170673744Y-102648666D01*
X170909321Y-102585544D01*
X171134644Y-102492212D01*
X171345856Y-102370268D01*
X171539345Y-102221799D01*
X171711799Y-102049345D01*
X171860268Y-101855856D01*
X171982212Y-101644644D01*
X172075544Y-101419321D01*
X172138666Y-101183744D01*
X172170500Y-100941944D01*
X172170500Y-100698056D01*
X172138666Y-100456256D01*
X172075544Y-100220679D01*
X172066978Y-100200000D01*
X172027921Y-100105707D01*
X171982212Y-99995356D01*
X171982210Y-99995353D01*
X171982208Y-99995348D01*
X171860272Y-99784151D01*
X171860268Y-99784144D01*
X171711799Y-99590655D01*
X171711794Y-99590649D01*
X171539350Y-99418205D01*
X171539343Y-99418199D01*
X171345864Y-99269738D01*
X171345862Y-99269736D01*
X171345856Y-99269732D01*
X171345851Y-99269729D01*
X171345848Y-99269727D01*
X171134651Y-99147791D01*
X171134640Y-99147786D01*
X170909330Y-99054459D01*
X170909323Y-99054457D01*
X170909321Y-99054456D01*
X170673744Y-98991334D01*
X170633333Y-98986013D01*
X170431951Y-98959500D01*
X170431944Y-98959500D01*
X170188056Y-98959500D01*
X170188048Y-98959500D01*
X169957896Y-98989801D01*
X169946256Y-98991334D01*
X169783634Y-99034908D01*
X169710679Y-99054456D01*
X169710669Y-99054459D01*
X169485359Y-99147786D01*
X169485348Y-99147791D01*
X169274151Y-99269727D01*
X169274135Y-99269738D01*
X169080656Y-99418199D01*
X169080649Y-99418205D01*
X168908205Y-99590649D01*
X168908199Y-99590656D01*
X168759738Y-99784135D01*
X168759727Y-99784151D01*
X168637791Y-99995348D01*
X168637786Y-99995359D01*
X168544459Y-100220669D01*
X168544456Y-100220679D01*
X168481335Y-100456253D01*
X168481333Y-100456264D01*
X168449500Y-100698048D01*
X156050499Y-100698048D01*
X156018666Y-100456256D01*
X155955544Y-100220679D01*
X155946978Y-100200000D01*
X155907921Y-100105707D01*
X155862212Y-99995356D01*
X155862210Y-99995353D01*
X155862208Y-99995348D01*
X155740272Y-99784151D01*
X155740268Y-99784144D01*
X155591799Y-99590655D01*
X155591794Y-99590649D01*
X155419350Y-99418205D01*
X155419343Y-99418199D01*
X155225864Y-99269738D01*
X155225862Y-99269736D01*
X155225856Y-99269732D01*
X155225851Y-99269729D01*
X155225848Y-99269727D01*
X155014651Y-99147791D01*
X155014640Y-99147786D01*
X154789330Y-99054459D01*
X154789323Y-99054457D01*
X154789321Y-99054456D01*
X154553744Y-98991334D01*
X154513333Y-98986013D01*
X154311951Y-98959500D01*
X154311944Y-98959500D01*
X154068056Y-98959500D01*
X154068048Y-98959500D01*
X153837896Y-98989801D01*
X153826256Y-98991334D01*
X153663634Y-99034908D01*
X153590679Y-99054456D01*
X153590669Y-99054459D01*
X153365359Y-99147786D01*
X153365348Y-99147791D01*
X153154151Y-99269727D01*
X153154135Y-99269738D01*
X152960656Y-99418199D01*
X152960649Y-99418205D01*
X152788205Y-99590649D01*
X152788199Y-99590656D01*
X152639738Y-99784135D01*
X152639727Y-99784151D01*
X152517791Y-99995348D01*
X152517786Y-99995359D01*
X152424459Y-100220669D01*
X152424456Y-100220679D01*
X152361335Y-100456253D01*
X152361333Y-100456264D01*
X152329500Y-100698048D01*
X150750500Y-100698048D01*
X150750500Y-96972889D01*
X150770185Y-96905850D01*
X150786819Y-96885208D01*
X151510209Y-96161818D01*
X151571532Y-96128333D01*
X151597890Y-96125499D01*
X152222871Y-96125499D01*
X152222872Y-96125499D01*
X152282483Y-96119091D01*
X152417331Y-96068796D01*
X152532546Y-95982546D01*
X152618796Y-95867331D01*
X152669091Y-95732483D01*
X152675500Y-95672873D01*
X152675499Y-95247887D01*
X152695183Y-95180849D01*
X152711813Y-95160212D01*
X153499955Y-94372070D01*
X169324500Y-94372070D01*
X169324500Y-94627929D01*
X169364526Y-94880640D01*
X169443588Y-95123972D01*
X169443589Y-95123975D01*
X169559750Y-95351950D01*
X169710132Y-95558935D01*
X169710136Y-95558940D01*
X169891059Y-95739863D01*
X169891064Y-95739867D01*
X170066501Y-95867328D01*
X170098053Y-95890252D01*
X170226996Y-95955952D01*
X170326024Y-96006410D01*
X170326027Y-96006411D01*
X170399945Y-96030428D01*
X170569361Y-96085474D01*
X170822070Y-96125500D01*
X170822071Y-96125500D01*
X171077929Y-96125500D01*
X171077930Y-96125500D01*
X171330639Y-96085474D01*
X171573975Y-96006410D01*
X171801947Y-95890252D01*
X172008942Y-95739862D01*
X172189862Y-95558942D01*
X172340252Y-95351947D01*
X172456410Y-95123975D01*
X172535474Y-94880639D01*
X172575500Y-94627930D01*
X172575500Y-94372070D01*
X172535474Y-94119361D01*
X172482041Y-93954909D01*
X172456411Y-93876027D01*
X172456410Y-93876024D01*
X172414511Y-93793793D01*
X172340252Y-93648053D01*
X172260189Y-93537855D01*
X172189867Y-93441064D01*
X172189863Y-93441059D01*
X172008940Y-93260136D01*
X172008935Y-93260132D01*
X171801950Y-93109750D01*
X171801949Y-93109749D01*
X171801947Y-93109748D01*
X171728910Y-93072533D01*
X171573975Y-92993589D01*
X171573972Y-92993588D01*
X171330640Y-92914526D01*
X171204284Y-92894513D01*
X171077930Y-92874500D01*
X170822070Y-92874500D01*
X170737833Y-92887842D01*
X170569359Y-92914526D01*
X170326027Y-92993588D01*
X170326024Y-92993589D01*
X170098049Y-93109750D01*
X169891064Y-93260132D01*
X169891059Y-93260136D01*
X169710136Y-93441059D01*
X169710132Y-93441064D01*
X169559750Y-93648049D01*
X169443589Y-93876024D01*
X169443588Y-93876027D01*
X169364526Y-94119359D01*
X169324500Y-94372070D01*
X153499955Y-94372070D01*
X158394517Y-89477510D01*
X158533343Y-89286434D01*
X158640568Y-89075992D01*
X158661204Y-89012482D01*
X158685340Y-88938198D01*
X158692393Y-88916489D01*
X158713553Y-88851368D01*
X158729973Y-88747689D01*
X158750500Y-88618097D01*
X158750500Y-87207135D01*
X166674500Y-87207135D01*
X166674500Y-88952870D01*
X166674501Y-88952876D01*
X166680908Y-89012483D01*
X166731202Y-89147328D01*
X166731206Y-89147335D01*
X166817452Y-89262544D01*
X166817455Y-89262547D01*
X166932664Y-89348793D01*
X166932671Y-89348797D01*
X167067517Y-89399091D01*
X167067516Y-89399091D01*
X167074444Y-89399835D01*
X167127127Y-89405500D01*
X168872872Y-89405499D01*
X168932483Y-89399091D01*
X169067331Y-89348796D01*
X169182546Y-89262546D01*
X169268796Y-89147331D01*
X169319091Y-89012483D01*
X169325500Y-88952873D01*
X169325499Y-87207128D01*
X169319091Y-87147517D01*
X169300768Y-87098391D01*
X169268797Y-87012671D01*
X169268793Y-87012664D01*
X169182547Y-86897455D01*
X169182544Y-86897452D01*
X169067335Y-86811206D01*
X169067328Y-86811202D01*
X168932482Y-86760908D01*
X168932483Y-86760908D01*
X168872883Y-86754501D01*
X168872881Y-86754500D01*
X168872873Y-86754500D01*
X168872864Y-86754500D01*
X167127129Y-86754500D01*
X167127123Y-86754501D01*
X167067516Y-86760908D01*
X166932671Y-86811202D01*
X166932664Y-86811206D01*
X166817455Y-86897452D01*
X166817452Y-86897455D01*
X166731206Y-87012664D01*
X166731202Y-87012671D01*
X166680908Y-87147517D01*
X166674501Y-87207116D01*
X166674501Y-87207123D01*
X166674500Y-87207135D01*
X158750500Y-87207135D01*
X158750500Y-82895675D01*
X166674500Y-82895675D01*
X166674500Y-83104324D01*
X166707137Y-83310389D01*
X166771612Y-83508820D01*
X166866330Y-83694714D01*
X166988965Y-83863505D01*
X167136495Y-84011035D01*
X167305286Y-84133670D01*
X167393116Y-84178421D01*
X167491179Y-84228387D01*
X167491181Y-84228387D01*
X167491184Y-84228389D01*
X167597545Y-84262948D01*
X167689610Y-84292862D01*
X167895676Y-84325500D01*
X167895681Y-84325500D01*
X168104324Y-84325500D01*
X168310389Y-84292862D01*
X168508816Y-84228389D01*
X168694714Y-84133670D01*
X168863505Y-84011035D01*
X169011035Y-83863505D01*
X169133670Y-83694714D01*
X169228389Y-83508816D01*
X169292862Y-83310389D01*
X169325500Y-83104324D01*
X169325500Y-82895675D01*
X169292862Y-82689610D01*
X169247472Y-82549916D01*
X169228389Y-82491184D01*
X169228387Y-82491181D01*
X169228387Y-82491179D01*
X169153339Y-82343889D01*
X169133670Y-82305286D01*
X169011035Y-82136495D01*
X168863505Y-81988965D01*
X168694714Y-81866330D01*
X168660003Y-81848644D01*
X168508820Y-81771612D01*
X168310389Y-81707137D01*
X168104324Y-81674500D01*
X168104319Y-81674500D01*
X167895681Y-81674500D01*
X167895676Y-81674500D01*
X167689610Y-81707137D01*
X167491179Y-81771612D01*
X167305285Y-81866330D01*
X167136493Y-81988966D01*
X166988966Y-82136493D01*
X166866330Y-82305285D01*
X166771612Y-82491179D01*
X166707137Y-82689610D01*
X166674500Y-82895675D01*
X158750500Y-82895675D01*
X158750500Y-81881902D01*
X158713553Y-81648631D01*
X158674855Y-81529533D01*
X158640568Y-81424008D01*
X158640566Y-81424005D01*
X158640566Y-81424003D01*
X158567368Y-81280345D01*
X158533343Y-81213567D01*
X158394517Y-81022490D01*
X158227510Y-80855483D01*
X154477510Y-77105483D01*
X154286434Y-76966657D01*
X154230945Y-76938384D01*
X154075996Y-76859433D01*
X153851368Y-76786446D01*
X153618097Y-76749500D01*
X153618092Y-76749500D01*
X148922889Y-76749500D01*
X148855850Y-76729815D01*
X148835208Y-76713181D01*
X143496819Y-71374792D01*
X143463334Y-71313469D01*
X143460500Y-71287111D01*
X143460500Y-66631902D01*
X143423553Y-66398631D01*
X143366209Y-66222146D01*
X143350568Y-66174008D01*
X143350566Y-66174005D01*
X143350566Y-66174003D01*
X143269503Y-66014909D01*
X143243343Y-65963567D01*
X143104517Y-65772490D01*
X142937510Y-65605483D01*
X142746433Y-65466657D01*
X142672698Y-65429087D01*
X142535996Y-65359433D01*
X142311368Y-65286446D01*
X142078097Y-65249500D01*
X142078092Y-65249500D01*
X141841908Y-65249500D01*
X141841903Y-65249500D01*
X141608631Y-65286446D01*
X141384003Y-65359433D01*
X141173566Y-65466657D01*
X141064550Y-65545862D01*
X140982490Y-65605483D01*
X140982488Y-65605485D01*
X140982487Y-65605485D01*
X140815485Y-65772487D01*
X140815485Y-65772488D01*
X140815483Y-65772490D01*
X140755862Y-65854550D01*
X140676657Y-65963566D01*
X140569433Y-66174003D01*
X140496446Y-66398631D01*
X140459500Y-66631902D01*
X140459500Y-72078097D01*
X140496446Y-72311368D01*
X140569433Y-72535996D01*
X140676657Y-72746434D01*
X140815483Y-72937510D01*
X147272490Y-79394517D01*
X147329435Y-79435890D01*
X147463567Y-79533344D01*
X147643332Y-79624938D01*
X147674008Y-79640568D01*
X147674010Y-79640568D01*
X147674013Y-79640570D01*
X147884479Y-79708954D01*
X147898632Y-79713553D01*
X147991609Y-79728279D01*
X148131903Y-79750500D01*
X148131908Y-79750500D01*
X152827111Y-79750500D01*
X152894150Y-79770185D01*
X152914792Y-79786819D01*
X155713181Y-82585208D01*
X155746666Y-82646531D01*
X155749500Y-82672889D01*
X155749500Y-86404865D01*
X155729815Y-86471904D01*
X155677011Y-86517659D01*
X155607853Y-86527603D01*
X155578048Y-86519427D01*
X155573780Y-86517659D01*
X155483497Y-86480263D01*
X155483494Y-86480262D01*
X155483491Y-86480261D01*
X155328845Y-86449500D01*
X155328842Y-86449500D01*
X155171158Y-86449500D01*
X155171155Y-86449500D01*
X155016510Y-86480261D01*
X155016498Y-86480264D01*
X154870827Y-86540602D01*
X154870816Y-86540608D01*
X154825266Y-86571044D01*
X154758588Y-86591921D01*
X154691208Y-86573436D01*
X154653274Y-86536832D01*
X154621789Y-86489711D01*
X154621787Y-86489708D01*
X154510292Y-86378213D01*
X154510288Y-86378210D01*
X154379185Y-86290609D01*
X154379172Y-86290602D01*
X154233501Y-86230264D01*
X154233489Y-86230261D01*
X154078845Y-86199500D01*
X154078842Y-86199500D01*
X153921158Y-86199500D01*
X153921155Y-86199500D01*
X153766510Y-86230261D01*
X153766498Y-86230264D01*
X153620827Y-86290602D01*
X153620814Y-86290609D01*
X153489711Y-86378210D01*
X153489707Y-86378213D01*
X153378213Y-86489707D01*
X153378210Y-86489711D01*
X153290609Y-86620814D01*
X153290603Y-86620826D01*
X153277355Y-86652809D01*
X153233513Y-86707211D01*
X153167219Y-86729275D01*
X153099520Y-86711995D01*
X153075114Y-86693035D01*
X153010292Y-86628213D01*
X153010288Y-86628210D01*
X152879185Y-86540609D01*
X152879172Y-86540602D01*
X152733501Y-86480264D01*
X152733491Y-86480261D01*
X152625815Y-86458843D01*
X152563904Y-86426458D01*
X152562326Y-86424907D01*
X149340011Y-83202591D01*
X149340007Y-83202588D01*
X149237239Y-83133920D01*
X149237226Y-83133913D01*
X149203785Y-83120062D01*
X149123035Y-83086614D01*
X149123027Y-83086612D01*
X149001807Y-83062500D01*
X149001803Y-83062500D01*
X136872321Y-83062500D01*
X136805282Y-83042815D01*
X136761836Y-82994794D01*
X136760083Y-82991354D01*
X136636761Y-82821615D01*
X136636757Y-82821610D01*
X136488389Y-82673242D01*
X136488384Y-82673238D01*
X136318648Y-82549918D01*
X136314434Y-82547771D01*
X136280507Y-82530484D01*
X136229712Y-82482511D01*
X136212917Y-82414690D01*
X136235454Y-82348555D01*
X136280507Y-82309515D01*
X136318644Y-82290084D01*
X136488391Y-82166756D01*
X136636756Y-82018391D01*
X136760084Y-81848644D01*
X136855340Y-81661694D01*
X136920177Y-81462145D01*
X136953000Y-81254909D01*
X136953000Y-81045091D01*
X136920177Y-80837855D01*
X136855340Y-80638306D01*
X136855340Y-80638305D01*
X136822353Y-80573566D01*
X136760084Y-80451356D01*
X136667635Y-80324110D01*
X136636761Y-80281615D01*
X136636757Y-80281610D01*
X136488389Y-80133242D01*
X136488384Y-80133238D01*
X136318648Y-80009918D01*
X136314434Y-80007771D01*
X136280507Y-79990484D01*
X136229712Y-79942511D01*
X136212917Y-79874690D01*
X136235454Y-79808555D01*
X136280507Y-79769515D01*
X136318644Y-79750084D01*
X136488391Y-79626756D01*
X136636756Y-79478391D01*
X136760084Y-79308644D01*
X136855340Y-79121694D01*
X136920177Y-78922145D01*
X136953000Y-78714909D01*
X136953000Y-78505091D01*
X136920177Y-78297855D01*
X136855340Y-78098306D01*
X136855340Y-78098305D01*
X136822353Y-78033566D01*
X136760084Y-77911356D01*
X136643216Y-77750500D01*
X136636761Y-77741615D01*
X136636757Y-77741610D01*
X136488389Y-77593242D01*
X136488384Y-77593238D01*
X136318648Y-77469918D01*
X136314434Y-77467771D01*
X136280507Y-77450484D01*
X136229712Y-77402511D01*
X136212917Y-77334690D01*
X136235454Y-77268555D01*
X136280507Y-77229515D01*
X136318644Y-77210084D01*
X136488391Y-77086756D01*
X136636756Y-76938391D01*
X136760084Y-76768644D01*
X136761836Y-76765206D01*
X136809809Y-76714410D01*
X136872321Y-76697500D01*
X138508719Y-76697500D01*
X138575758Y-76717185D01*
X138596400Y-76733819D01*
X143295871Y-81433290D01*
X143329356Y-81494613D01*
X143324372Y-81564305D01*
X143311292Y-81589861D01*
X143290612Y-81620810D01*
X143290602Y-81620828D01*
X143230264Y-81766498D01*
X143230261Y-81766510D01*
X143199500Y-81921153D01*
X143199500Y-82078846D01*
X143230261Y-82233489D01*
X143230264Y-82233501D01*
X143290602Y-82379172D01*
X143290609Y-82379185D01*
X143378210Y-82510288D01*
X143378213Y-82510292D01*
X143489707Y-82621786D01*
X143489711Y-82621789D01*
X143620814Y-82709390D01*
X143620827Y-82709397D01*
X143744874Y-82760778D01*
X143766503Y-82769737D01*
X143921153Y-82800499D01*
X143921156Y-82800500D01*
X143921158Y-82800500D01*
X144078844Y-82800500D01*
X144078845Y-82800499D01*
X144233497Y-82769737D01*
X144379179Y-82709394D01*
X144510289Y-82621789D01*
X144621789Y-82510289D01*
X144709394Y-82379179D01*
X144710353Y-82376865D01*
X144738249Y-82309516D01*
X144769737Y-82233497D01*
X144800500Y-82078842D01*
X144800500Y-81921158D01*
X144800500Y-81921155D01*
X144800499Y-81921153D01*
X144789329Y-81865000D01*
X144769737Y-81766503D01*
X144751142Y-81721611D01*
X144709397Y-81620827D01*
X144709390Y-81620814D01*
X144648398Y-81529533D01*
X144627520Y-81462855D01*
X144627500Y-81460642D01*
X144627500Y-81188194D01*
X144603386Y-81066970D01*
X144603385Y-81066969D01*
X144603385Y-81066965D01*
X144584962Y-81022487D01*
X144556086Y-80952773D01*
X144556079Y-80952760D01*
X144487412Y-80849993D01*
X144475272Y-80837853D01*
X144400008Y-80762589D01*
X141845803Y-78208384D01*
X139220011Y-75582591D01*
X139220007Y-75582588D01*
X139117239Y-75513920D01*
X139117226Y-75513913D01*
X139083785Y-75500062D01*
X139003035Y-75466614D01*
X139003027Y-75466612D01*
X138881807Y-75442500D01*
X138881803Y-75442500D01*
X136872321Y-75442500D01*
X136805282Y-75422815D01*
X136761836Y-75374794D01*
X136760083Y-75371354D01*
X136636761Y-75201615D01*
X136636757Y-75201610D01*
X136488389Y-75053242D01*
X136488384Y-75053238D01*
X136318648Y-74929918D01*
X136314434Y-74927771D01*
X136280507Y-74910484D01*
X136229712Y-74862511D01*
X136212917Y-74794690D01*
X136235454Y-74728555D01*
X136280507Y-74689515D01*
X136318644Y-74670084D01*
X136488391Y-74546756D01*
X136636756Y-74398391D01*
X136760084Y-74228644D01*
X136855340Y-74041694D01*
X136920177Y-73842145D01*
X136953000Y-73634909D01*
X136953000Y-73425091D01*
X136920177Y-73217855D01*
X136855340Y-73018306D01*
X136855340Y-73018305D01*
X136814172Y-72937510D01*
X136760084Y-72831356D01*
X136698385Y-72746434D01*
X136636761Y-72661615D01*
X136636757Y-72661610D01*
X136488389Y-72513242D01*
X136488384Y-72513238D01*
X136318648Y-72389918D01*
X136314434Y-72387771D01*
X136280507Y-72370484D01*
X136229712Y-72322511D01*
X136212917Y-72254690D01*
X136235454Y-72188555D01*
X136280507Y-72149515D01*
X136318644Y-72130084D01*
X136488391Y-72006756D01*
X136636756Y-71858391D01*
X136760084Y-71688644D01*
X136855340Y-71501694D01*
X136920177Y-71302145D01*
X136953000Y-71094909D01*
X136953000Y-70885091D01*
X136920177Y-70677855D01*
X136864508Y-70506523D01*
X136855341Y-70478308D01*
X136855340Y-70478305D01*
X136808024Y-70385444D01*
X136760084Y-70291356D01*
X136664045Y-70159169D01*
X136636761Y-70121615D01*
X136636757Y-70121610D01*
X136488389Y-69973242D01*
X136488384Y-69973238D01*
X136318648Y-69849918D01*
X136314434Y-69847771D01*
X136280507Y-69830484D01*
X136229712Y-69782511D01*
X136212917Y-69714690D01*
X136235454Y-69648555D01*
X136280507Y-69609515D01*
X136318644Y-69590084D01*
X136488391Y-69466756D01*
X136636756Y-69318391D01*
X136760084Y-69148644D01*
X136855340Y-68961694D01*
X136920177Y-68762145D01*
X136953000Y-68554909D01*
X136953000Y-68345091D01*
X136920177Y-68137855D01*
X136859140Y-67950000D01*
X136855341Y-67938308D01*
X136855340Y-67938305D01*
X136813954Y-67857082D01*
X136760084Y-67751356D01*
X136710044Y-67682482D01*
X136636761Y-67581615D01*
X136636757Y-67581610D01*
X136488389Y-67433242D01*
X136488384Y-67433238D01*
X136318648Y-67309918D01*
X136314434Y-67307771D01*
X136280507Y-67290484D01*
X136229712Y-67242511D01*
X136212917Y-67174690D01*
X136235454Y-67108555D01*
X136280507Y-67069515D01*
X136318644Y-67050084D01*
X136336173Y-67037348D01*
X136478171Y-66934182D01*
X136543977Y-66910702D01*
X136551056Y-66910500D01*
X136938543Y-66910500D01*
X136973256Y-66903594D01*
X137058532Y-66886632D01*
X137131836Y-66872051D01*
X137196244Y-66845372D01*
X137313914Y-66796632D01*
X137477782Y-66687139D01*
X137617139Y-66547782D01*
X137617139Y-66547780D01*
X137627347Y-66537573D01*
X137627348Y-66537570D01*
X140128102Y-64036819D01*
X140189425Y-64003334D01*
X140215783Y-64000500D01*
X146784218Y-64000500D01*
X146851257Y-64020185D01*
X146871899Y-64036819D01*
X148052802Y-65217722D01*
X148086287Y-65279045D01*
X148081303Y-65348737D01*
X148039431Y-65404670D01*
X147973967Y-65429087D01*
X147951873Y-65428693D01*
X147912873Y-65424500D01*
X147912864Y-65424500D01*
X146167129Y-65424500D01*
X146167123Y-65424501D01*
X146107516Y-65430908D01*
X145972671Y-65481202D01*
X145972664Y-65481206D01*
X145857455Y-65567452D01*
X145857452Y-65567455D01*
X145771206Y-65682664D01*
X145771202Y-65682671D01*
X145720908Y-65817517D01*
X145718934Y-65835882D01*
X145714501Y-65877125D01*
X145714500Y-65877135D01*
X145714500Y-67622870D01*
X145714501Y-67622876D01*
X145720908Y-67682483D01*
X145771202Y-67817328D01*
X145771206Y-67817335D01*
X145857452Y-67932544D01*
X145857455Y-67932547D01*
X145972664Y-68018793D01*
X145972671Y-68018797D01*
X146107517Y-68069091D01*
X146107516Y-68069091D01*
X146114444Y-68069835D01*
X146167127Y-68075500D01*
X147912872Y-68075499D01*
X147972483Y-68069091D01*
X148107331Y-68018796D01*
X148222546Y-67932546D01*
X148308796Y-67817331D01*
X148359091Y-67682483D01*
X148365500Y-67622873D01*
X148365499Y-65877128D01*
X148361307Y-65838132D01*
X148373714Y-65769373D01*
X148421325Y-65718237D01*
X148489024Y-65700958D01*
X148555318Y-65723023D01*
X148572278Y-65737198D01*
X149213181Y-66378101D01*
X149246666Y-66439424D01*
X149249500Y-66465782D01*
X149249500Y-68098541D01*
X149249500Y-68098543D01*
X149249499Y-68098543D01*
X149287947Y-68291829D01*
X149287950Y-68291839D01*
X149363364Y-68473907D01*
X149363371Y-68473920D01*
X149472860Y-68637781D01*
X149472863Y-68637785D01*
X149612214Y-68777136D01*
X149612218Y-68777139D01*
X149776079Y-68886628D01*
X149776092Y-68886635D01*
X149918574Y-68945652D01*
X149958165Y-68962051D01*
X149958169Y-68962051D01*
X149958170Y-68962052D01*
X150151456Y-69000500D01*
X150151459Y-69000500D01*
X150348543Y-69000500D01*
X150478582Y-68974632D01*
X150541835Y-68962051D01*
X150723914Y-68886632D01*
X150887782Y-68777139D01*
X151027139Y-68637782D01*
X151136632Y-68473914D01*
X151212051Y-68291835D01*
X151242680Y-68137855D01*
X151250500Y-68098543D01*
X151250500Y-65901458D01*
X151250499Y-65901457D01*
X151237456Y-65835881D01*
X151212052Y-65708165D01*
X151169520Y-65605485D01*
X151136633Y-65526088D01*
X151136628Y-65526079D01*
X151027140Y-65362219D01*
X151027137Y-65362215D01*
X150146408Y-64481487D01*
X150062056Y-64397135D01*
X156044500Y-64397135D01*
X156044500Y-66402870D01*
X156044501Y-66402876D01*
X156050908Y-66462483D01*
X156101202Y-66597328D01*
X156101206Y-66597335D01*
X156187452Y-66712544D01*
X156187455Y-66712547D01*
X156302664Y-66798793D01*
X156302671Y-66798797D01*
X156347618Y-66815561D01*
X156437517Y-66849091D01*
X156497127Y-66855500D01*
X156707693Y-66855499D01*
X156774730Y-66875183D01*
X156795372Y-66891818D01*
X157263992Y-67360438D01*
X157199215Y-67387271D01*
X157095211Y-67456764D01*
X157006764Y-67545211D01*
X156937271Y-67649215D01*
X156910439Y-67713992D01*
X156309557Y-67113110D01*
X156255571Y-67187417D01*
X156151600Y-67391471D01*
X156080826Y-67609290D01*
X156045000Y-67835489D01*
X156045000Y-68064510D01*
X156080826Y-68290709D01*
X156151600Y-68508528D01*
X156255575Y-68712589D01*
X156309556Y-68786888D01*
X156309557Y-68786889D01*
X156910439Y-68186007D01*
X156937271Y-68250785D01*
X157006764Y-68354789D01*
X157095211Y-68443236D01*
X157199215Y-68512729D01*
X157263991Y-68539560D01*
X156663109Y-69140441D01*
X156664215Y-69154490D01*
X156683657Y-69179703D01*
X156689636Y-69249316D01*
X156657030Y-69311111D01*
X156640992Y-69325008D01*
X156551806Y-69389805D01*
X156389805Y-69551806D01*
X156389801Y-69551811D01*
X156255147Y-69737148D01*
X156151136Y-69941277D01*
X156080338Y-70159169D01*
X156044500Y-70385444D01*
X156044500Y-70614555D01*
X156080338Y-70840830D01*
X156151136Y-71058722D01*
X156193832Y-71142516D01*
X156245156Y-71243244D01*
X156255147Y-71262851D01*
X156389801Y-71448188D01*
X156389805Y-71448193D01*
X156551806Y-71610194D01*
X156551811Y-71610198D01*
X156659784Y-71688644D01*
X156737152Y-71744855D01*
X156867221Y-71811128D01*
X156941277Y-71848863D01*
X156941279Y-71848863D01*
X156941282Y-71848865D01*
X157058076Y-71886813D01*
X157159169Y-71919661D01*
X157385445Y-71955500D01*
X157385450Y-71955500D01*
X157614555Y-71955500D01*
X157840830Y-71919661D01*
X158058718Y-71848865D01*
X158262848Y-71744855D01*
X158448195Y-71610193D01*
X158610193Y-71448195D01*
X158744855Y-71262848D01*
X158775790Y-71202135D01*
X163999500Y-71202135D01*
X163999500Y-77297870D01*
X163999501Y-77297876D01*
X164005908Y-77357483D01*
X164056202Y-77492328D01*
X164056206Y-77492335D01*
X164142452Y-77607544D01*
X164142455Y-77607547D01*
X164257664Y-77693793D01*
X164257671Y-77693797D01*
X164392517Y-77744091D01*
X164392516Y-77744091D01*
X164399444Y-77744835D01*
X164452127Y-77750500D01*
X170547872Y-77750499D01*
X170607483Y-77744091D01*
X170742331Y-77693796D01*
X170857546Y-77607546D01*
X170943796Y-77492331D01*
X170994091Y-77357483D01*
X171000500Y-77297873D01*
X171000499Y-71202128D01*
X170994091Y-71142517D01*
X170985661Y-71119916D01*
X170943797Y-71007671D01*
X170943793Y-71007664D01*
X170857547Y-70892455D01*
X170857544Y-70892452D01*
X170742335Y-70806206D01*
X170742328Y-70806202D01*
X170607482Y-70755908D01*
X170607483Y-70755908D01*
X170547883Y-70749501D01*
X170547881Y-70749500D01*
X170547873Y-70749500D01*
X170547865Y-70749500D01*
X168100756Y-70749500D01*
X168033717Y-70729815D01*
X167987962Y-70677011D01*
X167978018Y-70607853D01*
X168007043Y-70544297D01*
X168065821Y-70506523D01*
X168076565Y-70503883D01*
X168351437Y-70449208D01*
X168351443Y-70449207D01*
X168680540Y-70349376D01*
X168998241Y-70217780D01*
X168998255Y-70217773D01*
X169301518Y-70055677D01*
X169301536Y-70055666D01*
X169587453Y-69864622D01*
X169587466Y-69864612D01*
X169792659Y-69696213D01*
X169792659Y-69696212D01*
X168922499Y-68826052D01*
X169003230Y-68764105D01*
X169214105Y-68553230D01*
X169276052Y-68472499D01*
X170146212Y-69342659D01*
X170146213Y-69342659D01*
X170314612Y-69137466D01*
X170314622Y-69137453D01*
X170505666Y-68851536D01*
X170505677Y-68851518D01*
X170667773Y-68548255D01*
X170667780Y-68548241D01*
X170799376Y-68230540D01*
X170899207Y-67901443D01*
X170899208Y-67901437D01*
X170966291Y-67564182D01*
X170966294Y-67564165D01*
X171000000Y-67221940D01*
X171000000Y-66878059D01*
X170966294Y-66535834D01*
X170966291Y-66535817D01*
X170899208Y-66198562D01*
X170899207Y-66198556D01*
X170799376Y-65869459D01*
X170667780Y-65551758D01*
X170667773Y-65551744D01*
X170505677Y-65248481D01*
X170505666Y-65248463D01*
X170314622Y-64962546D01*
X170314612Y-64962533D01*
X170146213Y-64757339D01*
X170146212Y-64757338D01*
X169276051Y-65627499D01*
X169214105Y-65546770D01*
X169003230Y-65335895D01*
X168922498Y-65273947D01*
X169792660Y-64403786D01*
X169792659Y-64403785D01*
X169587467Y-64235387D01*
X169587453Y-64235377D01*
X169301536Y-64044333D01*
X169301518Y-64044322D01*
X168998255Y-63882226D01*
X168998241Y-63882219D01*
X168680540Y-63750623D01*
X168351443Y-63650792D01*
X168351437Y-63650791D01*
X168014182Y-63583708D01*
X168014165Y-63583705D01*
X167671941Y-63550000D01*
X167328059Y-63550000D01*
X166985834Y-63583705D01*
X166985817Y-63583708D01*
X166648562Y-63650791D01*
X166648556Y-63650792D01*
X166319459Y-63750623D01*
X166001758Y-63882219D01*
X166001744Y-63882226D01*
X165698481Y-64044322D01*
X165698463Y-64044333D01*
X165412546Y-64235377D01*
X165412532Y-64235387D01*
X165207338Y-64403786D01*
X166077500Y-65273948D01*
X165996770Y-65335895D01*
X165785895Y-65546770D01*
X165723948Y-65627500D01*
X164853786Y-64757338D01*
X164685387Y-64962532D01*
X164685377Y-64962546D01*
X164494333Y-65248463D01*
X164494322Y-65248481D01*
X164332226Y-65551744D01*
X164332219Y-65551758D01*
X164200623Y-65869459D01*
X164100792Y-66198556D01*
X164100791Y-66198562D01*
X164033708Y-66535817D01*
X164033705Y-66535834D01*
X164000000Y-66878059D01*
X164000000Y-67221940D01*
X164033705Y-67564165D01*
X164033708Y-67564182D01*
X164100791Y-67901437D01*
X164100792Y-67901443D01*
X164200623Y-68230540D01*
X164332219Y-68548241D01*
X164332226Y-68548255D01*
X164494322Y-68851518D01*
X164494333Y-68851536D01*
X164685377Y-69137453D01*
X164685387Y-69137467D01*
X164853785Y-69342659D01*
X164853786Y-69342660D01*
X165723947Y-68472498D01*
X165785895Y-68553230D01*
X165996770Y-68764105D01*
X166077499Y-68826051D01*
X165207338Y-69696212D01*
X165207339Y-69696213D01*
X165412533Y-69864612D01*
X165412546Y-69864622D01*
X165698463Y-70055666D01*
X165698481Y-70055677D01*
X166001744Y-70217773D01*
X166001758Y-70217780D01*
X166319459Y-70349376D01*
X166648556Y-70449207D01*
X166648562Y-70449208D01*
X166923435Y-70503883D01*
X166985346Y-70536267D01*
X167019920Y-70596983D01*
X167016181Y-70666752D01*
X166975315Y-70723425D01*
X166910297Y-70749006D01*
X166899244Y-70749500D01*
X164452129Y-70749500D01*
X164452123Y-70749501D01*
X164392516Y-70755908D01*
X164257671Y-70806202D01*
X164257664Y-70806206D01*
X164142455Y-70892452D01*
X164142452Y-70892455D01*
X164056206Y-71007664D01*
X164056202Y-71007671D01*
X164005908Y-71142517D01*
X163999501Y-71202116D01*
X163999501Y-71202123D01*
X163999500Y-71202135D01*
X158775790Y-71202135D01*
X158848865Y-71058718D01*
X158919661Y-70840830D01*
X158933111Y-70755909D01*
X158955500Y-70614555D01*
X158955500Y-70385444D01*
X158919661Y-70159169D01*
X158848863Y-69941277D01*
X158772519Y-69791446D01*
X158744855Y-69737152D01*
X158715111Y-69696213D01*
X158610198Y-69551811D01*
X158610194Y-69551806D01*
X158448195Y-69389807D01*
X158383302Y-69342660D01*
X158359005Y-69325007D01*
X158316341Y-69269679D01*
X158310362Y-69200066D01*
X158336024Y-69151428D01*
X158336889Y-69140441D01*
X157736008Y-68539560D01*
X157800785Y-68512729D01*
X157904789Y-68443236D01*
X157993236Y-68354789D01*
X158062729Y-68250785D01*
X158089560Y-68186008D01*
X158690441Y-68786889D01*
X158690441Y-68786888D01*
X158744426Y-68712584D01*
X158744430Y-68712578D01*
X158848399Y-68508528D01*
X158919173Y-68290709D01*
X158955000Y-68064510D01*
X158955000Y-67835489D01*
X158919173Y-67609290D01*
X158848399Y-67391471D01*
X158744426Y-67187413D01*
X158690441Y-67113110D01*
X158690441Y-67113109D01*
X158089560Y-67713990D01*
X158062729Y-67649215D01*
X157993236Y-67545211D01*
X157904789Y-67456764D01*
X157800785Y-67387271D01*
X157736007Y-67360438D01*
X158204628Y-66891818D01*
X158265951Y-66858333D01*
X158292308Y-66855499D01*
X158502872Y-66855499D01*
X158562483Y-66849091D01*
X158697331Y-66798796D01*
X158728123Y-66775744D01*
X158728125Y-66775744D01*
X158765867Y-66747489D01*
X158812546Y-66712546D01*
X158898796Y-66597331D01*
X158949091Y-66462483D01*
X158955500Y-66402873D01*
X158955499Y-64397128D01*
X158949091Y-64337517D01*
X158910995Y-64235377D01*
X158898797Y-64202671D01*
X158898793Y-64202664D01*
X158812547Y-64087455D01*
X158812544Y-64087452D01*
X158697335Y-64001206D01*
X158697328Y-64001202D01*
X158562482Y-63950908D01*
X158562483Y-63950908D01*
X158502883Y-63944501D01*
X158502881Y-63944500D01*
X158502873Y-63944500D01*
X158502864Y-63944500D01*
X156497129Y-63944500D01*
X156497123Y-63944501D01*
X156437516Y-63950908D01*
X156302671Y-64001202D01*
X156302664Y-64001206D01*
X156187455Y-64087452D01*
X156187452Y-64087455D01*
X156101206Y-64202664D01*
X156101202Y-64202671D01*
X156050908Y-64337517D01*
X156044501Y-64397116D01*
X156044501Y-64397123D01*
X156044500Y-64397135D01*
X150062056Y-64397135D01*
X148034209Y-62369289D01*
X148034206Y-62369285D01*
X148034206Y-62369286D01*
X148027139Y-62362219D01*
X148027139Y-62362218D01*
X147887782Y-62222861D01*
X147887781Y-62222860D01*
X147887780Y-62222859D01*
X147723916Y-62113369D01*
X147723911Y-62113366D01*
X147651315Y-62083296D01*
X147595165Y-62060038D01*
X147541836Y-62037949D01*
X147541832Y-62037948D01*
X147541828Y-62037946D01*
X147445188Y-62018724D01*
X147348544Y-61999500D01*
X147348541Y-61999500D01*
X139848540Y-61999500D01*
X139651459Y-61999500D01*
X139651456Y-61999500D01*
X139458171Y-62037946D01*
X139458167Y-62037948D01*
X139458165Y-62037948D01*
X139458164Y-62037949D01*
X139382745Y-62069188D01*
X139382743Y-62069189D01*
X139276085Y-62113368D01*
X139276085Y-62113369D01*
X139276084Y-62113369D01*
X139112222Y-62222857D01*
X139112214Y-62222863D01*
X136536312Y-64798766D01*
X136474989Y-64832251D01*
X136405297Y-64827267D01*
X136375749Y-64811405D01*
X136318644Y-64769916D01*
X136131694Y-64674659D01*
X136131691Y-64674658D01*
X135932146Y-64609823D01*
X135828527Y-64593411D01*
X135724909Y-64577000D01*
X135515091Y-64577000D01*
X135446012Y-64587941D01*
X135307853Y-64609823D01*
X135108308Y-64674658D01*
X135108305Y-64674659D01*
X134921352Y-64769918D01*
X134751615Y-64893238D01*
X134751610Y-64893242D01*
X134603242Y-65041610D01*
X134603238Y-65041615D01*
X134479918Y-65211352D01*
X134384659Y-65398305D01*
X134384658Y-65398308D01*
X134319823Y-65597853D01*
X134287000Y-65805091D01*
X134287000Y-66014908D01*
X134319823Y-66222146D01*
X134384658Y-66421691D01*
X134384659Y-66421694D01*
X134442809Y-66535817D01*
X134474150Y-66597328D01*
X134479918Y-66608647D01*
X134603238Y-66778384D01*
X134603242Y-66778389D01*
X134751610Y-66926757D01*
X134751615Y-66926761D01*
X134921354Y-67050083D01*
X134959492Y-67069516D01*
X135010287Y-67117490D01*
X135027082Y-67185311D01*
X135004544Y-67251446D01*
X134959492Y-67290484D01*
X134921354Y-67309916D01*
X134751615Y-67433238D01*
X134751610Y-67433242D01*
X134603242Y-67581610D01*
X134603238Y-67581615D01*
X134479916Y-67751354D01*
X134460484Y-67789492D01*
X134412510Y-67840287D01*
X134344689Y-67857082D01*
X134278554Y-67834544D01*
X134239516Y-67789492D01*
X134220083Y-67751354D01*
X134096761Y-67581615D01*
X134096757Y-67581610D01*
X133948389Y-67433242D01*
X133948384Y-67433238D01*
X133778647Y-67309918D01*
X133778646Y-67309917D01*
X133778644Y-67309916D01*
X133718750Y-67279398D01*
X133591694Y-67214659D01*
X133591691Y-67214658D01*
X133392146Y-67149823D01*
X133288527Y-67133411D01*
X133184909Y-67117000D01*
X132975091Y-67117000D01*
X132906012Y-67127941D01*
X132767853Y-67149823D01*
X132568308Y-67214658D01*
X132568305Y-67214659D01*
X132381352Y-67309918D01*
X132211615Y-67433238D01*
X132211610Y-67433242D01*
X132063242Y-67581610D01*
X132063238Y-67581615D01*
X131939918Y-67751352D01*
X131844659Y-67938305D01*
X131844658Y-67938308D01*
X131779823Y-68137853D01*
X131747000Y-68345091D01*
X131747000Y-68554908D01*
X131779823Y-68762146D01*
X131844658Y-68961691D01*
X131844659Y-68961694D01*
X131886045Y-69042917D01*
X131935736Y-69140441D01*
X131939918Y-69148647D01*
X132063238Y-69318384D01*
X132063242Y-69318389D01*
X132211610Y-69466757D01*
X132211615Y-69466761D01*
X132359669Y-69574327D01*
X132381356Y-69590084D01*
X132496112Y-69648555D01*
X132568305Y-69685340D01*
X132568308Y-69685341D01*
X132668080Y-69717758D01*
X132767855Y-69750177D01*
X132975091Y-69783000D01*
X132975092Y-69783000D01*
X133184908Y-69783000D01*
X133184909Y-69783000D01*
X133392145Y-69750177D01*
X133591694Y-69685340D01*
X133778644Y-69590084D01*
X133948391Y-69466756D01*
X134096756Y-69318391D01*
X134220084Y-69148644D01*
X134239515Y-69110507D01*
X134287489Y-69059712D01*
X134355310Y-69042917D01*
X134421445Y-69065454D01*
X134460485Y-69110508D01*
X134479918Y-69148648D01*
X134603238Y-69318384D01*
X134603242Y-69318389D01*
X134751610Y-69466757D01*
X134751615Y-69466761D01*
X134921354Y-69590083D01*
X134959492Y-69609516D01*
X135010287Y-69657490D01*
X135027082Y-69725311D01*
X135004544Y-69791446D01*
X134959492Y-69830484D01*
X134921354Y-69849916D01*
X134751615Y-69973238D01*
X134751610Y-69973242D01*
X134603242Y-70121610D01*
X134603238Y-70121615D01*
X134479918Y-70291352D01*
X134384659Y-70478305D01*
X134384658Y-70478308D01*
X134319823Y-70677853D01*
X134307460Y-70755909D01*
X134287000Y-70885091D01*
X134287000Y-71094909D01*
X134294540Y-71142516D01*
X134319823Y-71302146D01*
X134384658Y-71501691D01*
X134384659Y-71501694D01*
X134479918Y-71688647D01*
X134603238Y-71858384D01*
X134603242Y-71858389D01*
X134751610Y-72006757D01*
X134751615Y-72006761D01*
X134921354Y-72130083D01*
X134959492Y-72149516D01*
X135010287Y-72197490D01*
X135027082Y-72265311D01*
X135004544Y-72331446D01*
X134959492Y-72370484D01*
X134921354Y-72389916D01*
X134751615Y-72513238D01*
X134751610Y-72513242D01*
X134603242Y-72661610D01*
X134603238Y-72661615D01*
X134479918Y-72831352D01*
X134384659Y-73018305D01*
X134384658Y-73018308D01*
X134319823Y-73217853D01*
X134287000Y-73425091D01*
X134287000Y-73634908D01*
X134319823Y-73842146D01*
X134384658Y-74041691D01*
X134384659Y-74041694D01*
X134479918Y-74228647D01*
X134603238Y-74398384D01*
X134603242Y-74398389D01*
X134751610Y-74546757D01*
X134751615Y-74546761D01*
X134921354Y-74670083D01*
X134959492Y-74689516D01*
X135010287Y-74737490D01*
X135027082Y-74805311D01*
X135004544Y-74871446D01*
X134959492Y-74910484D01*
X134921354Y-74929916D01*
X134751615Y-75053238D01*
X134751610Y-75053242D01*
X134603242Y-75201610D01*
X134603238Y-75201615D01*
X134479918Y-75371352D01*
X134384659Y-75558305D01*
X134384658Y-75558308D01*
X134319823Y-75757853D01*
X134287000Y-75965091D01*
X134287000Y-76174908D01*
X134319823Y-76382146D01*
X134384658Y-76581691D01*
X134384659Y-76581694D01*
X134415057Y-76641352D01*
X134478164Y-76765206D01*
X134479918Y-76768647D01*
X134603238Y-76938384D01*
X134603242Y-76938389D01*
X134751610Y-77086757D01*
X134751615Y-77086761D01*
X134921354Y-77210083D01*
X134959492Y-77229516D01*
X135010287Y-77277490D01*
X135027082Y-77345311D01*
X135004544Y-77411446D01*
X134959492Y-77450484D01*
X134921354Y-77469916D01*
X134751615Y-77593238D01*
X134751610Y-77593242D01*
X134603242Y-77741610D01*
X134603238Y-77741615D01*
X134479918Y-77911352D01*
X134384659Y-78098305D01*
X134384658Y-78098308D01*
X134319823Y-78297853D01*
X134287000Y-78505091D01*
X134287000Y-78714908D01*
X134319823Y-78922146D01*
X134384658Y-79121691D01*
X134384659Y-79121694D01*
X134479918Y-79308647D01*
X134603238Y-79478384D01*
X134603242Y-79478389D01*
X134751610Y-79626757D01*
X134751615Y-79626761D01*
X134921354Y-79750083D01*
X134959492Y-79769516D01*
X135010287Y-79817490D01*
X135027082Y-79885311D01*
X135004544Y-79951446D01*
X134959492Y-79990484D01*
X134921354Y-80009916D01*
X134751615Y-80133238D01*
X134751610Y-80133242D01*
X134603242Y-80281610D01*
X134603238Y-80281615D01*
X134479918Y-80451352D01*
X134384659Y-80638305D01*
X134384658Y-80638308D01*
X134319823Y-80837853D01*
X134287000Y-81045091D01*
X134287000Y-81254908D01*
X134319823Y-81462146D01*
X134384658Y-81661691D01*
X134384659Y-81661694D01*
X134479918Y-81848647D01*
X134603238Y-82018384D01*
X134603242Y-82018389D01*
X134751610Y-82166757D01*
X134751615Y-82166761D01*
X134921354Y-82290083D01*
X134959492Y-82309516D01*
X135010287Y-82357490D01*
X135027082Y-82425311D01*
X135004544Y-82491446D01*
X134959492Y-82530484D01*
X134921354Y-82549916D01*
X134751615Y-82673238D01*
X134751610Y-82673242D01*
X134603242Y-82821610D01*
X134603238Y-82821615D01*
X134479918Y-82991352D01*
X134384659Y-83178305D01*
X134384658Y-83178308D01*
X134319823Y-83377853D01*
X134287000Y-83585091D01*
X134287000Y-83794908D01*
X134319823Y-84002146D01*
X134384658Y-84201691D01*
X134384659Y-84201694D01*
X134443666Y-84317500D01*
X134478164Y-84385206D01*
X134479918Y-84388647D01*
X134603238Y-84558384D01*
X134603242Y-84558389D01*
X134751610Y-84706757D01*
X134751615Y-84706761D01*
X134921354Y-84830083D01*
X134959492Y-84849516D01*
X135010287Y-84897490D01*
X135027082Y-84965311D01*
X135004544Y-85031446D01*
X134959492Y-85070484D01*
X134921354Y-85089916D01*
X134751615Y-85213238D01*
X134751610Y-85213242D01*
X134603242Y-85361610D01*
X134603238Y-85361615D01*
X134479918Y-85531352D01*
X134384659Y-85718305D01*
X134384658Y-85718308D01*
X134319823Y-85917853D01*
X134287000Y-86125091D01*
X134287000Y-86334908D01*
X134319823Y-86542146D01*
X134374421Y-86710182D01*
X134376416Y-86780023D01*
X134340336Y-86839856D01*
X134277635Y-86870684D01*
X134256490Y-86872500D01*
X125811281Y-86872500D01*
X125744242Y-86852815D01*
X125723600Y-86836181D01*
X124650013Y-85762593D01*
X124650010Y-85762590D01*
X124601284Y-85730033D01*
X124583733Y-85718306D01*
X124547233Y-85693917D01*
X124547229Y-85693915D01*
X124547227Y-85693914D01*
X124547228Y-85693914D01*
X124513785Y-85680062D01*
X124433035Y-85646614D01*
X124433027Y-85646612D01*
X124311807Y-85622500D01*
X124311803Y-85622500D01*
X121642512Y-85622500D01*
X121575473Y-85602815D01*
X121532028Y-85554796D01*
X121520083Y-85531354D01*
X121396761Y-85361615D01*
X121396757Y-85361610D01*
X121248389Y-85213242D01*
X121248384Y-85213238D01*
X121078648Y-85089918D01*
X121074434Y-85087771D01*
X121040507Y-85070484D01*
X120989712Y-85022511D01*
X120972917Y-84954690D01*
X120995454Y-84888555D01*
X121040507Y-84849515D01*
X121078644Y-84830084D01*
X121248391Y-84706756D01*
X121396756Y-84558391D01*
X121520084Y-84388644D01*
X121615340Y-84201694D01*
X121680177Y-84002145D01*
X121713000Y-83794909D01*
X121713000Y-83585091D01*
X121680177Y-83377855D01*
X121615340Y-83178306D01*
X121615340Y-83178305D01*
X121568619Y-83086612D01*
X121520084Y-82991356D01*
X121476601Y-82931506D01*
X121396761Y-82821615D01*
X121396757Y-82821610D01*
X121248389Y-82673242D01*
X121248384Y-82673238D01*
X121078648Y-82549918D01*
X121074434Y-82547771D01*
X121040507Y-82530484D01*
X121036591Y-82526786D01*
X121031401Y-82525350D01*
X121011462Y-82503053D01*
X120989712Y-82482511D01*
X120988417Y-82477281D01*
X120984827Y-82473267D01*
X120980107Y-82443725D01*
X120972917Y-82414690D01*
X120974654Y-82409592D01*
X120973804Y-82404272D01*
X120985806Y-82376865D01*
X120995454Y-82348555D01*
X121000248Y-82343889D01*
X121001833Y-82340271D01*
X121013501Y-82330991D01*
X121028142Y-82316744D01*
X121034111Y-82312774D01*
X121078644Y-82290084D01*
X121248391Y-82166756D01*
X121396756Y-82018391D01*
X121520084Y-81848644D01*
X121615340Y-81661694D01*
X121680177Y-81462145D01*
X121713000Y-81254909D01*
X121713000Y-81045091D01*
X121680177Y-80837855D01*
X121615340Y-80638306D01*
X121615340Y-80638305D01*
X121582353Y-80573566D01*
X121520084Y-80451356D01*
X121427635Y-80324110D01*
X121396761Y-80281615D01*
X121396757Y-80281610D01*
X121248389Y-80133242D01*
X121248384Y-80133238D01*
X121078648Y-80009918D01*
X121074434Y-80007771D01*
X121040507Y-79990484D01*
X121036591Y-79986786D01*
X121031401Y-79985350D01*
X121011462Y-79963053D01*
X120989712Y-79942511D01*
X120988417Y-79937281D01*
X120984827Y-79933267D01*
X120980107Y-79903725D01*
X120972917Y-79874690D01*
X120974654Y-79869592D01*
X120973804Y-79864272D01*
X120985806Y-79836865D01*
X120995454Y-79808555D01*
X121000248Y-79803889D01*
X121001833Y-79800271D01*
X121013501Y-79790991D01*
X121028142Y-79776744D01*
X121034111Y-79772774D01*
X121078644Y-79750084D01*
X121248391Y-79626756D01*
X121396756Y-79478391D01*
X121520084Y-79308644D01*
X121615340Y-79121694D01*
X121680177Y-78922145D01*
X121713000Y-78714909D01*
X121713000Y-78505091D01*
X121680177Y-78297855D01*
X121615340Y-78098306D01*
X121615340Y-78098305D01*
X121582353Y-78033566D01*
X121520084Y-77911356D01*
X121403216Y-77750500D01*
X121396761Y-77741615D01*
X121396757Y-77741610D01*
X121248389Y-77593242D01*
X121248384Y-77593238D01*
X121078648Y-77469918D01*
X121074434Y-77467771D01*
X121040507Y-77450484D01*
X120989712Y-77402511D01*
X120972917Y-77334690D01*
X120995454Y-77268555D01*
X121040507Y-77229515D01*
X121078644Y-77210084D01*
X121248391Y-77086756D01*
X121396756Y-76938391D01*
X121520084Y-76768644D01*
X121615340Y-76581694D01*
X121680177Y-76382145D01*
X121713000Y-76174909D01*
X121713000Y-75965091D01*
X121680177Y-75757855D01*
X121615340Y-75558306D01*
X121615340Y-75558305D01*
X121568619Y-75466612D01*
X121520084Y-75371356D01*
X121476735Y-75311691D01*
X121396761Y-75201615D01*
X121396757Y-75201610D01*
X121248389Y-75053242D01*
X121248384Y-75053238D01*
X121078648Y-74929918D01*
X121074434Y-74927771D01*
X121040507Y-74910484D01*
X120989712Y-74862511D01*
X120972917Y-74794690D01*
X120995454Y-74728555D01*
X121040507Y-74689515D01*
X121078644Y-74670084D01*
X121248391Y-74546756D01*
X121396756Y-74398391D01*
X121520084Y-74228644D01*
X121615340Y-74041694D01*
X121680177Y-73842145D01*
X121713000Y-73634909D01*
X121713000Y-73425091D01*
X121680177Y-73217855D01*
X121615340Y-73018306D01*
X121615340Y-73018305D01*
X121574172Y-72937510D01*
X121520084Y-72831356D01*
X121458385Y-72746434D01*
X121396761Y-72661615D01*
X121396757Y-72661610D01*
X121248389Y-72513242D01*
X121248384Y-72513238D01*
X121078648Y-72389918D01*
X121074434Y-72387771D01*
X121040507Y-72370484D01*
X121036592Y-72366787D01*
X121031402Y-72365351D01*
X121011463Y-72343054D01*
X120989712Y-72322511D01*
X120988416Y-72317281D01*
X120984828Y-72313268D01*
X120980108Y-72283729D01*
X120972917Y-72254690D01*
X120974653Y-72249593D01*
X120973804Y-72244274D01*
X120985805Y-72216868D01*
X120995454Y-72188555D01*
X121000247Y-72183890D01*
X121001832Y-72180272D01*
X121013500Y-72170992D01*
X121028141Y-72156745D01*
X121030627Y-72155091D01*
X122097000Y-72155091D01*
X122097000Y-72364909D01*
X122097883Y-72370484D01*
X122129823Y-72572146D01*
X122194658Y-72771691D01*
X122194659Y-72771694D01*
X122289918Y-72958647D01*
X122413238Y-73128384D01*
X122413242Y-73128389D01*
X122561610Y-73276757D01*
X122561615Y-73276761D01*
X122731354Y-73400083D01*
X122769492Y-73419516D01*
X122820287Y-73467490D01*
X122837082Y-73535311D01*
X122814544Y-73601446D01*
X122769492Y-73640484D01*
X122731354Y-73659916D01*
X122561615Y-73783238D01*
X122561610Y-73783242D01*
X122413242Y-73931610D01*
X122413238Y-73931615D01*
X122289918Y-74101352D01*
X122194659Y-74288305D01*
X122194658Y-74288308D01*
X122129823Y-74487853D01*
X122097000Y-74695091D01*
X122097000Y-74904908D01*
X122129823Y-75112146D01*
X122194658Y-75311691D01*
X122194659Y-75311694D01*
X122289918Y-75498647D01*
X122413238Y-75668384D01*
X122413242Y-75668389D01*
X122561610Y-75816757D01*
X122561615Y-75816761D01*
X122731354Y-75940083D01*
X122769492Y-75959516D01*
X122820287Y-76007490D01*
X122837082Y-76075311D01*
X122814544Y-76141446D01*
X122769492Y-76180484D01*
X122731354Y-76199916D01*
X122561615Y-76323238D01*
X122561610Y-76323242D01*
X122413242Y-76471610D01*
X122413238Y-76471615D01*
X122289918Y-76641352D01*
X122194659Y-76828305D01*
X122194658Y-76828308D01*
X122129823Y-77027853D01*
X122129823Y-77027855D01*
X122097000Y-77235091D01*
X122097000Y-77444909D01*
X122104511Y-77492331D01*
X122129823Y-77652146D01*
X122194658Y-77851691D01*
X122194659Y-77851694D01*
X122289918Y-78038647D01*
X122413238Y-78208384D01*
X122413242Y-78208389D01*
X122561610Y-78356757D01*
X122561615Y-78356761D01*
X122731351Y-78480081D01*
X122731353Y-78480082D01*
X122731356Y-78480084D01*
X122770043Y-78499796D01*
X122820838Y-78547768D01*
X122837634Y-78615589D01*
X122815098Y-78681724D01*
X122770045Y-78720764D01*
X122731611Y-78740347D01*
X122680810Y-78777256D01*
X122680810Y-78777257D01*
X123255682Y-79352129D01*
X123215778Y-79362822D01*
X123089222Y-79435890D01*
X122985890Y-79539222D01*
X122912822Y-79665778D01*
X122902129Y-79705682D01*
X122327257Y-79130810D01*
X122327256Y-79130810D01*
X122290347Y-79181611D01*
X122195125Y-79368493D01*
X122130310Y-79567971D01*
X122097500Y-79775130D01*
X122097500Y-79984869D01*
X122130310Y-80192028D01*
X122195125Y-80391506D01*
X122290342Y-80578378D01*
X122327257Y-80629188D01*
X122902129Y-80054316D01*
X122912822Y-80094222D01*
X122985890Y-80220778D01*
X123089222Y-80324110D01*
X123215778Y-80397178D01*
X123255682Y-80407870D01*
X122680809Y-80982741D01*
X122680810Y-80982742D01*
X122731613Y-81019653D01*
X122770594Y-81039515D01*
X122821390Y-81087489D01*
X122838185Y-81155310D01*
X122815648Y-81221445D01*
X122770595Y-81260484D01*
X122731615Y-81280345D01*
X122731612Y-81280347D01*
X122680810Y-81317256D01*
X122680810Y-81317257D01*
X123255682Y-81892129D01*
X123215778Y-81902822D01*
X123089222Y-81975890D01*
X122985890Y-82079222D01*
X122912822Y-82205778D01*
X122902129Y-82245682D01*
X122327257Y-81670810D01*
X122327256Y-81670810D01*
X122290347Y-81721611D01*
X122195125Y-81908493D01*
X122130310Y-82107971D01*
X122097500Y-82315130D01*
X122097500Y-82524869D01*
X122130310Y-82732028D01*
X122195125Y-82931506D01*
X122290342Y-83118378D01*
X122327257Y-83169188D01*
X122902129Y-82594316D01*
X122912822Y-82634222D01*
X122985890Y-82760778D01*
X123089222Y-82864110D01*
X123215778Y-82937178D01*
X123255682Y-82947870D01*
X122680809Y-83522741D01*
X122680810Y-83522742D01*
X122731614Y-83559653D01*
X122918493Y-83654874D01*
X123117971Y-83719689D01*
X123325131Y-83752500D01*
X123534869Y-83752500D01*
X123742028Y-83719689D01*
X123941506Y-83654874D01*
X124128374Y-83559659D01*
X124128387Y-83559651D01*
X124179188Y-83522742D01*
X124179189Y-83522741D01*
X123604317Y-82947870D01*
X123644222Y-82937178D01*
X123770778Y-82864110D01*
X123874110Y-82760778D01*
X123947178Y-82634222D01*
X123957870Y-82594317D01*
X124532741Y-83169189D01*
X124532742Y-83169188D01*
X124569651Y-83118387D01*
X124569659Y-83118374D01*
X124664874Y-82931506D01*
X124729689Y-82732028D01*
X124762500Y-82524869D01*
X124762500Y-82315130D01*
X124729689Y-82107971D01*
X124664874Y-81908493D01*
X124569653Y-81721614D01*
X124532742Y-81670810D01*
X124532741Y-81670809D01*
X123957870Y-82245681D01*
X123947178Y-82205778D01*
X123874110Y-82079222D01*
X123770778Y-81975890D01*
X123644222Y-81902822D01*
X123604315Y-81892129D01*
X124179188Y-81317257D01*
X124128378Y-81280342D01*
X124089406Y-81260485D01*
X124038610Y-81212511D01*
X124021815Y-81144690D01*
X124044352Y-81078555D01*
X124089406Y-81039515D01*
X124128374Y-81019659D01*
X124128387Y-81019651D01*
X124179188Y-80982742D01*
X124179189Y-80982741D01*
X123604317Y-80407870D01*
X123644222Y-80397178D01*
X123770778Y-80324110D01*
X123874110Y-80220778D01*
X123947178Y-80094222D01*
X123957870Y-80054317D01*
X124532741Y-80629189D01*
X124532742Y-80629188D01*
X124569651Y-80578387D01*
X124569659Y-80578374D01*
X124664874Y-80391506D01*
X124729689Y-80192028D01*
X124762500Y-79984869D01*
X124762500Y-79775130D01*
X124729689Y-79567971D01*
X124664874Y-79368493D01*
X124569653Y-79181614D01*
X124532742Y-79130810D01*
X124532741Y-79130809D01*
X123957870Y-79705681D01*
X123947178Y-79665778D01*
X123874110Y-79539222D01*
X123770778Y-79435890D01*
X123644222Y-79362822D01*
X123604315Y-79352129D01*
X124179188Y-78777257D01*
X124128375Y-78740340D01*
X124089956Y-78720764D01*
X124039160Y-78672789D01*
X124022366Y-78604968D01*
X124044904Y-78538833D01*
X124089956Y-78499796D01*
X124128644Y-78480084D01*
X124298391Y-78356756D01*
X124446756Y-78208391D01*
X124570084Y-78038644D01*
X124665340Y-77851694D01*
X124730177Y-77652145D01*
X124763000Y-77444909D01*
X124763000Y-77235091D01*
X124730177Y-77027855D01*
X124675454Y-76859433D01*
X124665341Y-76828308D01*
X124665340Y-76828305D01*
X124607307Y-76714410D01*
X124570084Y-76641356D01*
X124526735Y-76581691D01*
X124446761Y-76471615D01*
X124446757Y-76471610D01*
X124298389Y-76323242D01*
X124298384Y-76323238D01*
X124128648Y-76199918D01*
X124124434Y-76197771D01*
X124090507Y-76180484D01*
X124039712Y-76132511D01*
X124022917Y-76064690D01*
X124045454Y-75998555D01*
X124090507Y-75959515D01*
X124128644Y-75940084D01*
X124298391Y-75816756D01*
X124446756Y-75668391D01*
X124570084Y-75498644D01*
X124665340Y-75311694D01*
X124730177Y-75112145D01*
X124763000Y-74904909D01*
X124763000Y-74695091D01*
X124730177Y-74487855D01*
X124665340Y-74288306D01*
X124665340Y-74288305D01*
X124632353Y-74223566D01*
X124570084Y-74101356D01*
X124526735Y-74041691D01*
X124446761Y-73931615D01*
X124446757Y-73931610D01*
X124298389Y-73783242D01*
X124298384Y-73783238D01*
X124128648Y-73659918D01*
X124124434Y-73657771D01*
X124090507Y-73640484D01*
X124039712Y-73592511D01*
X124022917Y-73524690D01*
X124045454Y-73458555D01*
X124090507Y-73419515D01*
X124128644Y-73400084D01*
X124298391Y-73276756D01*
X124446756Y-73128391D01*
X124570084Y-72958644D01*
X124665340Y-72771694D01*
X124730177Y-72572145D01*
X124763000Y-72364909D01*
X124763000Y-72155091D01*
X124730177Y-71947855D01*
X124665340Y-71748306D01*
X124665340Y-71748305D01*
X124594968Y-71610194D01*
X124570084Y-71561356D01*
X124487863Y-71448188D01*
X124446761Y-71391615D01*
X124446757Y-71391610D01*
X124298389Y-71243242D01*
X124298384Y-71243238D01*
X124128647Y-71119918D01*
X124128646Y-71119917D01*
X124128644Y-71119916D01*
X124068750Y-71089398D01*
X123941694Y-71024659D01*
X123941691Y-71024658D01*
X123742146Y-70959823D01*
X123638527Y-70943411D01*
X123534909Y-70927000D01*
X123325091Y-70927000D01*
X123256012Y-70937941D01*
X123117853Y-70959823D01*
X122918308Y-71024658D01*
X122918305Y-71024659D01*
X122731352Y-71119918D01*
X122561615Y-71243238D01*
X122561610Y-71243242D01*
X122413242Y-71391610D01*
X122413238Y-71391615D01*
X122289918Y-71561352D01*
X122194659Y-71748305D01*
X122194658Y-71748308D01*
X122129823Y-71947853D01*
X122129823Y-71947855D01*
X122097000Y-72155091D01*
X121030627Y-72155091D01*
X121034112Y-72152773D01*
X121078644Y-72130084D01*
X121248391Y-72006756D01*
X121396756Y-71858391D01*
X121520084Y-71688644D01*
X121615340Y-71501694D01*
X121680177Y-71302145D01*
X121713000Y-71094909D01*
X121713000Y-70885091D01*
X121680177Y-70677855D01*
X121624508Y-70506523D01*
X121615341Y-70478308D01*
X121615340Y-70478305D01*
X121568024Y-70385444D01*
X121520084Y-70291356D01*
X121424045Y-70159169D01*
X121396761Y-70121615D01*
X121396757Y-70121610D01*
X121248389Y-69973242D01*
X121248384Y-69973238D01*
X121078648Y-69849918D01*
X121074434Y-69847771D01*
X121040507Y-69830484D01*
X120989712Y-69782511D01*
X120972917Y-69714690D01*
X120995454Y-69648555D01*
X121040507Y-69609515D01*
X121078644Y-69590084D01*
X121248391Y-69466756D01*
X121396756Y-69318391D01*
X121520084Y-69148644D01*
X121615340Y-68961694D01*
X121680177Y-68762145D01*
X121713000Y-68554909D01*
X121713000Y-68345091D01*
X121680177Y-68137855D01*
X121619140Y-67950000D01*
X121615341Y-67938308D01*
X121615340Y-67938305D01*
X121573954Y-67857082D01*
X121520084Y-67751356D01*
X121470044Y-67682482D01*
X121396761Y-67581615D01*
X121396757Y-67581610D01*
X121248389Y-67433242D01*
X121248384Y-67433238D01*
X121078648Y-67309918D01*
X121074434Y-67307771D01*
X121040507Y-67290484D01*
X120989712Y-67242511D01*
X120972917Y-67174690D01*
X120995454Y-67108555D01*
X121040507Y-67069515D01*
X121078644Y-67050084D01*
X121248391Y-66926756D01*
X121396756Y-66778391D01*
X121520084Y-66608644D01*
X121615340Y-66421694D01*
X121680177Y-66222145D01*
X121713000Y-66014909D01*
X121713000Y-65805091D01*
X121680177Y-65597855D01*
X121642274Y-65481202D01*
X121615341Y-65398308D01*
X121615340Y-65398305D01*
X121582353Y-65333566D01*
X121520084Y-65211356D01*
X121504327Y-65189669D01*
X121396761Y-65041615D01*
X121396757Y-65041610D01*
X121248389Y-64893242D01*
X121248384Y-64893238D01*
X121078647Y-64769918D01*
X121078646Y-64769917D01*
X121078644Y-64769916D01*
X121018750Y-64739398D01*
X120891694Y-64674659D01*
X120891691Y-64674658D01*
X120692146Y-64609823D01*
X120588527Y-64593411D01*
X120484909Y-64577000D01*
X120275091Y-64577000D01*
X120206012Y-64587941D01*
X120067853Y-64609823D01*
X119868308Y-64674658D01*
X119868305Y-64674659D01*
X119681352Y-64769918D01*
X119511615Y-64893238D01*
X119511610Y-64893242D01*
X119363242Y-65041610D01*
X119363238Y-65041615D01*
X119239918Y-65211352D01*
X119144659Y-65398305D01*
X119144658Y-65398308D01*
X119079823Y-65597853D01*
X119047000Y-65805091D01*
X119047000Y-66014908D01*
X119079823Y-66222146D01*
X119144658Y-66421691D01*
X119144659Y-66421694D01*
X119202809Y-66535817D01*
X119234150Y-66597328D01*
X119239918Y-66608647D01*
X119363238Y-66778384D01*
X119363242Y-66778389D01*
X119511610Y-66926757D01*
X119511615Y-66926761D01*
X119681354Y-67050083D01*
X119719492Y-67069516D01*
X119770287Y-67117490D01*
X119787082Y-67185311D01*
X119764544Y-67251446D01*
X119719492Y-67290484D01*
X119681354Y-67309916D01*
X119511615Y-67433238D01*
X119511610Y-67433242D01*
X119363242Y-67581610D01*
X119363238Y-67581615D01*
X119239918Y-67751352D01*
X119144659Y-67938305D01*
X119144658Y-67938308D01*
X119079823Y-68137853D01*
X119047000Y-68345091D01*
X119047000Y-68554908D01*
X119079823Y-68762146D01*
X119144658Y-68961691D01*
X119144659Y-68961694D01*
X119186045Y-69042917D01*
X119235736Y-69140441D01*
X119239918Y-69148647D01*
X119363238Y-69318384D01*
X119363242Y-69318389D01*
X119511610Y-69466757D01*
X119511615Y-69466761D01*
X119681354Y-69590083D01*
X119719492Y-69609516D01*
X119770287Y-69657490D01*
X119787082Y-69725311D01*
X119764544Y-69791446D01*
X119719492Y-69830484D01*
X119681354Y-69849916D01*
X119511615Y-69973238D01*
X119511610Y-69973242D01*
X119363242Y-70121610D01*
X119363238Y-70121615D01*
X119239918Y-70291352D01*
X119144659Y-70478305D01*
X119144658Y-70478308D01*
X119079823Y-70677853D01*
X119067460Y-70755909D01*
X119047000Y-70885091D01*
X119047000Y-71094909D01*
X119054540Y-71142516D01*
X119079823Y-71302146D01*
X119144658Y-71501691D01*
X119144659Y-71501694D01*
X119239918Y-71688647D01*
X119363238Y-71858384D01*
X119363242Y-71858389D01*
X119511610Y-72006757D01*
X119511615Y-72006761D01*
X119681354Y-72130083D01*
X119719492Y-72149516D01*
X119770287Y-72197490D01*
X119787082Y-72265311D01*
X119764544Y-72331446D01*
X119719492Y-72370484D01*
X119681354Y-72389916D01*
X119511615Y-72513238D01*
X119511610Y-72513242D01*
X119363242Y-72661610D01*
X119363238Y-72661615D01*
X119239918Y-72831352D01*
X119144659Y-73018305D01*
X119144658Y-73018308D01*
X119079823Y-73217853D01*
X119047000Y-73425091D01*
X119047000Y-73634908D01*
X119079823Y-73842146D01*
X119144658Y-74041691D01*
X119144659Y-74041694D01*
X119239918Y-74228647D01*
X119363238Y-74398384D01*
X119363242Y-74398389D01*
X119511610Y-74546757D01*
X119511615Y-74546761D01*
X119681354Y-74670083D01*
X119719492Y-74689516D01*
X119770287Y-74737490D01*
X119787082Y-74805311D01*
X119764544Y-74871446D01*
X119719492Y-74910484D01*
X119681354Y-74929916D01*
X119511615Y-75053238D01*
X119511610Y-75053242D01*
X119363242Y-75201610D01*
X119363238Y-75201615D01*
X119239918Y-75371352D01*
X119144659Y-75558305D01*
X119144658Y-75558308D01*
X119079823Y-75757853D01*
X119047000Y-75965091D01*
X119047000Y-76174908D01*
X119079823Y-76382146D01*
X119144658Y-76581691D01*
X119144659Y-76581694D01*
X119175057Y-76641352D01*
X119238164Y-76765206D01*
X119239918Y-76768647D01*
X119363238Y-76938384D01*
X119363242Y-76938389D01*
X119511610Y-77086757D01*
X119511615Y-77086761D01*
X119681354Y-77210083D01*
X119719492Y-77229516D01*
X119770287Y-77277490D01*
X119787082Y-77345311D01*
X119764544Y-77411446D01*
X119719492Y-77450484D01*
X119681354Y-77469916D01*
X119511615Y-77593238D01*
X119511610Y-77593242D01*
X119363242Y-77741610D01*
X119363238Y-77741615D01*
X119239918Y-77911352D01*
X119144659Y-78098305D01*
X119144658Y-78098308D01*
X119079823Y-78297853D01*
X119047000Y-78505091D01*
X119047000Y-78714908D01*
X119079823Y-78922146D01*
X119144658Y-79121691D01*
X119144659Y-79121694D01*
X119239918Y-79308647D01*
X119363238Y-79478384D01*
X119363242Y-79478389D01*
X119511610Y-79626757D01*
X119511615Y-79626761D01*
X119681354Y-79750083D01*
X119719492Y-79769516D01*
X119770287Y-79817490D01*
X119787082Y-79885311D01*
X119764544Y-79951446D01*
X119719492Y-79990484D01*
X119681354Y-80009916D01*
X119511615Y-80133238D01*
X119511610Y-80133242D01*
X119363242Y-80281610D01*
X119363238Y-80281615D01*
X119239918Y-80451352D01*
X119144659Y-80638305D01*
X119144658Y-80638308D01*
X119079823Y-80837853D01*
X119047000Y-81045091D01*
X119047000Y-81254908D01*
X119079823Y-81462146D01*
X119144658Y-81661691D01*
X119144659Y-81661694D01*
X119239918Y-81848647D01*
X119363238Y-82018384D01*
X119363242Y-82018389D01*
X119511610Y-82166757D01*
X119511615Y-82166761D01*
X119681354Y-82290083D01*
X119719492Y-82309516D01*
X119770287Y-82357490D01*
X119787082Y-82425311D01*
X119764544Y-82491446D01*
X119719492Y-82530484D01*
X119681354Y-82549916D01*
X119511615Y-82673238D01*
X119511610Y-82673242D01*
X119363242Y-82821610D01*
X119363238Y-82821615D01*
X119239918Y-82991352D01*
X119144659Y-83178305D01*
X119144658Y-83178308D01*
X119079823Y-83377853D01*
X119047000Y-83585091D01*
X119047000Y-83794908D01*
X119079823Y-84002146D01*
X119144658Y-84201691D01*
X119144659Y-84201694D01*
X119203666Y-84317500D01*
X119238164Y-84385206D01*
X119239918Y-84388647D01*
X119363238Y-84558384D01*
X119363242Y-84558389D01*
X119511610Y-84706757D01*
X119511615Y-84706761D01*
X119681354Y-84830083D01*
X119719492Y-84849516D01*
X119770287Y-84897490D01*
X119787082Y-84965311D01*
X119764544Y-85031446D01*
X119719492Y-85070484D01*
X119681354Y-85089916D01*
X119511615Y-85213238D01*
X119511610Y-85213242D01*
X119363242Y-85361610D01*
X119363238Y-85361615D01*
X119239918Y-85531352D01*
X119144659Y-85718305D01*
X119144658Y-85718308D01*
X119079823Y-85917853D01*
X119047000Y-86125091D01*
X119047000Y-86334908D01*
X119079823Y-86542146D01*
X119144658Y-86741691D01*
X119144659Y-86741694D01*
X119194676Y-86839856D01*
X119239901Y-86928615D01*
X119239918Y-86928647D01*
X119363238Y-87098384D01*
X119363242Y-87098389D01*
X119511610Y-87246757D01*
X119511615Y-87246761D01*
X119681354Y-87370083D01*
X119719492Y-87389516D01*
X119770287Y-87437490D01*
X119787082Y-87505311D01*
X119764544Y-87571446D01*
X119719492Y-87610484D01*
X119681354Y-87629916D01*
X119511615Y-87753238D01*
X119511610Y-87753242D01*
X119363242Y-87901610D01*
X119363238Y-87901615D01*
X119239918Y-88071352D01*
X119144659Y-88258305D01*
X119144658Y-88258308D01*
X119079823Y-88457853D01*
X119047000Y-88665091D01*
X119047000Y-88874908D01*
X119079823Y-89082146D01*
X119144658Y-89281691D01*
X119144659Y-89281694D01*
X119239918Y-89468647D01*
X119363238Y-89638384D01*
X119363242Y-89638389D01*
X119511610Y-89786757D01*
X119511615Y-89786761D01*
X119681354Y-89910083D01*
X119719492Y-89929516D01*
X119770287Y-89977490D01*
X119787082Y-90045311D01*
X119764544Y-90111446D01*
X119719492Y-90150484D01*
X119681354Y-90169916D01*
X119511615Y-90293238D01*
X119511610Y-90293242D01*
X119363242Y-90441610D01*
X119363238Y-90441615D01*
X119239918Y-90611352D01*
X119144659Y-90798305D01*
X119144658Y-90798308D01*
X119079823Y-90997853D01*
X119047000Y-91205091D01*
X119047000Y-91414908D01*
X119079823Y-91622146D01*
X119144658Y-91821691D01*
X119144659Y-91821694D01*
X119239918Y-92008647D01*
X119363238Y-92178384D01*
X119363242Y-92178389D01*
X119511610Y-92326757D01*
X119511615Y-92326761D01*
X119681354Y-92450083D01*
X119719492Y-92469516D01*
X119770287Y-92517490D01*
X119787082Y-92585311D01*
X119764544Y-92651446D01*
X119719492Y-92690484D01*
X119681354Y-92709916D01*
X119511615Y-92833238D01*
X119511610Y-92833242D01*
X119363242Y-92981610D01*
X119363238Y-92981615D01*
X119239918Y-93151352D01*
X119144659Y-93338305D01*
X119144658Y-93338308D01*
X119079823Y-93537853D01*
X119052946Y-93707547D01*
X119047000Y-93745091D01*
X119047000Y-93954909D01*
X119060444Y-94039790D01*
X119079823Y-94162146D01*
X119144658Y-94361691D01*
X119144659Y-94361694D01*
X119239918Y-94548647D01*
X119363238Y-94718384D01*
X119363242Y-94718389D01*
X119511610Y-94866757D01*
X119511615Y-94866761D01*
X119681354Y-94990083D01*
X119719492Y-95009516D01*
X119770287Y-95057490D01*
X119787082Y-95125311D01*
X119764544Y-95191446D01*
X119719492Y-95230484D01*
X119681354Y-95249916D01*
X119511615Y-95373238D01*
X119511610Y-95373242D01*
X119363242Y-95521610D01*
X119363238Y-95521615D01*
X119239918Y-95691352D01*
X119144659Y-95878305D01*
X119144658Y-95878308D01*
X119079823Y-96077853D01*
X119047000Y-96285091D01*
X119047000Y-96494908D01*
X119079823Y-96702146D01*
X119144658Y-96901691D01*
X119144659Y-96901694D01*
X119239918Y-97088647D01*
X119363238Y-97258384D01*
X119363242Y-97258389D01*
X119511610Y-97406757D01*
X119511615Y-97406761D01*
X119681354Y-97530083D01*
X119719492Y-97549516D01*
X119770287Y-97597490D01*
X119787082Y-97665311D01*
X119764544Y-97731446D01*
X119719492Y-97770484D01*
X119681354Y-97789916D01*
X119511615Y-97913238D01*
X119511610Y-97913242D01*
X119363242Y-98061610D01*
X119363238Y-98061615D01*
X119239918Y-98231352D01*
X119144659Y-98418305D01*
X119144658Y-98418308D01*
X119079823Y-98617853D01*
X119079823Y-98617855D01*
X119047000Y-98825091D01*
X119047000Y-99034909D01*
X119063411Y-99138527D01*
X119079823Y-99242146D01*
X119144658Y-99441691D01*
X119144659Y-99441694D01*
X119239918Y-99628647D01*
X119363238Y-99798384D01*
X119363242Y-99798389D01*
X119511610Y-99946757D01*
X119511615Y-99946761D01*
X119681354Y-100070083D01*
X119719492Y-100089516D01*
X119770287Y-100137490D01*
X119787082Y-100205311D01*
X119764544Y-100271446D01*
X119719492Y-100310484D01*
X119681354Y-100329916D01*
X119511615Y-100453238D01*
X119511610Y-100453242D01*
X119363242Y-100601610D01*
X119363238Y-100601615D01*
X119239918Y-100771352D01*
X119144659Y-100958305D01*
X119144658Y-100958308D01*
X119079823Y-101157853D01*
X119047000Y-101365091D01*
X119047000Y-101574908D01*
X119079823Y-101782146D01*
X119144658Y-101981691D01*
X119144659Y-101981694D01*
X119239918Y-102168647D01*
X119363238Y-102338384D01*
X119363242Y-102338389D01*
X119511610Y-102486757D01*
X119511615Y-102486761D01*
X119681354Y-102610083D01*
X119719492Y-102629516D01*
X119770287Y-102677490D01*
X119787082Y-102745311D01*
X119764544Y-102811446D01*
X119719492Y-102850484D01*
X119681354Y-102869916D01*
X119511615Y-102993238D01*
X119511610Y-102993242D01*
X119363242Y-103141610D01*
X119363238Y-103141615D01*
X119239918Y-103311352D01*
X119144659Y-103498305D01*
X119144658Y-103498308D01*
X119079823Y-103697853D01*
X119047000Y-103905091D01*
X119047000Y-104114908D01*
X119079823Y-104322146D01*
X119144658Y-104521691D01*
X119144659Y-104521694D01*
X119239918Y-104708647D01*
X119363238Y-104878384D01*
X119363242Y-104878389D01*
X119511610Y-105026757D01*
X119511615Y-105026761D01*
X119681354Y-105150083D01*
X119719492Y-105169516D01*
X119770287Y-105217490D01*
X119787082Y-105285311D01*
X119764544Y-105351446D01*
X119719492Y-105390484D01*
X119681354Y-105409916D01*
X119511615Y-105533238D01*
X119511610Y-105533242D01*
X119363242Y-105681610D01*
X119363238Y-105681615D01*
X119239918Y-105851352D01*
X119144659Y-106038305D01*
X119144658Y-106038308D01*
X119079823Y-106237853D01*
X119047000Y-106445091D01*
X119047000Y-106654908D01*
X119079823Y-106862146D01*
X119144658Y-107061691D01*
X119144659Y-107061694D01*
X119239918Y-107248647D01*
X119363238Y-107418384D01*
X119363242Y-107418389D01*
X119511610Y-107566757D01*
X119511615Y-107566761D01*
X119681354Y-107690083D01*
X119719492Y-107709516D01*
X119770287Y-107757490D01*
X119787082Y-107825311D01*
X119764544Y-107891446D01*
X119719492Y-107930484D01*
X119681354Y-107949916D01*
X119511615Y-108073238D01*
X119511610Y-108073242D01*
X119363242Y-108221610D01*
X119363238Y-108221615D01*
X119239918Y-108391352D01*
X119144659Y-108578305D01*
X119144658Y-108578308D01*
X119079823Y-108777853D01*
X119047000Y-108985091D01*
X119047000Y-109194908D01*
X119079823Y-109402146D01*
X119144658Y-109601691D01*
X119144659Y-109601694D01*
X119239918Y-109788647D01*
X119363238Y-109958384D01*
X119363242Y-109958389D01*
X119511610Y-110106757D01*
X119511615Y-110106761D01*
X119681354Y-110230083D01*
X119719492Y-110249516D01*
X119770287Y-110297490D01*
X119787082Y-110365311D01*
X119764544Y-110431446D01*
X119719492Y-110470484D01*
X119681354Y-110489916D01*
X119511615Y-110613238D01*
X119511610Y-110613242D01*
X119363242Y-110761610D01*
X119363238Y-110761615D01*
X119239918Y-110931352D01*
X119144659Y-111118305D01*
X119144658Y-111118308D01*
X119079823Y-111317853D01*
X119055454Y-111471714D01*
X119047000Y-111525091D01*
X119047000Y-111734909D01*
X119048795Y-111746242D01*
X119079823Y-111942146D01*
X119144658Y-112141691D01*
X119144659Y-112141694D01*
X119197247Y-112244902D01*
X119239785Y-112328387D01*
X119239918Y-112328647D01*
X119363238Y-112498384D01*
X119363242Y-112498389D01*
X119511610Y-112646757D01*
X119511615Y-112646761D01*
X119681354Y-112770083D01*
X119719492Y-112789516D01*
X119770287Y-112837490D01*
X119787082Y-112905311D01*
X119764544Y-112971446D01*
X119719492Y-113010484D01*
X119681354Y-113029916D01*
X119511615Y-113153238D01*
X119511610Y-113153242D01*
X119363242Y-113301610D01*
X119363238Y-113301615D01*
X119239918Y-113471352D01*
X119144659Y-113658305D01*
X119144658Y-113658308D01*
X119079823Y-113857853D01*
X119047000Y-114065091D01*
X119047000Y-114274908D01*
X119079823Y-114482146D01*
X119144658Y-114681691D01*
X119144659Y-114681694D01*
X119239918Y-114868647D01*
X119363238Y-115038384D01*
X119363242Y-115038389D01*
X119511610Y-115186757D01*
X119511615Y-115186761D01*
X119681354Y-115310083D01*
X119719492Y-115329516D01*
X119770287Y-115377490D01*
X119787082Y-115445311D01*
X119764544Y-115511446D01*
X119719492Y-115550484D01*
X119681354Y-115569916D01*
X119511615Y-115693238D01*
X119511610Y-115693242D01*
X119363242Y-115841610D01*
X119363238Y-115841615D01*
X119239918Y-116011352D01*
X119144659Y-116198305D01*
X119144658Y-116198308D01*
X119079823Y-116397853D01*
X119047000Y-116605091D01*
X119047000Y-116814908D01*
X119079823Y-117022146D01*
X119144658Y-117221691D01*
X119144659Y-117221694D01*
X119239918Y-117408647D01*
X119363238Y-117578384D01*
X119363242Y-117578389D01*
X119511610Y-117726757D01*
X119511615Y-117726761D01*
X119681354Y-117850083D01*
X119719492Y-117869516D01*
X119770287Y-117917490D01*
X119787082Y-117985311D01*
X119764544Y-118051446D01*
X119719492Y-118090484D01*
X119681354Y-118109916D01*
X119511615Y-118233238D01*
X119511610Y-118233242D01*
X119363242Y-118381610D01*
X119363238Y-118381615D01*
X119239918Y-118551352D01*
X119144659Y-118738305D01*
X119144658Y-118738308D01*
X119079823Y-118937853D01*
X119047000Y-119145091D01*
X119047000Y-119354908D01*
X119079823Y-119562146D01*
X119144658Y-119761691D01*
X119144659Y-119761694D01*
X119239918Y-119948647D01*
X119363238Y-120118384D01*
X119363242Y-120118389D01*
X119511610Y-120266757D01*
X119511615Y-120266761D01*
X119681354Y-120390083D01*
X119719492Y-120409516D01*
X119770287Y-120457490D01*
X119787082Y-120525311D01*
X119764544Y-120591446D01*
X119719492Y-120630484D01*
X119681354Y-120649916D01*
X119511615Y-120773238D01*
X119511610Y-120773242D01*
X119363242Y-120921610D01*
X119363238Y-120921615D01*
X119239918Y-121091352D01*
X119144659Y-121278305D01*
X119144658Y-121278308D01*
X119079823Y-121477853D01*
X119047000Y-121685091D01*
X119047000Y-121894908D01*
X119079823Y-122102146D01*
X119144658Y-122301691D01*
X119144659Y-122301694D01*
X119239918Y-122488647D01*
X119363238Y-122658384D01*
X119363242Y-122658389D01*
X119511610Y-122806757D01*
X119511615Y-122806761D01*
X119681354Y-122930083D01*
X119719492Y-122949516D01*
X119770287Y-122997490D01*
X119787082Y-123065311D01*
X119764544Y-123131446D01*
X119719492Y-123170484D01*
X119681354Y-123189916D01*
X119511615Y-123313238D01*
X119511610Y-123313242D01*
X119363242Y-123461610D01*
X119363238Y-123461615D01*
X119239918Y-123631352D01*
X119144659Y-123818305D01*
X119144658Y-123818308D01*
X119079823Y-124017853D01*
X119047000Y-124225091D01*
X119047000Y-124434908D01*
X119079823Y-124642146D01*
X119144658Y-124841691D01*
X119144659Y-124841694D01*
X119239918Y-125028647D01*
X119363238Y-125198384D01*
X119363242Y-125198389D01*
X119511610Y-125346757D01*
X119511615Y-125346761D01*
X119659669Y-125454327D01*
X119681356Y-125470084D01*
X119764777Y-125512589D01*
X119868305Y-125565340D01*
X119868308Y-125565341D01*
X119968080Y-125597758D01*
X120067855Y-125630177D01*
X120275091Y-125663000D01*
X120275092Y-125663000D01*
X120484908Y-125663000D01*
X120484909Y-125663000D01*
X120692145Y-125630177D01*
X120891694Y-125565340D01*
X121078644Y-125470084D01*
X121248391Y-125346756D01*
X121396756Y-125198391D01*
X121520084Y-125028644D01*
X121615340Y-124841694D01*
X121680177Y-124642145D01*
X121713000Y-124434909D01*
X121713000Y-124225091D01*
X121680177Y-124017855D01*
X121647758Y-123918080D01*
X121615341Y-123818308D01*
X121615340Y-123818305D01*
X121568619Y-123726612D01*
X121520084Y-123631356D01*
X121466549Y-123557671D01*
X121396761Y-123461615D01*
X121396757Y-123461610D01*
X121248389Y-123313242D01*
X121248384Y-123313238D01*
X121078648Y-123189918D01*
X121074434Y-123187771D01*
X121040507Y-123170484D01*
X120989712Y-123122511D01*
X120972917Y-123054690D01*
X120995454Y-122988555D01*
X121040507Y-122949515D01*
X121078644Y-122930084D01*
X121248391Y-122806756D01*
X121396756Y-122658391D01*
X121520084Y-122488644D01*
X121615340Y-122301694D01*
X121680177Y-122102145D01*
X121713000Y-121894909D01*
X121713000Y-121685091D01*
X121680177Y-121477855D01*
X121635359Y-121339919D01*
X121615341Y-121278308D01*
X121615340Y-121278305D01*
X121568619Y-121186612D01*
X121520084Y-121091356D01*
X121441720Y-120983497D01*
X121396761Y-120921615D01*
X121396757Y-120921610D01*
X121248389Y-120773242D01*
X121248384Y-120773238D01*
X121078648Y-120649918D01*
X121074434Y-120647771D01*
X121040507Y-120630484D01*
X120989712Y-120582511D01*
X120972917Y-120514690D01*
X120995454Y-120448555D01*
X121040507Y-120409515D01*
X121078644Y-120390084D01*
X121248391Y-120266756D01*
X121396756Y-120118391D01*
X121520084Y-119948644D01*
X121615340Y-119761694D01*
X121680177Y-119562145D01*
X121713000Y-119354909D01*
X121713000Y-119229781D01*
X121732685Y-119162742D01*
X121785489Y-119116987D01*
X121854647Y-119107043D01*
X121918203Y-119136068D01*
X121924681Y-119142100D01*
X124086181Y-121303600D01*
X124119666Y-121364923D01*
X124122500Y-121391281D01*
X124122500Y-130429689D01*
X124102815Y-130496728D01*
X124086181Y-130517370D01*
X123482962Y-131120589D01*
X123465925Y-131057007D01*
X123400099Y-130942993D01*
X123307007Y-130849901D01*
X123192993Y-130784075D01*
X123129409Y-130767037D01*
X123692989Y-130203457D01*
X123657239Y-130177483D01*
X123481373Y-130087873D01*
X123293646Y-130026876D01*
X123098697Y-129996000D01*
X122901303Y-129996000D01*
X122706353Y-130026876D01*
X122518626Y-130087873D01*
X122342762Y-130177482D01*
X122342760Y-130177483D01*
X122307010Y-130203456D01*
X122307010Y-130203457D01*
X122870591Y-130767037D01*
X122807007Y-130784075D01*
X122692993Y-130849901D01*
X122599901Y-130942993D01*
X122534075Y-131057007D01*
X122517037Y-131120590D01*
X121953457Y-130557010D01*
X121953456Y-130557010D01*
X121927483Y-130592760D01*
X121927482Y-130592762D01*
X121837873Y-130768626D01*
X121776876Y-130956353D01*
X121746000Y-131151302D01*
X121746000Y-131348697D01*
X121776876Y-131543646D01*
X121837873Y-131731373D01*
X121927483Y-131907239D01*
X121953457Y-131942988D01*
X121953457Y-131942989D01*
X122517037Y-131379409D01*
X122534075Y-131442993D01*
X122599901Y-131557007D01*
X122692993Y-131650099D01*
X122807007Y-131715925D01*
X122870590Y-131732962D01*
X122307009Y-132296541D01*
X122307010Y-132296542D01*
X122342755Y-132322512D01*
X122342768Y-132322520D01*
X122518626Y-132412126D01*
X122706353Y-132473123D01*
X122901303Y-132504000D01*
X123098697Y-132504000D01*
X123293646Y-132473123D01*
X123481373Y-132412126D01*
X123657241Y-132322516D01*
X123692988Y-132296543D01*
X123692988Y-132296541D01*
X123129410Y-131732962D01*
X123192993Y-131715925D01*
X123307007Y-131650099D01*
X123400099Y-131557007D01*
X123465925Y-131442993D01*
X123482962Y-131379409D01*
X124086181Y-131982628D01*
X124119666Y-132043951D01*
X124122500Y-132070309D01*
X124122500Y-136799007D01*
X124102815Y-136866046D01*
X124050011Y-136911801D01*
X123980853Y-136921745D01*
X123917297Y-136892720D01*
X123910819Y-136886688D01*
X123817246Y-136793115D01*
X123657504Y-136677058D01*
X123657503Y-136677057D01*
X123657501Y-136677056D01*
X123481561Y-136587409D01*
X123481558Y-136587408D01*
X123293763Y-136526389D01*
X123098736Y-136495500D01*
X123098731Y-136495500D01*
X122901269Y-136495500D01*
X122901264Y-136495500D01*
X122706236Y-136526389D01*
X122518441Y-136587408D01*
X122342495Y-136677058D01*
X122182753Y-136793115D01*
X122043115Y-136932753D01*
X121927058Y-137092495D01*
X121837408Y-137268441D01*
X121776389Y-137456236D01*
X121745500Y-137651263D01*
X121745500Y-137848736D01*
X121776389Y-138043763D01*
X121822549Y-138185826D01*
X121837409Y-138231561D01*
X121908860Y-138371789D01*
X121927058Y-138407504D01*
X122043115Y-138567246D01*
X122182753Y-138706884D01*
X122324310Y-138809729D01*
X122342499Y-138822944D01*
X122518439Y-138912591D01*
X122643637Y-138953270D01*
X122706236Y-138973610D01*
X122901264Y-139004500D01*
X122901269Y-139004500D01*
X123098736Y-139004500D01*
X123293763Y-138973610D01*
X123296077Y-138972858D01*
X123481561Y-138912591D01*
X123657501Y-138822944D01*
X123762956Y-138746327D01*
X123817246Y-138706884D01*
X123817248Y-138706881D01*
X123817252Y-138706879D01*
X123910819Y-138613312D01*
X123972142Y-138579827D01*
X124041834Y-138584811D01*
X124097767Y-138626683D01*
X124122184Y-138692147D01*
X124122500Y-138700993D01*
X124122500Y-139938719D01*
X124102815Y-140005758D01*
X124086181Y-140026400D01*
X116849992Y-147262589D01*
X116806289Y-147306292D01*
X116762586Y-147349994D01*
X116762585Y-147349996D01*
X116693233Y-147453788D01*
X116691589Y-147458385D01*
X116689064Y-147464482D01*
X116645227Y-147518889D01*
X116578934Y-147540958D01*
X116511233Y-147523683D01*
X116463620Y-147472549D01*
X116450500Y-147417037D01*
X116450500Y-136948135D01*
X117245500Y-136948135D01*
X117245500Y-138551870D01*
X117245501Y-138551876D01*
X117251908Y-138611483D01*
X117302202Y-138746328D01*
X117302206Y-138746335D01*
X117388452Y-138861544D01*
X117388455Y-138861547D01*
X117503664Y-138947793D01*
X117503671Y-138947797D01*
X117638517Y-138998091D01*
X117638516Y-138998091D01*
X117645444Y-138998835D01*
X117698127Y-139004500D01*
X118578538Y-139004499D01*
X118645576Y-139024183D01*
X118691331Y-139076987D01*
X118701275Y-139146146D01*
X118672250Y-139209702D01*
X118651423Y-139228817D01*
X118457668Y-139369589D01*
X118279590Y-139547667D01*
X118279590Y-139547668D01*
X118131557Y-139751416D01*
X118017219Y-139975815D01*
X117939397Y-140215328D01*
X117939397Y-140215331D01*
X117919652Y-140340000D01*
X119009252Y-140340000D01*
X118987482Y-140377708D01*
X118950000Y-140517591D01*
X118950000Y-140662409D01*
X118987482Y-140802292D01*
X119009252Y-140840000D01*
X117919652Y-140840000D01*
X117939397Y-140964668D01*
X117939397Y-140964671D01*
X118017219Y-141204184D01*
X118131557Y-141428583D01*
X118279590Y-141632331D01*
X118279590Y-141632332D01*
X118457667Y-141810409D01*
X118661416Y-141958442D01*
X118885815Y-142072780D01*
X119125329Y-142150602D01*
X119250000Y-142170348D01*
X119250000Y-141080747D01*
X119287708Y-141102518D01*
X119427591Y-141140000D01*
X119572409Y-141140000D01*
X119712292Y-141102518D01*
X119750000Y-141080747D01*
X119750000Y-142170347D01*
X119874668Y-142150602D01*
X119874671Y-142150602D01*
X120114184Y-142072780D01*
X120338583Y-141958442D01*
X120542331Y-141810409D01*
X120542332Y-141810409D01*
X120720409Y-141632332D01*
X120720409Y-141632331D01*
X120868442Y-141428583D01*
X120982780Y-141204184D01*
X121060602Y-140964671D01*
X121060602Y-140964668D01*
X121080348Y-140840000D01*
X119990748Y-140840000D01*
X120012518Y-140802292D01*
X120050000Y-140662409D01*
X120050000Y-140517591D01*
X120012518Y-140377708D01*
X119990748Y-140340000D01*
X121080348Y-140340000D01*
X121060602Y-140215331D01*
X121060602Y-140215328D01*
X120982780Y-139975815D01*
X120868442Y-139751416D01*
X120720409Y-139547668D01*
X120720409Y-139547667D01*
X120542332Y-139369590D01*
X120338583Y-139221557D01*
X120114184Y-139107219D01*
X119874669Y-139029396D01*
X119730202Y-139006515D01*
X119667067Y-138976585D01*
X119630136Y-138917274D01*
X119631134Y-138847411D01*
X119650329Y-138809738D01*
X119697796Y-138746331D01*
X119748091Y-138611483D01*
X119754500Y-138551873D01*
X119754499Y-136948128D01*
X119748091Y-136888517D01*
X119712508Y-136793115D01*
X119697797Y-136753671D01*
X119697793Y-136753664D01*
X119611547Y-136638455D01*
X119611544Y-136638452D01*
X119496335Y-136552206D01*
X119496328Y-136552202D01*
X119361482Y-136501908D01*
X119361483Y-136501908D01*
X119301883Y-136495501D01*
X119301881Y-136495500D01*
X119301873Y-136495500D01*
X119301864Y-136495500D01*
X117698129Y-136495500D01*
X117698123Y-136495501D01*
X117638516Y-136501908D01*
X117503671Y-136552202D01*
X117503664Y-136552206D01*
X117388455Y-136638452D01*
X117388452Y-136638455D01*
X117302206Y-136753664D01*
X117302202Y-136753671D01*
X117251908Y-136888517D01*
X117248336Y-136921745D01*
X117245501Y-136948123D01*
X117245500Y-136948135D01*
X116450500Y-136948135D01*
X116450500Y-131151263D01*
X117245500Y-131151263D01*
X117245500Y-131348736D01*
X117276389Y-131543763D01*
X117337348Y-131731373D01*
X117337409Y-131731561D01*
X117419182Y-131892047D01*
X117427058Y-131907504D01*
X117543115Y-132067246D01*
X117682753Y-132206884D01*
X117806158Y-132296541D01*
X117842499Y-132322944D01*
X118018439Y-132412591D01*
X118143637Y-132453270D01*
X118206236Y-132473610D01*
X118401264Y-132504500D01*
X118401269Y-132504500D01*
X118598736Y-132504500D01*
X118793763Y-132473610D01*
X118795262Y-132473123D01*
X118981561Y-132412591D01*
X119157501Y-132322944D01*
X119247192Y-132257779D01*
X119317246Y-132206884D01*
X119317248Y-132206881D01*
X119317252Y-132206879D01*
X119456879Y-132067252D01*
X119456881Y-132067248D01*
X119456884Y-132067246D01*
X119518361Y-131982628D01*
X119572944Y-131907501D01*
X119662591Y-131731561D01*
X119723610Y-131543763D01*
X119732763Y-131485974D01*
X119754500Y-131348736D01*
X119754500Y-131151263D01*
X119723610Y-130956236D01*
X119667671Y-130784075D01*
X119662591Y-130768439D01*
X119572944Y-130592499D01*
X119547160Y-130557010D01*
X119456884Y-130432753D01*
X119317246Y-130293115D01*
X119157504Y-130177058D01*
X119157503Y-130177057D01*
X119157501Y-130177056D01*
X118981561Y-130087409D01*
X118981558Y-130087408D01*
X118793763Y-130026389D01*
X118598736Y-129995500D01*
X118598731Y-129995500D01*
X118401269Y-129995500D01*
X118401264Y-129995500D01*
X118206236Y-130026389D01*
X118018441Y-130087408D01*
X117842495Y-130177058D01*
X117682753Y-130293115D01*
X117543115Y-130432753D01*
X117427058Y-130592495D01*
X117337408Y-130768441D01*
X117276389Y-130956236D01*
X117245500Y-131151263D01*
X116450500Y-131151263D01*
X116450500Y-61324500D01*
X116470185Y-61257461D01*
X116522989Y-61211706D01*
X116574500Y-61200500D01*
X173425500Y-61200500D01*
X173492539Y-61220185D01*
G37*
G04 #@! TD.AperFunction*
G04 #@! TA.AperFunction,Conductor*
G36*
X140750000Y-103990347D02*
G01*
X140874668Y-103970602D01*
X140874671Y-103970602D01*
X141087182Y-103901554D01*
X141157023Y-103899559D01*
X141216856Y-103935640D01*
X141247684Y-103998341D01*
X141249500Y-104019485D01*
X141249500Y-116562719D01*
X141229815Y-116629758D01*
X141177011Y-116675513D01*
X141107853Y-116685457D01*
X141044297Y-116656432D01*
X141037819Y-116650400D01*
X139413819Y-115026400D01*
X139380334Y-114965077D01*
X139377500Y-114938719D01*
X139377500Y-103815528D01*
X139397185Y-103748489D01*
X139449989Y-103702734D01*
X139519147Y-103692790D01*
X139574386Y-103715211D01*
X139661412Y-103778440D01*
X139885815Y-103892780D01*
X140125329Y-103970602D01*
X140250000Y-103990348D01*
X140250000Y-102900747D01*
X140287708Y-102922518D01*
X140427591Y-102960000D01*
X140572409Y-102960000D01*
X140712292Y-102922518D01*
X140750000Y-102900747D01*
X140750000Y-103990347D01*
G37*
G04 #@! TD.AperFunction*
G04 #@! TA.AperFunction,Conductor*
G36*
X124005758Y-86897185D02*
G01*
X124026400Y-86913819D01*
X125012589Y-87900008D01*
X125099992Y-87987411D01*
X125099994Y-87987413D01*
X125099996Y-87987414D01*
X125202756Y-88056076D01*
X125202758Y-88056077D01*
X125202767Y-88056083D01*
X125213833Y-88060666D01*
X125227186Y-88066198D01*
X125272075Y-88084791D01*
X125316965Y-88103386D01*
X125438192Y-88127499D01*
X125438196Y-88127500D01*
X125438197Y-88127500D01*
X125561803Y-88127500D01*
X134256490Y-88127500D01*
X134323529Y-88147185D01*
X134369284Y-88199989D01*
X134379228Y-88269147D01*
X134374421Y-88289818D01*
X134319823Y-88457853D01*
X134287000Y-88665091D01*
X134287000Y-88874908D01*
X134319823Y-89082146D01*
X134384658Y-89281691D01*
X134384659Y-89281694D01*
X134479918Y-89468647D01*
X134603238Y-89638384D01*
X134603242Y-89638389D01*
X134751610Y-89786757D01*
X134751615Y-89786761D01*
X134921354Y-89910083D01*
X134959492Y-89929516D01*
X135010287Y-89977490D01*
X135027082Y-90045311D01*
X135004544Y-90111446D01*
X134959492Y-90150484D01*
X134921354Y-90169916D01*
X134751615Y-90293238D01*
X134751610Y-90293242D01*
X134603242Y-90441610D01*
X134603238Y-90441615D01*
X134479918Y-90611352D01*
X134384659Y-90798305D01*
X134384658Y-90798308D01*
X134319823Y-90997853D01*
X134287000Y-91205091D01*
X134287000Y-91414908D01*
X134319823Y-91622146D01*
X134384658Y-91821691D01*
X134384659Y-91821694D01*
X134479918Y-92008647D01*
X134603238Y-92178384D01*
X134603242Y-92178389D01*
X134751610Y-92326757D01*
X134751615Y-92326761D01*
X134921354Y-92450083D01*
X134959492Y-92469516D01*
X135010287Y-92517490D01*
X135027082Y-92585311D01*
X135004544Y-92651446D01*
X134959492Y-92690484D01*
X134921354Y-92709916D01*
X134751615Y-92833238D01*
X134751610Y-92833242D01*
X134603242Y-92981610D01*
X134603238Y-92981615D01*
X134479918Y-93151352D01*
X134384659Y-93338305D01*
X134384658Y-93338308D01*
X134319823Y-93537853D01*
X134292946Y-93707547D01*
X134287000Y-93745091D01*
X134287000Y-93954909D01*
X134300444Y-94039790D01*
X134319823Y-94162146D01*
X134384658Y-94361691D01*
X134384659Y-94361694D01*
X134479918Y-94548647D01*
X134603238Y-94718384D01*
X134603242Y-94718389D01*
X134751610Y-94866757D01*
X134751615Y-94866761D01*
X134921354Y-94990083D01*
X134959492Y-95009516D01*
X135010287Y-95057490D01*
X135027082Y-95125311D01*
X135004544Y-95191446D01*
X134959492Y-95230484D01*
X134921354Y-95249916D01*
X134751615Y-95373238D01*
X134751610Y-95373242D01*
X134603242Y-95521610D01*
X134603238Y-95521615D01*
X134479918Y-95691352D01*
X134384659Y-95878305D01*
X134384658Y-95878308D01*
X134319823Y-96077853D01*
X134287000Y-96285091D01*
X134287000Y-96494908D01*
X134319823Y-96702146D01*
X134384658Y-96901691D01*
X134384659Y-96901694D01*
X134479918Y-97088647D01*
X134603238Y-97258384D01*
X134603242Y-97258389D01*
X134751610Y-97406757D01*
X134751615Y-97406761D01*
X134921354Y-97530083D01*
X134959492Y-97549516D01*
X135010287Y-97597490D01*
X135027082Y-97665311D01*
X135004544Y-97731446D01*
X134959492Y-97770484D01*
X134921354Y-97789916D01*
X134751615Y-97913238D01*
X134751610Y-97913242D01*
X134603242Y-98061610D01*
X134603238Y-98061615D01*
X134479918Y-98231352D01*
X134384659Y-98418305D01*
X134384658Y-98418308D01*
X134319823Y-98617853D01*
X134319823Y-98617855D01*
X134287000Y-98825091D01*
X134287000Y-99034909D01*
X134303411Y-99138527D01*
X134319823Y-99242146D01*
X134384658Y-99441691D01*
X134384659Y-99441694D01*
X134479918Y-99628647D01*
X134603238Y-99798384D01*
X134603242Y-99798389D01*
X134751610Y-99946757D01*
X134751615Y-99946761D01*
X134921354Y-100070083D01*
X134959492Y-100089516D01*
X135010287Y-100137490D01*
X135027082Y-100205311D01*
X135004544Y-100271446D01*
X134959492Y-100310484D01*
X134921354Y-100329916D01*
X134751615Y-100453238D01*
X134751610Y-100453242D01*
X134603242Y-100601610D01*
X134603238Y-100601615D01*
X134479918Y-100771352D01*
X134384659Y-100958305D01*
X134384658Y-100958308D01*
X134319823Y-101157853D01*
X134287000Y-101365091D01*
X134287000Y-101574908D01*
X134319823Y-101782146D01*
X134384658Y-101981691D01*
X134384659Y-101981694D01*
X134479918Y-102168647D01*
X134603238Y-102338384D01*
X134603242Y-102338389D01*
X134751610Y-102486757D01*
X134751615Y-102486761D01*
X134921354Y-102610083D01*
X134959492Y-102629516D01*
X135010287Y-102677490D01*
X135027082Y-102745311D01*
X135004544Y-102811446D01*
X134959492Y-102850484D01*
X134921354Y-102869916D01*
X134751615Y-102993238D01*
X134751610Y-102993242D01*
X134603242Y-103141610D01*
X134603238Y-103141615D01*
X134479918Y-103311352D01*
X134384659Y-103498305D01*
X134384658Y-103498308D01*
X134319823Y-103697853D01*
X134287000Y-103905091D01*
X134287000Y-104114908D01*
X134319823Y-104322146D01*
X134384658Y-104521691D01*
X134384659Y-104521694D01*
X134479918Y-104708647D01*
X134603238Y-104878384D01*
X134603242Y-104878389D01*
X134751610Y-105026757D01*
X134751615Y-105026761D01*
X134921354Y-105150083D01*
X134959492Y-105169516D01*
X135010287Y-105217490D01*
X135027082Y-105285311D01*
X135004544Y-105351446D01*
X134959492Y-105390484D01*
X134921354Y-105409916D01*
X134751615Y-105533238D01*
X134751610Y-105533242D01*
X134603242Y-105681610D01*
X134603238Y-105681615D01*
X134479918Y-105851352D01*
X134384659Y-106038305D01*
X134384658Y-106038308D01*
X134319823Y-106237853D01*
X134287000Y-106445091D01*
X134287000Y-106654908D01*
X134319823Y-106862146D01*
X134384658Y-107061691D01*
X134384659Y-107061694D01*
X134479918Y-107248647D01*
X134603238Y-107418384D01*
X134603242Y-107418389D01*
X134751610Y-107566757D01*
X134751615Y-107566761D01*
X134921354Y-107690083D01*
X134959492Y-107709516D01*
X135010287Y-107757490D01*
X135027082Y-107825311D01*
X135004544Y-107891446D01*
X134959492Y-107930484D01*
X134921354Y-107949916D01*
X134751615Y-108073238D01*
X134751610Y-108073242D01*
X134603242Y-108221610D01*
X134603238Y-108221615D01*
X134479918Y-108391352D01*
X134384659Y-108578305D01*
X134384658Y-108578308D01*
X134319823Y-108777853D01*
X134287000Y-108985091D01*
X134287000Y-109194908D01*
X134319823Y-109402146D01*
X134384658Y-109601691D01*
X134384659Y-109601694D01*
X134479918Y-109788647D01*
X134603238Y-109958384D01*
X134603242Y-109958389D01*
X134751610Y-110106757D01*
X134751615Y-110106761D01*
X134921354Y-110230083D01*
X134959492Y-110249516D01*
X135010287Y-110297490D01*
X135027082Y-110365311D01*
X135004544Y-110431446D01*
X134959492Y-110470484D01*
X134921354Y-110489916D01*
X134751615Y-110613238D01*
X134751610Y-110613242D01*
X134603242Y-110761610D01*
X134603238Y-110761615D01*
X134479916Y-110931354D01*
X134460484Y-110969492D01*
X134412510Y-111020287D01*
X134344689Y-111037082D01*
X134278554Y-111014544D01*
X134239516Y-110969492D01*
X134220083Y-110931354D01*
X134096761Y-110761615D01*
X134096757Y-110761610D01*
X133948389Y-110613242D01*
X133948384Y-110613238D01*
X133778647Y-110489918D01*
X133778646Y-110489917D01*
X133778644Y-110489916D01*
X133718750Y-110459398D01*
X133591694Y-110394659D01*
X133591691Y-110394658D01*
X133392146Y-110329823D01*
X133288527Y-110313411D01*
X133184909Y-110297000D01*
X132975091Y-110297000D01*
X132906012Y-110307941D01*
X132767853Y-110329823D01*
X132568308Y-110394658D01*
X132568305Y-110394659D01*
X132381352Y-110489918D01*
X132211615Y-110613238D01*
X132211610Y-110613242D01*
X132063242Y-110761610D01*
X132063238Y-110761615D01*
X131939916Y-110931354D01*
X131920484Y-110969492D01*
X131872510Y-111020287D01*
X131804689Y-111037082D01*
X131738554Y-111014544D01*
X131699516Y-110969492D01*
X131680083Y-110931354D01*
X131556761Y-110761615D01*
X131556757Y-110761610D01*
X131408389Y-110613242D01*
X131408384Y-110613238D01*
X131238647Y-110489918D01*
X131238646Y-110489917D01*
X131238644Y-110489916D01*
X131178750Y-110459398D01*
X131051694Y-110394659D01*
X131051691Y-110394658D01*
X130852146Y-110329823D01*
X130748527Y-110313411D01*
X130644909Y-110297000D01*
X130435091Y-110297000D01*
X130366012Y-110307941D01*
X130227853Y-110329823D01*
X130028308Y-110394658D01*
X130028305Y-110394659D01*
X129841352Y-110489918D01*
X129671615Y-110613238D01*
X129671610Y-110613242D01*
X129523242Y-110761610D01*
X129523238Y-110761615D01*
X129399916Y-110931354D01*
X129380203Y-110970043D01*
X129332228Y-111020839D01*
X129264407Y-111037633D01*
X129198272Y-111015095D01*
X129159234Y-110970042D01*
X129139653Y-110931614D01*
X129102742Y-110880810D01*
X129102741Y-110880809D01*
X128527870Y-111455681D01*
X128517178Y-111415778D01*
X128444110Y-111289222D01*
X128340778Y-111185890D01*
X128214222Y-111112822D01*
X128174315Y-111102129D01*
X128749188Y-110527257D01*
X128698378Y-110490342D01*
X128511506Y-110395125D01*
X128312028Y-110330310D01*
X128104869Y-110297500D01*
X127895131Y-110297500D01*
X127687971Y-110330310D01*
X127488493Y-110395125D01*
X127301611Y-110490347D01*
X127250810Y-110527256D01*
X127250810Y-110527257D01*
X127825682Y-111102129D01*
X127785778Y-111112822D01*
X127659222Y-111185890D01*
X127555890Y-111289222D01*
X127482822Y-111415778D01*
X127472129Y-111455682D01*
X126897257Y-110880810D01*
X126897256Y-110880810D01*
X126860347Y-110931611D01*
X126840764Y-110970045D01*
X126792788Y-111020840D01*
X126724967Y-111037634D01*
X126658832Y-111015095D01*
X126619796Y-110970043D01*
X126600084Y-110931356D01*
X126600082Y-110931353D01*
X126600081Y-110931351D01*
X126476761Y-110761615D01*
X126476757Y-110761610D01*
X126328389Y-110613242D01*
X126328384Y-110613238D01*
X126158647Y-110489918D01*
X126158646Y-110489917D01*
X126158644Y-110489916D01*
X126098750Y-110459398D01*
X125971694Y-110394659D01*
X125971691Y-110394658D01*
X125772146Y-110329823D01*
X125668527Y-110313411D01*
X125564909Y-110297000D01*
X125355091Y-110297000D01*
X125286012Y-110307941D01*
X125147853Y-110329823D01*
X124948308Y-110394658D01*
X124948305Y-110394659D01*
X124761352Y-110489918D01*
X124591615Y-110613238D01*
X124591610Y-110613242D01*
X124443242Y-110761610D01*
X124443238Y-110761615D01*
X124319916Y-110931354D01*
X124300484Y-110969492D01*
X124252510Y-111020287D01*
X124184689Y-111037082D01*
X124118554Y-111014544D01*
X124079516Y-110969492D01*
X124060083Y-110931354D01*
X123936761Y-110761615D01*
X123936757Y-110761610D01*
X123788389Y-110613242D01*
X123788384Y-110613238D01*
X123618647Y-110489918D01*
X123618646Y-110489917D01*
X123618644Y-110489916D01*
X123558750Y-110459398D01*
X123431694Y-110394659D01*
X123431691Y-110394658D01*
X123232146Y-110329823D01*
X123128527Y-110313411D01*
X123024909Y-110297000D01*
X122815091Y-110297000D01*
X122746012Y-110307941D01*
X122607853Y-110329823D01*
X122408308Y-110394658D01*
X122408305Y-110394659D01*
X122221352Y-110489918D01*
X122051615Y-110613238D01*
X122051610Y-110613242D01*
X121903242Y-110761610D01*
X121903238Y-110761615D01*
X121779916Y-110931354D01*
X121760484Y-110969492D01*
X121712510Y-111020287D01*
X121644689Y-111037082D01*
X121578554Y-111014544D01*
X121539516Y-110969492D01*
X121520083Y-110931354D01*
X121396761Y-110761615D01*
X121396757Y-110761610D01*
X121248389Y-110613242D01*
X121248384Y-110613238D01*
X121078648Y-110489918D01*
X121074434Y-110487771D01*
X121040507Y-110470484D01*
X120989712Y-110422511D01*
X120972917Y-110354690D01*
X120995454Y-110288555D01*
X121040507Y-110249515D01*
X121078644Y-110230084D01*
X121248391Y-110106756D01*
X121396756Y-109958391D01*
X121520084Y-109788644D01*
X121615340Y-109601694D01*
X121680177Y-109402145D01*
X121713000Y-109194909D01*
X121713000Y-108985091D01*
X121680177Y-108777855D01*
X121640569Y-108655952D01*
X121615341Y-108578308D01*
X121615340Y-108578305D01*
X121582353Y-108513566D01*
X121520084Y-108391356D01*
X121504327Y-108369669D01*
X121396761Y-108221615D01*
X121396757Y-108221610D01*
X121248389Y-108073242D01*
X121248384Y-108073238D01*
X121078648Y-107949918D01*
X121074434Y-107947771D01*
X121040507Y-107930484D01*
X120989712Y-107882511D01*
X120972917Y-107814690D01*
X120995454Y-107748555D01*
X121040507Y-107709515D01*
X121078644Y-107690084D01*
X121248391Y-107566756D01*
X121396756Y-107418391D01*
X121520084Y-107248644D01*
X121615340Y-107061694D01*
X121680177Y-106862145D01*
X121713000Y-106654909D01*
X121713000Y-106445091D01*
X121680177Y-106237855D01*
X121640569Y-106115952D01*
X121615341Y-106038308D01*
X121615340Y-106038305D01*
X121582353Y-105973566D01*
X121520084Y-105851356D01*
X121504327Y-105829669D01*
X121396761Y-105681615D01*
X121396757Y-105681610D01*
X121248389Y-105533242D01*
X121248384Y-105533238D01*
X121078648Y-105409918D01*
X121074434Y-105407771D01*
X121040507Y-105390484D01*
X120989712Y-105342511D01*
X120972917Y-105274690D01*
X120995454Y-105208555D01*
X121040507Y-105169515D01*
X121078644Y-105150084D01*
X121248391Y-105026756D01*
X121396756Y-104878391D01*
X121520084Y-104708644D01*
X121615340Y-104521694D01*
X121680177Y-104322145D01*
X121713000Y-104114909D01*
X121713000Y-103905091D01*
X121680177Y-103697855D01*
X121640569Y-103575952D01*
X121615341Y-103498308D01*
X121615340Y-103498305D01*
X121582353Y-103433566D01*
X121520084Y-103311356D01*
X121504327Y-103289669D01*
X121396761Y-103141615D01*
X121396757Y-103141610D01*
X121248389Y-102993242D01*
X121248384Y-102993238D01*
X121078648Y-102869918D01*
X121074434Y-102867771D01*
X121040507Y-102850484D01*
X120989712Y-102802511D01*
X120972917Y-102734690D01*
X120995454Y-102668555D01*
X121040507Y-102629515D01*
X121078644Y-102610084D01*
X121248391Y-102486756D01*
X121396756Y-102338391D01*
X121520084Y-102168644D01*
X121615340Y-101981694D01*
X121680177Y-101782145D01*
X121713000Y-101574909D01*
X121713000Y-101365091D01*
X121680177Y-101157855D01*
X121630340Y-101004471D01*
X121615341Y-100958308D01*
X121615340Y-100958305D01*
X121549786Y-100829650D01*
X121520084Y-100771356D01*
X121466823Y-100698048D01*
X121396761Y-100601615D01*
X121396757Y-100601610D01*
X121248389Y-100453242D01*
X121248384Y-100453238D01*
X121078648Y-100329918D01*
X121074434Y-100327771D01*
X121040507Y-100310484D01*
X120989712Y-100262511D01*
X120972917Y-100194690D01*
X120995454Y-100128555D01*
X121040507Y-100089515D01*
X121078644Y-100070084D01*
X121248391Y-99946756D01*
X121396756Y-99798391D01*
X121520084Y-99628644D01*
X121615340Y-99441694D01*
X121680177Y-99242145D01*
X121713000Y-99034909D01*
X121713000Y-98825091D01*
X121680177Y-98617855D01*
X121640569Y-98495952D01*
X121615341Y-98418308D01*
X121615340Y-98418305D01*
X121582353Y-98353566D01*
X121520084Y-98231356D01*
X121504327Y-98209669D01*
X121396761Y-98061615D01*
X121396757Y-98061610D01*
X121248389Y-97913242D01*
X121248384Y-97913238D01*
X121078648Y-97789918D01*
X121074434Y-97787771D01*
X121040507Y-97770484D01*
X120989712Y-97722511D01*
X120972917Y-97654690D01*
X120995454Y-97588555D01*
X121040507Y-97549515D01*
X121078644Y-97530084D01*
X121248391Y-97406756D01*
X121396756Y-97258391D01*
X121520084Y-97088644D01*
X121615340Y-96901694D01*
X121680177Y-96702145D01*
X121713000Y-96494909D01*
X121713000Y-96285091D01*
X121680177Y-96077855D01*
X121640569Y-95955952D01*
X121615341Y-95878308D01*
X121615340Y-95878305D01*
X121582353Y-95813566D01*
X121520084Y-95691356D01*
X121423880Y-95558942D01*
X121396761Y-95521615D01*
X121396757Y-95521610D01*
X121248389Y-95373242D01*
X121248384Y-95373238D01*
X121078648Y-95249918D01*
X121074434Y-95247771D01*
X121040507Y-95230484D01*
X120989712Y-95182511D01*
X120972917Y-95114690D01*
X120995454Y-95048555D01*
X121040507Y-95009515D01*
X121078644Y-94990084D01*
X121248391Y-94866756D01*
X121396756Y-94718391D01*
X121520084Y-94548644D01*
X121615340Y-94361694D01*
X121680177Y-94162145D01*
X121713000Y-93954909D01*
X121713000Y-93745091D01*
X121680177Y-93537855D01*
X121634698Y-93397883D01*
X121615341Y-93338308D01*
X121615340Y-93338305D01*
X121575508Y-93260132D01*
X121520084Y-93151356D01*
X121422799Y-93017454D01*
X121396761Y-92981615D01*
X121396757Y-92981610D01*
X121248389Y-92833242D01*
X121248384Y-92833238D01*
X121078648Y-92709918D01*
X121074434Y-92707771D01*
X121040507Y-92690484D01*
X120989712Y-92642511D01*
X120972917Y-92574690D01*
X120995454Y-92508555D01*
X121040507Y-92469515D01*
X121078644Y-92450084D01*
X121248391Y-92326756D01*
X121396756Y-92178391D01*
X121520084Y-92008644D01*
X121615340Y-91821694D01*
X121680177Y-91622145D01*
X121713000Y-91414909D01*
X121713000Y-91205091D01*
X121680177Y-90997855D01*
X121615340Y-90798306D01*
X121615340Y-90798305D01*
X121582353Y-90733566D01*
X121520084Y-90611356D01*
X121504327Y-90589669D01*
X121396761Y-90441615D01*
X121396757Y-90441610D01*
X121248389Y-90293242D01*
X121248384Y-90293238D01*
X121078648Y-90169918D01*
X121074434Y-90167771D01*
X121040507Y-90150484D01*
X120989712Y-90102511D01*
X120972917Y-90034690D01*
X120995454Y-89968555D01*
X121040507Y-89929515D01*
X121078644Y-89910084D01*
X121248391Y-89786756D01*
X121396756Y-89638391D01*
X121520084Y-89468644D01*
X121615340Y-89281694D01*
X121680177Y-89082145D01*
X121713000Y-88874909D01*
X121713000Y-88665091D01*
X121680177Y-88457855D01*
X121625579Y-88289818D01*
X121615341Y-88258308D01*
X121615340Y-88258305D01*
X121558721Y-88147185D01*
X121520084Y-88071356D01*
X121459095Y-87987411D01*
X121396761Y-87901615D01*
X121396757Y-87901610D01*
X121248389Y-87753242D01*
X121248384Y-87753238D01*
X121078648Y-87629918D01*
X121074434Y-87627771D01*
X121040507Y-87610484D01*
X120989712Y-87562511D01*
X120972917Y-87494690D01*
X120995454Y-87428555D01*
X121040507Y-87389515D01*
X121078644Y-87370084D01*
X121248391Y-87246756D01*
X121396756Y-87098391D01*
X121459035Y-87012671D01*
X121520106Y-86928615D01*
X121575436Y-86885949D01*
X121620424Y-86877500D01*
X123938719Y-86877500D01*
X124005758Y-86897185D01*
G37*
G04 #@! TD.AperFunction*
G04 #@! TA.AperFunction,Conductor*
G36*
X137108251Y-88770778D02*
G01*
X137113939Y-88770910D01*
X137137587Y-88786890D01*
X137163950Y-88801369D01*
X137762589Y-89400008D01*
X137831225Y-89468644D01*
X137849993Y-89487412D01*
X137952760Y-89556079D01*
X137952773Y-89556086D01*
X138066960Y-89603383D01*
X138066965Y-89603385D01*
X138066969Y-89603385D01*
X138066970Y-89603386D01*
X138188194Y-89627500D01*
X153701110Y-89627500D01*
X153768149Y-89647185D01*
X153813904Y-89699989D01*
X153823848Y-89769147D01*
X153794823Y-89832703D01*
X153788791Y-89839181D01*
X150789790Y-92838181D01*
X150728467Y-92871666D01*
X150702109Y-92874500D01*
X149877129Y-92874500D01*
X149877123Y-92874501D01*
X149817516Y-92880908D01*
X149682671Y-92931202D01*
X149682664Y-92931206D01*
X149567455Y-93017452D01*
X149567452Y-93017455D01*
X149481206Y-93132664D01*
X149481202Y-93132671D01*
X149430908Y-93267517D01*
X149424501Y-93327116D01*
X149424500Y-93327135D01*
X149424500Y-93952109D01*
X149404815Y-94019148D01*
X149388181Y-94039790D01*
X141966101Y-101461870D01*
X141904778Y-101495355D01*
X141835086Y-101490371D01*
X141779153Y-101448499D01*
X141778101Y-101447073D01*
X141720415Y-101367673D01*
X141542332Y-101189590D01*
X141338583Y-101041557D01*
X141114184Y-100927219D01*
X140874670Y-100849397D01*
X140750000Y-100829650D01*
X140750000Y-101919252D01*
X140712292Y-101897482D01*
X140572409Y-101860000D01*
X140427591Y-101860000D01*
X140287708Y-101897482D01*
X140250000Y-101919252D01*
X140250000Y-100829650D01*
X140125330Y-100849397D01*
X140125327Y-100849397D01*
X139885815Y-100927219D01*
X139661416Y-101041557D01*
X139574386Y-101104789D01*
X139508579Y-101128269D01*
X139440525Y-101112444D01*
X139391830Y-101062338D01*
X139377500Y-101004471D01*
X139377500Y-93974499D01*
X139397185Y-93907460D01*
X139449989Y-93861705D01*
X139501500Y-93850499D01*
X141647871Y-93850499D01*
X141647872Y-93850499D01*
X141707483Y-93844091D01*
X141842331Y-93793796D01*
X141957546Y-93707546D01*
X142043796Y-93592331D01*
X142094091Y-93457483D01*
X142100500Y-93397873D01*
X142100499Y-91102128D01*
X142094091Y-91042517D01*
X142085313Y-91018983D01*
X142043797Y-90907671D01*
X142043793Y-90907664D01*
X141957547Y-90792455D01*
X141957544Y-90792452D01*
X141842335Y-90706206D01*
X141842328Y-90706202D01*
X141707482Y-90655908D01*
X141707483Y-90655908D01*
X141647883Y-90649501D01*
X141647881Y-90649500D01*
X141647873Y-90649500D01*
X141647864Y-90649500D01*
X139352129Y-90649500D01*
X139352123Y-90649501D01*
X139292516Y-90655908D01*
X139157671Y-90706202D01*
X139157664Y-90706206D01*
X139042455Y-90792452D01*
X139042452Y-90792455D01*
X138956206Y-90907664D01*
X138956200Y-90907675D01*
X138939114Y-90953485D01*
X138897243Y-91009419D01*
X138831778Y-91033835D01*
X138763505Y-91018983D01*
X138735252Y-90997832D01*
X136949234Y-89211814D01*
X136915749Y-89150491D01*
X136914617Y-89103660D01*
X136916137Y-89094577D01*
X136920177Y-89082145D01*
X136953000Y-88874909D01*
X136953000Y-88874377D01*
X136953971Y-88868577D01*
X136966883Y-88841945D01*
X136977364Y-88814258D01*
X136981958Y-88810852D01*
X136984454Y-88805707D01*
X137009715Y-88790284D01*
X137033500Y-88772659D01*
X137039207Y-88772278D01*
X137044088Y-88769299D01*
X137073677Y-88769981D01*
X137103215Y-88768013D01*
X137108251Y-88770778D01*
G37*
G04 #@! TD.AperFunction*
M02*
