M48
; DRILL file {KiCad 9.0.7} date 2026-05-14T17:59:09+0100
; FORMAT={-:-/ absolute / metric / decimal}
; #@! TF.CreationDate,2026-05-14T17:59:09+01:00
; #@! TF.GenerationSoftware,Kicad,Pcbnew,9.0.7
; #@! TF.FileFunction,Plated,1,2,PTH
FMAT,2
METRIC
; #@! TA.AperFunction,Plated,PTH,ViaDrill
T1C0.300
; #@! TA.AperFunction,Plated,PTH,ComponentDrill
T2C0.800
; #@! TA.AperFunction,Plated,PTH,ComponentDrill
T3C0.900
; #@! TA.AperFunction,Plated,PTH,ComponentDrill
T4C1.000
; #@! TA.AperFunction,Plated,PTH,ComponentDrill
T5C1.100
; #@! TA.AperFunction,Plated,PTH,ComponentDrill
T6C1.110
; #@! TA.AperFunction,Plated,PTH,ComponentDrill
T7C1.270
; #@! TA.AperFunction,Plated,PTH,ComponentDrill
T8C1.500
; #@! TA.AperFunction,Plated,PTH,ComponentDrill
T9C4.550
%
G90
G05
T1
X127.75Y-139.75
X138.5Y-118.25
X138.5Y-128.25
X140.5Y-127.5
X140.75Y-120.75
X144.0Y-82.0
X150.25Y-68.0
X152.5Y-87.25
X154.0Y-87.0
X155.25Y-87.25
X157.0Y-137.75
X167.75Y-117.75
T2
X146.0Y-117.2
X146.0Y-124.8
T3
X157.25Y-116.98
X157.25Y-119.52
X157.25Y-122.06
X157.25Y-124.6
X157.25Y-127.14
X157.25Y-129.68
X157.25Y-132.22
T4
X118.5Y-131.25
X118.5Y-137.75
X119.42Y-156.25
X121.96Y-156.25
X123.0Y-131.25
X123.0Y-137.75
X124.5Y-156.25
X165.17Y-156.0
X167.71Y-156.0
X170.25Y-156.0
T5
X119.5Y-140.59
X119.5Y-150.75
X130.21Y-156.161
X135.29Y-156.161
X140.5Y-92.25
X140.5Y-102.41
X141.75Y-135.331
X141.75Y-145.491
X141.96Y-66.75
X147.04Y-66.75
X147.46Y-156.411
X152.54Y-156.411
X168.0Y-83.0
X168.0Y-88.08
T6
X120.38Y-65.91
X120.38Y-68.45
X120.38Y-70.99
X120.38Y-73.53
X120.38Y-76.07
X120.38Y-78.61
X120.38Y-81.15
X120.38Y-83.69
X120.38Y-86.23
X120.38Y-88.77
X120.38Y-91.31
X120.38Y-93.85
X120.38Y-96.39
X120.38Y-98.93
X120.38Y-101.47
X120.38Y-104.01
X120.38Y-106.55
X120.38Y-109.09
X120.38Y-111.63
X120.38Y-114.17
X120.38Y-116.71
X120.38Y-119.25
X120.38Y-121.79
X120.38Y-124.33
X122.92Y-111.63
X123.43Y-72.26
X123.43Y-74.8
X123.43Y-77.34
X123.43Y-79.88
X123.43Y-82.42
X125.46Y-111.63
X128.0Y-111.63
X130.54Y-111.63
X133.08Y-68.45
X133.08Y-111.63
X135.62Y-65.91
X135.62Y-68.45
X135.62Y-70.99
X135.62Y-73.53
X135.62Y-76.07
X135.62Y-78.61
X135.62Y-81.15
X135.62Y-83.69
X135.62Y-86.23
X135.62Y-88.77
X135.62Y-91.31
X135.62Y-93.85
X135.62Y-96.39
X135.62Y-98.93
X135.62Y-101.47
X135.62Y-104.01
X135.62Y-106.55
X135.62Y-109.09
X135.62Y-111.63
X135.62Y-114.17
X135.62Y-116.71
X135.62Y-119.25
X135.62Y-121.79
X135.62Y-124.33
T7
X153.36Y-112.58
X155.9Y-112.58
X157.5Y-65.4
X157.5Y-67.95
X157.5Y-70.5
X158.44Y-112.58
X160.98Y-112.58
X163.52Y-112.58
X166.06Y-112.58
X168.6Y-112.58
X171.14Y-112.58
T8
X151.05Y-94.5
X170.95Y-94.5
T9
X167.5Y-67.05
X167.5Y-74.25
M30
