G04 #@! TF.GenerationSoftware,KiCad,Pcbnew,9.0.7*
G04 #@! TF.CreationDate,2026-05-14T17:59:11+01:00*
G04 #@! TF.ProjectId,Pointy R1 Flight controller,506f696e-7479-4205-9231-20466c696768,rev?*
G04 #@! TF.SameCoordinates,Original*
G04 #@! TF.FileFunction,Soldermask,Top*
G04 #@! TF.FilePolarity,Negative*
%FSLAX46Y46*%
G04 Gerber Fmt 4.6, Leading zero omitted, Abs format (unit mm)*
G04 Created by KiCad (PCBNEW 9.0.7) date 2026-05-14 17:59:11*
%MOMM*%
%LPD*%
G01*
G04 APERTURE LIST*
G04 Aperture macros list*
%AMRoundRect*
0 Rectangle with rounded corners*
0 $1 Rounding radius*
0 $2 $3 $4 $5 $6 $7 $8 $9 X,Y pos of 4 corners*
0 Add a 4 corners polygon primitive as box body*
4,1,4,$2,$3,$4,$5,$6,$7,$8,$9,$2,$3,0*
0 Add four circle primitives for the rounded corners*
1,1,$1+$1,$2,$3*
1,1,$1+$1,$4,$5*
1,1,$1+$1,$6,$7*
1,1,$1+$1,$8,$9*
0 Add four rect primitives between the rounded corners*
20,1,$1+$1,$2,$3,$4,$5,0*
20,1,$1+$1,$4,$5,$6,$7,0*
20,1,$1+$1,$6,$7,$8,$9,0*
20,1,$1+$1,$8,$9,$2,$3,0*%
G04 Aperture macros list end*
%ADD10RoundRect,0.250000X-0.262500X-0.450000X0.262500X-0.450000X0.262500X0.450000X-0.262500X0.450000X0*%
%ADD11R,2.200000X2.200000*%
%ADD12O,2.200000X2.200000*%
%ADD13RoundRect,0.102000X-0.825000X-0.825000X0.825000X-0.825000X0.825000X0.825000X-0.825000X0.825000X0*%
%ADD14C,1.854000*%
%ADD15RoundRect,0.102000X0.754000X-0.754000X0.754000X0.754000X-0.754000X0.754000X-0.754000X-0.754000X0*%
%ADD16C,1.712000*%
%ADD17C,2.454000*%
%ADD18RoundRect,0.102000X-1.125000X-1.125000X1.125000X-1.125000X1.125000X1.125000X-1.125000X1.125000X0*%
%ADD19RoundRect,0.250000X0.262500X0.450000X-0.262500X0.450000X-0.262500X-0.450000X0.262500X-0.450000X0*%
%ADD20R,1.244600X0.939800*%
%ADD21C,1.869000*%
%ADD22R,1.041400X3.505200*%
%ADD23R,10.718800X7.696200*%
%ADD24C,3.200000*%
%ADD25C,2.109000*%
%ADD26RoundRect,0.250000X-0.250000X-0.475000X0.250000X-0.475000X0.250000X0.475000X-0.250000X0.475000X0*%
%ADD27RoundRect,0.102000X0.825000X0.825000X-0.825000X0.825000X-0.825000X-0.825000X0.825000X-0.825000X0*%
%ADD28R,1.700000X1.700000*%
%ADD29C,1.700000*%
%ADD30RoundRect,0.250000X-0.475000X0.250000X-0.475000X-0.250000X0.475000X-0.250000X0.475000X0.250000X0*%
%ADD31RoundRect,0.102000X0.825000X-0.825000X0.825000X0.825000X-0.825000X0.825000X-0.825000X-0.825000X0*%
%ADD32C,1.800000*%
%ADD33C,2.204000*%
%ADD34RoundRect,0.102000X1.000000X-1.000000X1.000000X1.000000X-1.000000X1.000000X-1.000000X-1.000000X0*%
%ADD35C,6.204000*%
%ADD36RoundRect,0.102000X3.000000X-3.000000X3.000000X3.000000X-3.000000X3.000000X-3.000000X-3.000000X0*%
%ADD37RoundRect,0.102000X-0.955000X0.955000X-0.955000X-0.955000X0.955000X-0.955000X0.955000X0.955000X0*%
%ADD38C,2.114000*%
G04 APERTURE END LIST*
D10*
X157675000Y-82750000D03*
X159500000Y-82750000D03*
D11*
X141750000Y-145491300D03*
D12*
X141750000Y-135331300D03*
D13*
X147460000Y-156411300D03*
D14*
X152540000Y-156411300D03*
D15*
X118500000Y-137750000D03*
D16*
X118500000Y-131250000D03*
X123000000Y-137750000D03*
X123000000Y-131250000D03*
D11*
X140500000Y-92250000D03*
D12*
X140500000Y-102410000D03*
D17*
X170950000Y-94500000D03*
D18*
X151050000Y-94500000D03*
D19*
X147311600Y-98850001D03*
X145486600Y-98850001D03*
D20*
X143873200Y-101450002D03*
X143873200Y-104750000D03*
X148750000Y-104750000D03*
X148750000Y-101450002D03*
D21*
X120380000Y-70990000D03*
X120380000Y-73530000D03*
X120380000Y-76070000D03*
X120380000Y-78610000D03*
X120380000Y-81150000D03*
X120380000Y-83690000D03*
X120380000Y-86230000D03*
X120380000Y-88770000D03*
X120380000Y-91310000D03*
X120380000Y-93850000D03*
X120380000Y-96390000D03*
X120380000Y-98930000D03*
X135620000Y-98930000D03*
X135620000Y-96390000D03*
X135620000Y-93850000D03*
X135620000Y-91310000D03*
X135620000Y-88770000D03*
X135620000Y-86230000D03*
X135620000Y-83690000D03*
X135620000Y-81150000D03*
X135620000Y-78610000D03*
X135620000Y-76070000D03*
X135620000Y-73530000D03*
X120380000Y-104010000D03*
X120380000Y-106550000D03*
X120380000Y-109090000D03*
X120380000Y-111630000D03*
X120380000Y-114170000D03*
X120380000Y-116710000D03*
X120380000Y-119250000D03*
X120380000Y-121790000D03*
X120380000Y-124330000D03*
X135620000Y-124330000D03*
X135620000Y-121790000D03*
X135620000Y-119250000D03*
X135620000Y-116710000D03*
X135620000Y-114170000D03*
X135620000Y-111630000D03*
X135620000Y-109090000D03*
X135620000Y-106550000D03*
X135620000Y-104010000D03*
X120380000Y-101470000D03*
X122920000Y-111630000D03*
X125460000Y-111630000D03*
X128000000Y-111630000D03*
X130540000Y-111630000D03*
X133080000Y-111630000D03*
X123430000Y-82420000D03*
X123430000Y-79880000D03*
X123430000Y-77340000D03*
X123430000Y-74800000D03*
X123430000Y-72260000D03*
X135620000Y-70990000D03*
X135620000Y-65910000D03*
X120380000Y-68450000D03*
X133080000Y-68450000D03*
X135620000Y-101470000D03*
X135620000Y-68450000D03*
X120380000Y-65910000D03*
D11*
X119500000Y-150750000D03*
D12*
X119500000Y-140590000D03*
D10*
X144675000Y-92000000D03*
X146500000Y-92000000D03*
D22*
X135290000Y-134499000D03*
D23*
X132750000Y-145661300D03*
D22*
X130210000Y-134499000D03*
X152540000Y-134749000D03*
D23*
X150000000Y-145911300D03*
D22*
X147460000Y-134749000D03*
X141960000Y-87912300D03*
D23*
X144500000Y-76750000D03*
D22*
X147040000Y-87912300D03*
D19*
X151000000Y-129750000D03*
X149175000Y-129750000D03*
D24*
X154190000Y-100820000D03*
X170310000Y-100820000D03*
D25*
X168600000Y-112580000D03*
X155900000Y-112580000D03*
X171140000Y-112580000D03*
X158440000Y-112580000D03*
X160980000Y-112580000D03*
X153360000Y-112580000D03*
X166060000Y-112580000D03*
X163520000Y-112580000D03*
D26*
X145411600Y-107850001D03*
X147311600Y-107850001D03*
D27*
X147040000Y-66750000D03*
D14*
X141960000Y-66750000D03*
D13*
X130210000Y-156161300D03*
D14*
X135290000Y-156161300D03*
D28*
X119420000Y-156250000D03*
D29*
X121960000Y-156250000D03*
X124500000Y-156250000D03*
D10*
X157675000Y-78250000D03*
X159500000Y-78250000D03*
D19*
X133500000Y-129750000D03*
X131675000Y-129750000D03*
D30*
X152750000Y-69850000D03*
X152750000Y-71750000D03*
D31*
X168000000Y-88080000D03*
D14*
X168000000Y-83000000D03*
D32*
X157250000Y-116980000D03*
X157250000Y-119520000D03*
X157250000Y-122060000D03*
X157250000Y-124600000D03*
X157250000Y-127140000D03*
X157250000Y-129680000D03*
X157250000Y-132220000D03*
D30*
X152750000Y-64600000D03*
X152750000Y-66500000D03*
D33*
X146000000Y-117200000D03*
D34*
X146000000Y-124800000D03*
D35*
X167500000Y-67050000D03*
D36*
X167500000Y-74250000D03*
D37*
X157500000Y-65400000D03*
D38*
X157500000Y-67950000D03*
X157500000Y-70500000D03*
D28*
X165170000Y-156000000D03*
D29*
X167710000Y-156000000D03*
X170250000Y-156000000D03*
M02*
